<?xml version="1.0" encoding="utf-8"?>
<!-- Generator: Adobe Illustrator 22.0.0, SVG Export Plug-In . SVG Version: 6.00 Build 0)  -->
<svg version="1.1" id="Layer_1" xmlns="http://www.w3.org/2000/svg" xmlns:xlink="http://www.w3.org/1999/xlink" x="0px" y="0px"
	 viewBox="0 0 1920 498.7" style="enable-background:new 0 0 1920 498.7;" xml:space="preserve">
<g>
	<g>
		<g>
			<path d="M207.3,17.1v4.7h-26.2v67.7H169V21.8h-26.2v-4.7L207.3,17.1L207.3,17.1z"/>
		</g>
		<g>
			<path d="M240.6,90.6c-3.8,0-7.3-0.7-10.6-2.1s-6.2-3.3-8.7-5.8c-2.5-2.4-4.4-5.3-5.9-8.6c-1.4-3.3-2.2-6.8-2.2-10.5
				c0-4.5,0.7-8.6,2-12.4s3.2-7.1,5.6-9.9c2.4-2.8,5.3-4.9,8.6-6.5c3.4-1.6,7.1-2.3,11.2-2.3c3.7,0,7,0.6,10.1,1.9
				c3,1.3,5.7,3,7.8,5.2c2.2,2.2,3.9,4.7,5.1,7.5s1.8,5.8,1.8,8.9H224c0,3.7,0.5,7.2,1.5,10.4c1,3.2,2.3,6,4.1,8.3
				c1.7,2.3,3.8,4.1,6.2,5.5c2.4,1.3,5.1,2,7.9,2c2.4,0,4.7-0.4,7-1.2c2.2-0.8,4.2-1.8,6-3.1c1.8-1.3,3.3-2.7,4.6-4.4
				c1.3-1.6,2.2-3.3,2.7-5.1l3.2,1.4c-0.8,2.9-2.1,5.6-3.9,8.1s-3.9,4.7-6.2,6.6c-2.4,1.9-5,3.3-7.8,4.4
				C246.4,90.1,243.5,90.6,240.6,90.6z M251.7,51.6c0-2.1-0.4-4.1-1.1-5.9c-0.7-1.8-1.8-3.4-3.1-4.7c-1.3-1.3-2.8-2.4-4.6-3.1
				c-1.7-0.8-3.6-1.1-5.6-1.1c-1.7,0-3.3,0.4-4.8,1.1c-1.5,0.8-2.9,1.8-4.1,3.1c-1.2,1.3-2.2,2.9-3,4.7c-0.8,1.8-1.3,3.8-1.4,5.9
				H251.7z"/>
		</g>
		<g>
			<path d="M289,89.4h-11V8.2l7.9-3.2h3.2v84.4H289z"/>
		</g>
		<g>
			<path d="M327.3,90.6c-3.8,0-7.3-0.7-10.6-2.1c-3.3-1.4-6.2-3.3-8.7-5.8c-2.5-2.4-4.4-5.3-5.9-8.6c-1.4-3.3-2.2-6.8-2.2-10.5
				c0-4.5,0.7-8.6,2-12.4s3.2-7.1,5.6-9.9s5.3-4.9,8.6-6.5c3.4-1.6,7.1-2.3,11.2-2.3c3.7,0,7,0.6,10.1,1.9c3,1.3,5.7,3,7.8,5.2
				c2.2,2.2,3.9,4.7,5.1,7.5s1.8,5.8,1.8,8.9h-41.6c0,3.7,0.5,7.2,1.5,10.4c1,3.2,2.3,6,4.1,8.3c1.7,2.3,3.8,4.1,6.2,5.5
				c2.4,1.3,5.1,2,7.9,2c2.4,0,4.7-0.4,7-1.2c2.2-0.8,4.2-1.8,6-3.1c1.8-1.3,3.3-2.7,4.6-4.4c1.3-1.6,2.2-3.3,2.7-5.1l3.2,1.4
				c-0.8,2.9-2.1,5.6-3.9,8.1s-3.9,4.7-6.2,6.6c-2.4,1.9-5,3.3-7.8,4.4C333,90.1,330.1,90.6,327.3,90.6z M338.3,51.6
				c0-2.1-0.4-4.1-1.1-5.9s-1.8-3.4-3.1-4.7c-1.3-1.3-2.8-2.4-4.6-3.1c-1.7-0.8-3.6-1.1-5.6-1.1c-1.7,0-3.3,0.4-4.8,1.1
				c-1.5,0.8-2.9,1.8-4.1,3.1c-1.2,1.3-2.2,2.9-3,4.7c-0.8,1.8-1.3,3.8-1.4,5.9H338.3z"/>
		</g>
		<g>
			<path d="M396.8,33.6v4.7h-14.9v51.1h-11.1V38.3h-11.7v-4.7h11.7v-6.5c0-3,0.5-5.9,1.6-8.6s2.6-5,4.4-7c1.9-2,4.1-3.6,6.6-4.7
				s5.2-1.7,8.1-1.7c2.5,0,4.6,0.3,6.6,0.8c1.9,0.5,3.5,1.2,4.9,2c1.3,0.8,2.3,1.9,3,3c0.7,1.2,1,2.4,1,3.7c0,0.8-0.2,1.6-0.5,2.2
				s-0.7,1.2-1.2,1.6c-0.5,0.5-1.1,0.8-1.8,1c-0.7,0.2-1.4,0.4-2.2,0.4c-1.4,0-2.4-0.3-3.1-0.8s-1.3-1.2-1.6-2
				c-0.4-0.8-0.7-1.7-0.9-2.6c-0.2-0.9-0.5-1.8-1-2.6c-0.4-0.8-1-1.5-1.8-2S391,9,389.6,9c-1.1,0-2.1,0.3-3.1,1
				c-1,0.6-1.8,1.5-2.4,2.5s-1.2,2.2-1.6,3.6s-0.6,2.7-0.6,4.2v13.2L396.8,33.6L396.8,33.6z"/>
		</g>
		<g>
			<path d="M433.1,90.6c-4.3,0-8.2-0.7-11.8-2.2c-3.6-1.5-6.7-3.5-9.3-6.1c-2.6-2.6-4.7-5.6-6.1-9c-1.5-3.4-2.2-7.1-2.2-11
				c0-4.1,0.7-8,2.2-11.6s3.5-6.8,6.1-9.5s5.7-4.8,9.3-6.4c3.6-1.6,7.6-2.3,11.8-2.3c4.3,0,8.2,0.7,11.8,2.1
				c3.6,1.4,6.7,3.4,9.3,5.8c2.6,2.5,4.7,5.4,6.2,8.7c1.5,3.3,2.2,6.9,2.2,10.7c0,4.2-0.7,8.2-2.2,11.9c-1.5,3.7-3.5,7-6.2,9.8
				c-2.6,2.8-5.7,5-9.3,6.6S437.4,90.6,433.1,90.6z M435.2,86.5c2.2,0,4.2-0.6,6-1.7s3.4-2.6,4.7-4.5c1.3-1.9,2.4-4.1,3.1-6.6
				s1.1-5.2,1.1-8c0-4.1-0.3-7.8-1-11.3s-1.8-6.6-3.4-9.2s-3.6-4.7-6.1-6.2s-5.6-2.3-9.2-2.3c-1.9,0-3.7,0.5-5.4,1.6
				c-1.7,1.1-3.3,2.5-4.6,4.4c-1.3,1.9-2.4,4.1-3.2,6.5c-0.8,2.5-1.2,5.1-1.2,7.9c0,4.1,0.4,7.9,1.3,11.4c0.9,3.6,2.1,6.7,3.7,9.3
				c1.6,2.6,3.6,4.7,6,6.3C429.5,85.7,432.2,86.5,435.2,86.5z"/>
		</g>
		<g>
			<path d="M473.2,33.6h11.1v10.2c3.4-3.8,6.9-6.6,10.5-8.5s7.3-2.8,11.1-2.8c1.9,0,3.8,0.4,5.5,1.3s3.2,2.1,4.5,3.6s2.3,3.3,3,5.4
				s1.1,4.3,1.1,6.6v40h-11.1V51.2c0-3.7-0.8-6.5-2.5-8.4s-3.8-2.9-6.4-2.9c-1.2,0-2.4,0.2-3.7,0.6c-1.3,0.4-2.6,0.9-4,1.6
				s-2.7,1.6-4.1,2.5c-1.4,1-2.6,2.1-3.9,3.3v41.3h-11.1L473.2,33.6L473.2,33.6z"/>
		</g>
		<g>
			<path d="M559.8,90.6c-4.3,0-8.2-0.7-11.8-2.2s-6.7-3.5-9.3-6.1s-4.7-5.6-6.1-9c-1.5-3.4-2.2-7.1-2.2-11c0-4.1,0.7-8,2.2-11.6
				s3.5-6.8,6.1-9.5s5.7-4.8,9.3-6.4s7.6-2.3,11.8-2.3c4.3,0,8.2,0.7,11.8,2.1s6.7,3.4,9.3,5.8c2.6,2.5,4.7,5.4,6.2,8.7
				c1.5,3.3,2.2,6.9,2.2,10.7c0,4.2-0.7,8.2-2.2,11.9c-1.5,3.7-3.5,7-6.2,9.8c-2.6,2.8-5.7,5-9.3,6.6
				C568,89.8,564.1,90.6,559.8,90.6z M561.9,86.5c2.2,0,4.2-0.6,6-1.7s3.4-2.6,4.7-4.5s2.4-4.1,3.1-6.6c0.7-2.5,1.1-5.2,1.1-8
				c0-4.1-0.3-7.8-1-11.3s-1.8-6.6-3.4-9.2c-1.6-2.6-3.6-4.7-6.1-6.2s-5.6-2.3-9.2-2.3c-1.9,0-3.7,0.5-5.4,1.6s-3.3,2.5-4.6,4.4
				s-2.4,4.1-3.2,6.5c-0.8,2.5-1.2,5.1-1.2,7.9c0,4.1,0.4,7.9,1.3,11.4c0.9,3.6,2.1,6.7,3.7,9.3c1.6,2.6,3.6,4.7,6,6.3
				C556.2,85.7,558.9,86.5,561.9,86.5z"/>
		</g>
		<g>
			<path d="M605.4,39.5c0.8,0,1.6,0.2,2.3,0.5s1.3,0.7,1.9,1.2c0.5,0.5,1,1.1,1.3,1.8c0.3,0.7,0.5,1.4,0.5,2.2
				c0,0.8-0.2,1.5-0.5,2.3c-0.3,0.7-0.7,1.3-1.3,1.8c-0.5,0.5-1.2,0.9-1.9,1.2c-0.7,0.3-1.5,0.4-2.3,0.4s-1.6-0.1-2.3-0.4
				s-1.4-0.7-1.9-1.2s-1-1.1-1.3-1.8c-0.3-0.7-0.5-1.5-0.5-2.3s0.2-1.5,0.5-2.2s0.7-1.3,1.3-1.8c0.5-0.5,1.2-0.9,1.9-1.2
				S604.5,39.5,605.4,39.5z M605.4,79.7c0.8,0,1.6,0.1,2.3,0.4s1.3,0.7,1.9,1.2c0.5,0.5,1,1.1,1.3,1.8c0.3,0.7,0.5,1.4,0.5,2.2
				c0,0.8-0.2,1.5-0.5,2.3c-0.3,0.7-0.7,1.3-1.3,1.8c-0.5,0.5-1.2,0.9-1.9,1.2c-0.7,0.3-1.5,0.4-2.3,0.4s-1.6-0.1-2.3-0.4
				s-1.4-0.7-1.9-1.2s-1-1.1-1.3-1.8c-0.3-0.7-0.5-1.5-0.5-2.3s0.2-1.5,0.5-2.2s0.7-1.3,1.3-1.8c0.5-0.5,1.2-0.9,1.9-1.2
				C603.7,79.8,604.5,79.7,605.4,79.7z"/>
		</g>
		<g>
			<path d="M667.7,51.8c2.7-0.3,5.2-0.9,7.5-1.9c2.3-0.9,4.2-2.1,5.9-3.6c1.6-1.5,2.9-3.2,3.8-5.2c0.9-2,1.4-4.2,1.4-6.5
				c0-1.6-0.3-3.1-0.9-4.5c-0.6-1.4-1.5-2.6-2.6-3.7s-2.5-1.9-4.1-2.4c-1.6-0.6-3.4-0.9-5.3-0.9c-1.4,0-2.8,0.2-4.3,0.7
				s-2.9,1.1-4.3,1.9c-1.4,0.8-2.6,1.8-3.8,2.9s-2.1,2.3-2.8,3.5l-2.1-0.8c0.8-2.2,1.8-4.2,3.1-6.2c1.3-1.9,2.8-3.6,4.6-5
				s3.9-2.6,6.2-3.4c2.3-0.8,4.9-1.2,7.7-1.2c2.6,0,5.1,0.4,7.4,1.2c2.3,0.8,4.3,1.9,6,3.2c1.7,1.4,3.1,3,4.1,4.9s1.5,3.9,1.5,6.1
				c0,1.1-0.3,2.4-0.9,3.7c-0.6,1.4-1.4,2.8-2.4,4.2c-1,1.4-2.2,2.8-3.5,4.2c-1.3,1.4-2.7,2.6-4.2,3.6c2.1,0.6,4,1.6,5.8,2.9
				s3.4,2.8,4.8,4.6c1.4,1.7,2.4,3.6,3.2,5.6s1.2,4,1.2,6c0,4.3-0.8,8-2.5,11.2s-4,5.8-6.9,8c-2.9,2.1-6.4,3.7-10.4,4.8
				c-4,1.1-8.3,1.6-13,1.6c-2,0-3.7-0.1-5.3-0.4s-2.9-0.7-4-1.2s-1.9-1.1-2.5-1.9c-0.6-0.7-0.9-1.5-0.9-2.4c0-0.8,0.2-1.4,0.6-1.9
				c0.4-0.5,0.9-0.9,1.5-1.2c0.6-0.3,1.2-0.5,1.9-0.7c0.7-0.1,1.4-0.2,2-0.2c1.3,0,2.4,0.1,3.3,0.4c0.9,0.3,1.8,0.6,2.5,1
				s1.4,0.8,2,1.2c0.6,0.4,1.3,0.8,2,1.2c0.7,0.4,1.5,0.7,2.3,1s1.9,0.4,3,0.4c2.5,0,4.8-0.4,6.7-1.2c1.9-0.8,3.5-1.9,4.9-3.3
				c1.3-1.4,2.3-3,3-4.8s1-3.7,1-5.7c0-2.5-0.5-4.8-1.4-7c-1-2.1-2.4-4-4.4-5.6s-4.5-2.8-7.5-3.7S672,54,668,54v-2.2H667.7z"/>
		</g>
		<g>
			<path d="M740,89.4V28.2h-12.2v-3.1c4.4,0,8-0.9,10.6-2.6s4.7-4.1,6.2-7.1h5.7v74L740,89.4L740,89.4z"/>
		</g>
		<g>
			<path d="M775.7,89.4v-1.9c5.4-5.1,10-9.6,13.9-13.5s7.3-7.3,10-10.3s5-5.6,6.7-7.8c1.7-2.2,3-4.2,4-6s1.6-3.4,1.9-4.9
				c0.3-1.5,0.5-3,0.5-4.4c0-2.1-0.3-4.2-1-6.2s-1.7-3.8-3-5.3c-1.3-1.6-3-2.8-4.9-3.7c-2-0.9-4.2-1.4-6.8-1.4c-2,0-4,0.3-5.9,1
				s-3.7,1.6-5.3,2.8c-1.6,1.2-2.9,2.6-4,4.2c-1.1,1.6-1.8,3.3-2.1,5.1h-2.1c0.2-3,1-5.8,2.3-8.4c1.4-2.6,3.1-4.9,5.2-6.9
				c2.1-2,4.5-3.5,7.2-4.6s5.5-1.7,8.5-1.7c3.7,0,7,0.5,9.9,1.6c2.8,1.1,5.2,2.5,7.1,4.3c1.9,1.8,3.3,3.9,4.3,6.3s1.5,4.9,1.5,7.6
				c0,2.8-0.6,5.6-1.8,8.5s-3.2,6.1-6,9.6s-6.4,7.5-10.8,12c-4.4,4.5-9.9,9.8-16.3,15.8h38.7l-5.4,8.2L775.7,89.4L775.7,89.4z"/>
		</g>
		<g>
			<path d="M851.6,51.8c2.7-0.3,5.2-0.9,7.5-1.9c2.3-0.9,4.2-2.1,5.9-3.6c1.6-1.5,2.9-3.2,3.8-5.2c0.9-2,1.4-4.2,1.4-6.5
				c0-1.6-0.3-3.1-0.9-4.5c-0.6-1.4-1.5-2.6-2.6-3.7s-2.5-1.9-4.1-2.4c-1.6-0.6-3.4-0.9-5.3-0.9c-1.4,0-2.8,0.2-4.3,0.7
				s-2.9,1.1-4.3,1.9c-1.4,0.8-2.6,1.8-3.8,2.9s-2.1,2.3-2.8,3.5l-2.1-0.8c0.8-2.2,1.8-4.2,3.1-6.2c1.3-1.9,2.8-3.6,4.6-5
				s3.9-2.6,6.2-3.4c2.3-0.8,4.9-1.2,7.7-1.2c2.6,0,5.1,0.4,7.4,1.2c2.3,0.8,4.3,1.9,6,3.2c1.7,1.4,3.1,3,4.1,4.9s1.5,3.9,1.5,6.1
				c0,1.1-0.3,2.4-0.9,3.7c-0.6,1.4-1.4,2.8-2.4,4.2c-1,1.4-2.2,2.8-3.5,4.2c-1.3,1.4-2.7,2.6-4.2,3.6c2.1,0.6,4,1.6,5.8,2.9
				s3.4,2.8,4.8,4.6c1.4,1.7,2.4,3.6,3.2,5.6s1.2,4,1.2,6c0,4.3-0.8,8-2.5,11.2s-4,5.8-6.9,8c-2.9,2.1-6.4,3.7-10.4,4.8
				c-4,1.1-8.3,1.6-13,1.6c-2,0-3.7-0.1-5.3-0.4s-2.9-0.7-4-1.2s-1.9-1.1-2.5-1.9c-0.6-0.7-0.9-1.5-0.9-2.4c0-0.8,0.2-1.4,0.6-1.9
				c0.4-0.5,0.9-0.9,1.5-1.2c0.6-0.3,1.2-0.5,1.9-0.7c0.7-0.1,1.4-0.2,2-0.2c1.3,0,2.4,0.1,3.3,0.4c0.9,0.3,1.8,0.6,2.5,1
				s1.4,0.8,2,1.2c0.6,0.4,1.3,0.8,2,1.2c0.7,0.4,1.5,0.7,2.3,1s1.9,0.4,3,0.4c2.5,0,4.8-0.4,6.7-1.2c1.9-0.8,3.5-1.9,4.9-3.3
				c1.3-1.4,2.3-3,3-4.8s1-3.7,1-5.7c0-2.5-0.5-4.8-1.4-7c-1-2.1-2.4-4-4.4-5.6s-4.5-2.8-7.5-3.7s-6.6-1.3-10.6-1.3v-2.2H851.6z"/>
		</g>
		<g>
			<path d="M943.3,26h-23.4l-5.4,9.8c4.5,0,8.8,0.7,12.8,2.1s7.5,3.4,10.6,5.9c3,2.5,5.4,5.5,7.2,9s2.7,7.2,2.7,11.3
				c0,3.7-0.8,7.2-2.4,10.5c-1.7,3.3-3.9,6.2-6.9,8.6c-2.9,2.4-6.3,4.4-10.3,5.8c-3.9,1.4-8.1,2.1-12.6,2.1c-2,0-3.9-0.2-5.6-0.6
				c-1.7-0.4-3.1-0.9-4.3-1.6s-2.1-1.4-2.8-2.3s-1-1.8-1-2.8c0-1.3,0.5-2.3,1.5-2.9s2.2-0.9,3.5-0.9c1.5,0,2.7,0.3,3.7,0.8
				c1,0.6,2.1,1.2,3.1,1.8c1.1,0.7,2.3,1.3,3.6,1.8c1.3,0.6,3,0.8,5.1,0.8c2.4,0,4.6-0.5,6.7-1.4c2.1-0.9,3.9-2.2,5.5-3.8
				c1.6-1.6,2.8-3.5,3.7-5.7s1.4-4.5,1.4-7c0-3.4-0.8-6.4-2.5-9.1s-4.1-5-7.2-7c-3.1-1.9-6.9-3.4-11.3-4.5
				c-4.4-1.1-9.3-1.6-14.8-1.6l15.5-28.3h28.5L943.3,26z"/>
		</g>
		<g>
			<path d="M959.5,89.4v-1.9c5.4-5.1,10-9.6,13.9-13.5s7.3-7.3,10-10.3s5-5.6,6.7-7.8c1.7-2.2,3-4.2,4-6s1.6-3.4,1.9-4.9
				c0.3-1.5,0.5-3,0.5-4.4c0-2.1-0.3-4.2-1-6.2s-1.7-3.8-3-5.3c-1.3-1.6-3-2.8-4.9-3.7c-2-0.9-4.2-1.4-6.8-1.4c-2,0-4,0.3-5.9,1
				s-3.7,1.6-5.3,2.8c-1.6,1.2-2.9,2.6-4,4.2c-1.1,1.6-1.8,3.3-2.1,5.1h-2.1c0.2-3,1-5.8,2.3-8.4c1.4-2.6,3.1-4.9,5.2-6.9
				c2.1-2,4.5-3.5,7.2-4.6s5.5-1.7,8.5-1.7c3.7,0,7,0.5,9.9,1.6c2.8,1.1,5.2,2.5,7.1,4.3c1.9,1.8,3.3,3.9,4.3,6.3s1.5,4.9,1.5,7.6
				c0,2.8-0.6,5.6-1.8,8.5s-3.2,6.1-6,9.6s-6.4,7.5-10.8,12c-4.4,4.5-9.9,9.8-16.3,15.8h38.7l-5.4,8.2L959.5,89.4L959.5,89.4z"/>
		</g>
		<g>
			<path d="M1046.7,91.1c-4,0-7.7-0.9-10.9-2.8c-3.3-1.9-6.1-4.5-8.4-7.9s-4.1-7.4-5.4-12.1c-1.3-4.7-1.9-9.8-1.9-15.4
				c0-5.1,0.6-10,1.9-14.5c1.3-4.5,3.1-8.5,5.4-11.9s5.1-6.1,8.4-8c3.3-2,6.9-3,10.9-3s7.7,1,10.9,3c3.3,2,6.1,4.7,8.4,8
				s4.1,7.4,5.4,11.9s1.9,9.4,1.9,14.5c0,5.6-0.6,10.8-1.9,15.4c-1.3,4.7-3.1,8.7-5.4,12.1s-5.1,6-8.4,7.9
				C1054.4,90.2,1050.7,91.1,1046.7,91.1z M1046.7,87.5c1.6,0,3.1-0.4,4.5-1.3s2.6-2.1,3.7-3.6c1.1-1.6,2-3.4,2.8-5.6
				c0.8-2.1,1.5-4.5,2-7.1s0.9-5.3,1.2-8.2s0.4-5.9,0.4-8.9c0-4.6-0.3-8.9-0.9-13s-1.5-7.7-2.7-10.8c-1.2-3.1-2.7-5.5-4.5-7.3
				s-4-2.7-6.4-2.7c-2.5,0-4.6,0.9-6.4,2.7c-1.8,1.8-3.3,4.3-4.5,7.3c-1.2,3.1-2.1,6.7-2.7,10.8c-0.6,4.1-0.9,8.4-0.9,13
				c0,3,0.1,6,0.4,8.9s0.7,5.6,1.2,8.2s1.2,4.9,2,7.1c0.8,2.1,1.7,4,2.8,5.6c1.1,1.6,2.3,2.8,3.6,3.6
				C1043.6,87.1,1045.1,87.5,1046.7,87.5z"/>
		</g>
		<g>
			<path d="M1107.1,15.4c3.3,0,6.3,0.4,9,1.2c2.8,0.8,5.1,1.9,7.1,3.4s3.5,3.2,4.7,5.2c1.1,2,1.7,4.1,1.7,6.5c0,1.5-0.5,3.1-1.4,4.8
				c-1,1.7-2.2,3.4-3.8,5c-1.6,1.6-3.3,3.1-5.3,4.5s-4.1,2.4-6.2,3.2c3.1,1.8,5.8,3.7,8.2,5.8c2.3,2,4.3,4.1,5.8,6.1s2.7,4,3.5,5.9
				s1.1,3.6,1.1,5c0,2.6-0.6,5.1-1.8,7.4c-1.2,2.3-2.9,4.4-5,6.1s-4.6,3.1-7.4,4.1s-5.8,1.5-9,1.5c-3.4,0-6.5-0.5-9.3-1.4
				s-5.3-2.1-7.3-3.7s-3.6-3.5-4.8-5.6c-1.1-2.2-1.7-4.5-1.7-7c0-2.3,0.4-4.4,1.1-6.3s1.8-3.6,3.1-5.2c1.4-1.6,3-3.2,5-4.6
				c2-1.5,4.1-2.9,6.6-4.4c-2.6-1.9-4.9-3.7-6.7-5.3c-1.9-1.6-3.4-3.2-4.6-4.7s-2.1-3.1-2.6-4.8c-0.6-1.6-0.8-3.4-0.8-5.5
				c0-2.4,0.5-4.6,1.6-6.7s2.6-3.9,4.5-5.5s4.1-2.8,6.6-3.7C1101.5,15.9,1104.3,15.4,1107.1,15.4z M1103.7,54.8
				c-1.7,1.4-3.1,2.8-4.3,4.3c-1.2,1.5-2.1,3.1-2.9,4.6c-0.7,1.6-1.3,3.1-1.6,4.6c-0.3,1.5-0.5,2.9-0.5,4.1c0,2.1,0.4,4,1.1,5.8
				s1.8,3.4,3.1,4.8s2.8,2.4,4.5,3.2c1.7,0.8,3.6,1.2,5.5,1.2c2,0,3.9-0.3,5.7-0.8c1.8-0.6,3.3-1.3,4.6-2.2c1.3-0.9,2.4-2,3.1-3.3
				c0.8-1.3,1.1-2.6,1.1-4.1c0-1-0.2-2.1-0.6-3.3c-0.4-1.2-1-2.4-1.7-3.5c-0.7-1.2-1.5-2.3-2.5-3.4c-0.9-1.1-1.9-2-3-2.8
				L1103.7,54.8z M1110.2,47.2c1.6-1.2,3-2.5,4.3-3.8s2.4-2.7,3.3-4.2s1.6-3,2.1-4.7c0.5-1.6,0.8-3.4,0.8-5.3c0-1.4-0.3-2.8-0.9-4
				s-1.5-2.3-2.6-3.2c-1.2-0.9-2.6-1.6-4.2-2.2c-1.6-0.5-3.5-0.8-5.6-0.8c-1.8,0-3.5,0.3-5.1,0.9c-1.5,0.6-2.9,1.4-4,2.4
				s-2,2.1-2.6,3.4s-0.9,2.6-0.9,3.9c0,1.8,0.5,3.5,1.4,5.1c1,1.6,2.2,3.2,3.6,4.6c1.5,1.5,3.1,2.9,4.9,4.2
				C1106.7,44.8,1108.5,46,1110.2,47.2z"/>
		</g>
		<g>
			<path d="M1188.4,26H1165l-5.4,9.8c4.5,0,8.8,0.7,12.8,2.1s7.5,3.4,10.6,5.9c3,2.5,5.4,5.5,7.2,9c1.8,3.5,2.7,7.2,2.7,11.3
				c0,3.7-0.8,7.2-2.4,10.5c-1.7,3.3-3.9,6.2-6.9,8.6c-2.9,2.4-6.3,4.4-10.3,5.8c-3.9,1.4-8.1,2.1-12.6,2.1c-2,0-3.9-0.2-5.6-0.6
				s-3.1-0.9-4.3-1.6s-2.1-1.4-2.8-2.3c-0.7-0.9-1-1.8-1-2.8c0-1.3,0.5-2.3,1.5-2.9s2.2-0.9,3.5-0.9c1.5,0,2.7,0.3,3.7,0.8
				c1,0.6,2.1,1.2,3.1,1.8c1.1,0.7,2.3,1.3,3.6,1.8c1.3,0.6,3,0.8,5.1,0.8c2.4,0,4.6-0.5,6.7-1.4s3.9-2.2,5.5-3.8
				c1.6-1.6,2.8-3.5,3.7-5.7c0.9-2.2,1.4-4.5,1.4-7c0-3.4-0.8-6.4-2.5-9.1s-4.1-5-7.2-7c-3.1-1.9-6.9-3.4-11.3-4.5
				s-9.3-1.6-14.8-1.6l15.5-28.3h28.5L1188.4,26z"/>
		</g>
		<g>
			<path d="M1254.3,17.3c-4.3,0.4-8.5,1.5-12.4,3.4s-7.5,4.3-10.7,7.2c-3.2,2.9-5.9,6.3-8.1,10s-3.8,7.7-4.8,11.8
				c1.2-0.8,2.4-1.6,3.6-2.3c1.2-0.7,2.6-1.3,4-1.8s2.9-0.9,4.5-1.2c1.6-0.3,3.3-0.5,5.1-0.5c2.9,0,5.6,0.6,8.2,1.7
				c2.5,1.1,4.8,2.7,6.7,4.6c1.9,2,3.4,4.3,4.5,6.9s1.7,5.5,1.7,8.5c0,3.5-0.7,6.9-2.1,10s-3.2,5.8-5.6,8.2
				c-2.3,2.3-5.1,4.2-8.2,5.5c-3.1,1.4-6.4,2-10,2c-3.8,0-7.2-0.8-10.4-2.3c-3.2-1.5-5.9-3.6-8.1-6.2c-2.3-2.6-4-5.7-5.3-9.2
				s-1.9-7.2-1.9-11.2c0-4.2,0.5-8.3,1.6-12.3s2.6-7.7,4.6-11.1c2-3.5,4.4-6.6,7.3-9.5s6.1-5.4,9.8-7.4c3.7-2.1,7.7-3.7,12-4.8
				c4.3-1.1,9-1.7,13.9-1.7v1.7H1254.3z M1218.2,52.8c-0.3,1.6-0.5,3.3-0.6,5c-0.2,1.7-0.2,3.3-0.2,4.9c0,3.3,0.3,6.4,0.9,9.4
				s1.5,5.6,2.8,7.9c1.2,2.3,2.8,4.1,4.7,5.4c1.9,1.4,4.1,2,6.7,2c1.8,0,3.5-0.4,5.1-1.4c1.6-0.9,3-2.1,4.1-3.7
				c1.2-1.5,2.1-3.3,2.8-5.4c0.7-2.1,1-4.3,1-6.7c0-3-0.4-5.9-1.2-8.5c-0.8-2.7-1.9-5-3.3-7s-3-3.5-4.9-4.7
				c-1.9-1.1-3.8-1.7-5.9-1.7c-0.9,0-1.8,0.1-2.9,0.3c-1,0.2-2.1,0.5-3.1,0.9c-1.1,0.4-2.1,0.8-3.1,1.4
				C1219.9,51.6,1219,52.2,1218.2,52.8z"/>
		</g>
		<g>
			<path d="M149.8,144.7h24c7.4,0,13.8,0.7,19.2,2.1c5.3,1.4,9.8,3.6,13.4,6.6c4.1,3.5,7.2,7.5,9.2,12c2.1,4.5,3.1,9.5,3.1,14.8
				c0,5.1-0.9,9.9-2.8,14.3c-1.9,4.5-4.6,8.4-8.1,11.7c-3.5,3.3-7.9,6-13.1,7.9c-5.2,1.9-11.2,2.9-17.9,2.9h-27L149.8,144.7
				L149.8,144.7z M162,211.8h12.9c4.1,0,7.9-0.7,11.5-2c3.6-1.4,6.7-3.3,9.4-6c2.7-2.6,4.8-5.9,6.3-9.8s2.3-8.4,2.3-13.5
				c0-4.4-0.7-8.5-2.2-12.2s-3.5-6.9-6.1-9.6s-5.7-4.8-9.3-6.3s-7.6-2.3-11.9-2.3h-13v61.7H162z"/>
		</g>
		<g>
			<path d="M237.1,132.7c0.9,0,1.7,0.1,2.5,0.4s1.5,0.7,2,1.2c0.6,0.5,1,1.1,1.4,1.8c0.3,0.7,0.5,1.4,0.5,2.2c0,0.8-0.2,1.5-0.5,2.2
				s-0.8,1.3-1.4,1.8c-0.6,0.5-1.2,0.9-2,1.2c-0.8,0.3-1.6,0.4-2.5,0.4s-1.7-0.1-2.4-0.4c-0.8-0.3-1.4-0.7-2-1.2s-1-1.1-1.4-1.8
				c-0.3-0.7-0.5-1.4-0.5-2.2c0-0.8,0.2-1.5,0.5-2.2s0.8-1.3,1.4-1.8c0.6-0.5,1.2-0.9,2-1.2C235.4,132.9,236.2,132.7,237.1,132.7z
				 M231.7,163.3l7.8-3.2h3.2V217h-11V163.3z"/>
		</g>
		<g>
			<path d="M256.2,161.3h11v10.5c1.1-1.6,2.2-3,3.5-4.5c1.2-1.4,2.5-2.7,3.9-3.7c1.4-1.1,2.7-1.9,4.2-2.5c1.4-0.6,2.9-0.9,4.4-0.9
				c1.2,0,2.3,0.2,3.4,0.5c1,0.4,1.9,0.8,2.7,1.5c0.8,0.6,1.4,1.3,1.8,2.1c0.4,0.8,0.7,1.7,0.7,2.6c0,1.8-0.6,3.2-1.7,4.1
				s-2.7,1.4-4.7,1.4c-1.2,0-2.2-0.1-3-0.4c-0.7-0.3-1.4-0.6-2-0.9s-1.2-0.6-1.8-0.9c-0.6-0.3-1.4-0.4-2.3-0.4
				c-0.7,0-1.5,0.2-2.2,0.6s-1.5,1-2.2,1.8s-1.5,1.7-2.3,2.8c-0.8,1.1-1.5,2.2-2.3,3.5v38.6h-11v-55.8H256.2z"/>
		</g>
		<g>
			<path d="M323.6,218.2c-3.8,0-7.3-0.7-10.6-2.1c-3.3-1.4-6.2-3.3-8.7-5.8c-2.5-2.4-4.4-5.3-5.9-8.6c-1.4-3.3-2.2-6.8-2.2-10.5
				c0-4.5,0.7-8.6,2-12.4s3.2-7.1,5.6-9.9s5.3-4.9,8.6-6.5c3.4-1.6,7.1-2.3,11.2-2.3c3.7,0,7,0.6,10.1,1.9c3,1.3,5.7,3,7.8,5.2
				c2.2,2.2,3.9,4.7,5.1,7.5s1.8,5.8,1.8,8.9H307c0,3.7,0.5,7.2,1.5,10.4c1,3.2,2.3,6,4.1,8.3c1.7,2.3,3.8,4.1,6.2,5.5
				c2.4,1.3,5.1,2,7.9,2c2.4,0,4.7-0.4,7-1.2c2.2-0.8,4.2-1.8,6-3.1s3.3-2.7,4.6-4.4c1.3-1.6,2.2-3.3,2.7-5.1l3.2,1.4
				c-0.8,2.9-2.1,5.6-3.9,8.1s-3.9,4.7-6.2,6.6c-2.4,1.9-5,3.3-7.8,4.4C329.3,217.7,326.5,218.2,323.6,218.2z M334.7,179.2
				c0-2.1-0.4-4.1-1.1-5.9s-1.8-3.4-3.1-4.7c-1.3-1.3-2.8-2.4-4.6-3.1c-1.7-0.8-3.6-1.1-5.6-1.1c-1.7,0-3.3,0.4-4.8,1.1
				c-1.5,0.8-2.9,1.8-4.1,3.1c-1.2,1.3-2.2,2.9-3,4.7c-0.8,1.8-1.3,3.8-1.4,5.9H334.7z"/>
		</g>
		<g>
			<path d="M384.1,218.2c-3.6,0-7.1-0.7-10.3-2.2c-3.2-1.4-6-3.4-8.4-5.9s-4.2-5.4-5.6-8.8c-1.4-3.4-2.1-6.9-2.1-10.8
				c0-4.2,0.8-8.2,2.3-11.9c1.5-3.7,3.6-6.9,6.2-9.7c2.6-2.8,5.7-5,9.2-6.5c3.5-1.6,7.3-2.4,11.3-2.4c3.1,0,6,0.3,8.6,1
				s4.9,1.6,6.8,2.8c1.9,1.2,3.4,2.6,4.5,4.2s1.6,3.4,1.6,5.2c0,0.8-0.2,1.6-0.6,2.4c-0.4,0.7-1,1.4-1.7,1.9c-0.7,0.6-1.5,1-2.4,1.3
				s-1.8,0.5-2.7,0.5c-1,0-1.9-0.2-2.7-0.5c-0.8-0.4-1.5-0.8-2.1-1.4s-1-1.2-1.3-1.9c-0.3-0.7-0.4-1.5-0.4-2.2
				c0-1.3-0.1-2.5-0.4-3.6s-0.8-2.1-1.5-2.9s-1.6-1.5-2.9-1.9c-1.2-0.5-2.8-0.7-4.6-0.7c-2.5,0-4.8,0.5-6.8,1.5s-3.7,2.4-5.1,4.1
				s-2.4,3.8-3.2,6.1s-1.1,4.8-1.1,7.5c0,3.6,0.5,6.9,1.4,10.1s2.3,6,3.9,8.4c1.7,2.4,3.7,4.3,6.1,5.7c2.4,1.4,5.1,2.1,8,2.1
				c2.6,0,4.8-0.4,6.8-1.2c1.9-0.8,3.6-1.9,5-3.3c1.4-1.4,2.6-3,3.6-4.8s1.9-3.8,2.7-5.8l3.3,1.4c-0.9,3.5-2.2,6.6-3.8,9.4
				c-1.6,2.8-3.5,5.1-5.6,7c-2.2,1.9-4.6,3.4-7.3,4.4C390.3,217.7,387.3,218.2,384.1,218.2z"/>
		</g>
		<g>
			<path d="M443.8,218.2c-3.6,0-7.1-0.7-10.3-2.2c-3.2-1.4-6-3.4-8.4-5.9s-4.2-5.4-5.6-8.8c-1.4-3.4-2.1-6.9-2.1-10.8
				c0-4.2,0.8-8.2,2.3-11.9c1.5-3.7,3.6-6.9,6.2-9.7c2.6-2.8,5.7-5,9.2-6.5c3.5-1.6,7.3-2.4,11.3-2.4c3.1,0,6,0.3,8.6,1
				s4.9,1.6,6.8,2.8c1.9,1.2,3.4,2.6,4.5,4.2s1.6,3.4,1.6,5.2c0,0.8-0.2,1.6-0.6,2.4c-0.4,0.7-1,1.4-1.7,1.9c-0.7,0.6-1.5,1-2.4,1.3
				s-1.8,0.5-2.7,0.5c-1,0-1.9-0.2-2.7-0.5c-0.8-0.4-1.5-0.8-2.1-1.4s-1-1.2-1.3-1.9c-0.3-0.7-0.4-1.5-0.4-2.2
				c0-1.3-0.1-2.5-0.4-3.6s-0.8-2.1-1.5-2.9s-1.6-1.5-2.9-1.9c-1.2-0.5-2.8-0.7-4.6-0.7c-2.5,0-4.8,0.5-6.8,1.5s-3.7,2.4-5.1,4.1
				s-2.4,3.8-3.2,6.1s-1.1,4.8-1.1,7.5c0,3.6,0.5,6.9,1.4,10.1s2.3,6,3.9,8.4c1.7,2.4,3.7,4.3,6.1,5.7c2.4,1.4,5.1,2.1,8,2.1
				c2.6,0,4.8-0.4,6.8-1.2c1.9-0.8,3.6-1.9,5-3.3c1.4-1.4,2.6-3,3.6-4.8s1.9-3.8,2.7-5.8l3.3,1.4c-0.9,3.5-2.2,6.6-3.8,9.4
				c-1.6,2.8-3.5,5.1-5.6,7c-2.2,1.9-4.6,3.4-7.3,4.4C449.9,217.7,447,218.2,443.8,218.2z"/>
		</g>
		<g>
			<path d="M485.7,132.7c0.9,0,1.7,0.1,2.5,0.4s1.5,0.7,2,1.2c0.6,0.5,1,1.1,1.4,1.8c0.3,0.7,0.5,1.4,0.5,2.2c0,0.8-0.2,1.5-0.5,2.2
				s-0.8,1.3-1.4,1.8s-1.2,0.9-2,1.2c-0.8,0.3-1.6,0.4-2.5,0.4s-1.7-0.1-2.4-0.4c-0.8-0.3-1.4-0.7-2-1.2s-1-1.1-1.4-1.8
				c-0.3-0.7-0.5-1.4-0.5-2.2c0-0.8,0.2-1.5,0.5-2.2s0.8-1.3,1.4-1.8s1.2-0.9,2-1.2C484,132.9,484.8,132.7,485.7,132.7z
				 M480.3,163.3l7.8-3.2h3.2V217h-11V163.3z"/>
		</g>
		<g>
			<path d="M532,218.2c-4.3,0-8.2-0.7-11.8-2.2s-6.7-3.5-9.3-6.1c-2.6-2.6-4.7-5.6-6.1-9c-1.5-3.4-2.2-7.1-2.2-11
				c0-4.1,0.7-8,2.2-11.6s3.5-6.8,6.1-9.5c2.6-2.7,5.7-4.8,9.3-6.4s7.6-2.3,11.8-2.3c4.3,0,8.2,0.7,11.8,2.1s6.7,3.4,9.3,5.8
				c2.6,2.5,4.7,5.4,6.2,8.7c1.5,3.3,2.2,6.9,2.2,10.7c0,4.2-0.7,8.2-2.2,11.9c-1.5,3.7-3.5,7-6.2,9.8c-2.6,2.8-5.7,5-9.3,6.6
				C540.2,217.4,536.2,218.2,532,218.2z M534.1,214.1c2.2,0,4.2-0.6,6-1.7c1.8-1.1,3.4-2.6,4.7-4.5s2.4-4.1,3.1-6.6
				c0.7-2.5,1.1-5.2,1.1-8c0-4.1-0.3-7.8-1-11.3s-1.8-6.6-3.4-9.2c-1.6-2.6-3.6-4.7-6.1-6.2s-5.6-2.3-9.2-2.3
				c-1.9,0-3.7,0.5-5.4,1.6s-3.3,2.5-4.6,4.4s-2.4,4.1-3.2,6.5c-0.8,2.5-1.2,5.1-1.2,7.9c0,4.1,0.4,7.9,1.3,11.4
				c0.9,3.6,2.1,6.7,3.7,9.3c1.6,2.6,3.6,4.7,6,6.3C528.3,213.4,531,214.1,534.1,214.1z"/>
		</g>
		<g>
			<path d="M572.1,161.3h11.1v10.2c3.4-3.8,6.9-6.6,10.5-8.5s7.3-2.8,11.1-2.8c1.9,0,3.8,0.4,5.5,1.3s3.2,2.1,4.5,3.6s2.3,3.3,3,5.4
				s1.1,4.3,1.1,6.6v40h-11.1v-38.2c0-3.7-0.8-6.5-2.5-8.4s-3.8-2.9-6.4-2.9c-1.2,0-2.4,0.2-3.7,0.6s-2.6,0.9-4,1.6
				s-2.7,1.6-4.1,2.5c-1.4,1-2.6,2.1-3.9,3.3v41.3h-11.1L572.1,161.3L572.1,161.3z"/>
		</g>
		<g>
			<path d="M637,167.1c0.8,0,1.6,0.2,2.3,0.5s1.3,0.7,1.9,1.2c0.5,0.5,1,1.1,1.3,1.8c0.3,0.7,0.5,1.4,0.5,2.2c0,0.8-0.2,1.5-0.5,2.3
				c-0.3,0.7-0.7,1.3-1.3,1.8c-0.5,0.5-1.2,0.9-1.9,1.2c-0.7,0.3-1.5,0.4-2.3,0.4s-1.6-0.1-2.3-0.4s-1.4-0.7-1.9-1.2s-1-1.1-1.3-1.8
				c-0.3-0.7-0.5-1.5-0.5-2.3s0.2-1.5,0.5-2.2s0.7-1.3,1.3-1.8c0.5-0.5,1.2-0.9,1.9-1.2S636.2,167.1,637,167.1z M637,207.3
				c0.8,0,1.6,0.1,2.3,0.4c0.7,0.3,1.3,0.7,1.9,1.2c0.5,0.5,1,1.1,1.3,1.8s0.5,1.4,0.5,2.2s-0.2,1.5-0.5,2.3
				c-0.3,0.7-0.7,1.3-1.3,1.8c-0.5,0.5-1.2,0.9-1.9,1.2s-1.5,0.4-2.3,0.4s-1.6-0.1-2.3-0.4c-0.7-0.3-1.4-0.7-1.9-1.2s-1-1.1-1.3-1.8
				s-0.5-1.5-0.5-2.3s0.2-1.5,0.5-2.2s0.7-1.3,1.3-1.8c0.5-0.5,1.2-0.9,1.9-1.2S636.2,207.3,637,207.3z"/>
		</g>
		<g>
			<path d="M700.2,181.1c0,5.1,0.8,9.6,2.3,13.7c1.5,4,3.6,7.4,6.3,10.2s5.8,4.9,9.5,6.4s7.6,2.2,11.9,2.2c2.5,0,5-0.5,7.3-1.5
				c2.4-1,4.5-2.3,6.6-3.8c2-1.6,3.8-3.4,5.4-5.3c1.6-2,2.9-4,3.9-6.1l5.1,3.3c-1.5,2.4-3.2,4.8-5.3,7c-2,2.3-4.4,4.2-7,5.9
				c-2.7,1.7-5.7,3.1-9,4.1c-3.4,1-7.1,1.6-11.3,1.6c-4,0-7.7-0.5-11.3-1.4s-6.8-2.2-9.7-3.8c-3-1.6-5.6-3.6-7.9-5.9
				c-2.3-2.3-4.3-4.9-5.9-7.7c-1.6-2.8-2.8-5.8-3.7-9s-1.3-6.5-1.3-9.9s0.4-6.7,1.3-9.9c0.9-3.2,2.1-6.2,3.8-9
				c1.6-2.8,3.7-5.4,6.1-7.8c2.4-2.4,5.1-4.4,8.1-6.1s6.3-3,9.8-3.9c3.6-0.9,7.4-1.4,11.4-1.4c3.8,0,7.4,0.5,10.6,1.6
				c3.2,1,6.2,2.4,8.9,4.1s5.1,3.7,7.1,5.9c2.1,2.3,3.9,4.6,5.3,7l-5.2,3.5c-3-5.9-6.4-10.1-10.2-12.9c-3.7-2.7-8-4.1-12.9-4.1
				c-4.2,0-8.1,0.8-11.7,2.3c-3.6,1.5-6.8,3.7-9.5,6.5s-4.8,6.3-6.4,10.3S700.2,176,700.2,181.1z"/>
		</g>
		<g>
			<path d="M812,217h-11.1v-7.6c-1.3,1-2.6,2-3.9,3.1c-1.3,1-2.6,2-4.1,2.9s-3.1,1.6-4.9,2.1c-1.8,0.5-3.9,0.8-6.2,0.8
				c-2.2,0-4.2-0.4-5.9-1.1c-1.8-0.7-3.3-1.7-4.5-2.9s-2.2-2.7-2.9-4.4s-1-3.5-1-5.5c0-2.4,0.5-4.5,1.4-6.5c1-1.9,2.3-3.6,3.9-5.2
				c1.6-1.5,3.6-2.9,5.8-4.1s4.5-2.2,7-3.2c2.5-0.9,5-1.8,7.6-2.5s5.2-1.4,7.7-2v-3.5c0-2.5-0.3-4.7-0.8-6.4
				c-0.5-1.7-1.2-3.2-2.2-4.2c-0.9-1.1-2.1-1.8-3.4-2.3c-1.3-0.5-2.8-0.7-4.5-0.7c-1.9,0-3.4,0.2-4.6,0.7c-1.2,0.5-2.1,1.1-2.8,1.9
				s-1.1,1.7-1.4,2.7c-0.2,1-0.4,2.1-0.4,3.1s-0.1,1.9-0.2,2.8c-0.2,0.9-0.4,1.7-0.9,2.4c-0.4,0.7-1,1.2-1.7,1.6s-1.6,0.6-2.7,0.6
				c-0.9,0-1.7-0.2-2.4-0.5s-1.3-0.8-1.8-1.4s-0.9-1.3-1.2-2.1c-0.3-0.8-0.4-1.7-0.4-2.6c0-1.8,0.6-3.5,1.8-5.1s2.8-3,4.9-4.1
				c2-1.2,4.4-2.1,7.2-2.8c2.7-0.7,5.6-1,8.6-1c3.7,0,6.8,0.4,9.3,1.1s4.6,1.7,6.1,3c1.6,1.3,2.7,2.8,3.4,4.7c0.7,1.8,1,3.9,1,6.1
				V217H812z M800.9,184.5c-1.6,0.5-3.2,1.1-5,1.8c-1.7,0.7-3.4,1.4-5,2.2c-1.6,0.8-3.2,1.7-4.7,2.6c-1.5,1-2.8,2-3.9,3
				c-1.1,1.1-2,2.2-2.7,3.4c-0.7,1.2-1,2.5-1,3.8c0,1.4,0.3,2.6,0.8,3.9c0.5,1.2,1.2,2.3,2,3.2s1.8,1.6,2.9,2.2
				c1.1,0.5,2.2,0.8,3.4,0.8s2.4-0.2,3.6-0.5c1.1-0.3,2.2-0.8,3.3-1.3c1.1-0.6,2.1-1.2,3.2-1.9c1.1-0.7,2.1-1.5,3.2-2.4L800.9,184.5
				L800.9,184.5z"/>
		</g>
		<g>
			<path d="M838.4,217h-11.1v-81.2l7.9-3.2h3.2L838.4,217L838.4,217z"/>
		</g>
		<g>
			<path d="M863.5,217h-11.1v-81.2l7.9-3.2h3.2L863.5,217L863.5,217z"/>
		</g>
		<g>
			<path d="M901.7,218.2c-3.8,0-7.3-0.7-10.6-2.1c-3.3-1.4-6.2-3.3-8.7-5.8c-2.5-2.4-4.4-5.3-5.9-8.6c-1.4-3.3-2.2-6.8-2.2-10.5
				c0-4.5,0.7-8.6,2-12.4s3.2-7.1,5.6-9.9c2.4-2.8,5.3-4.9,8.6-6.5c3.4-1.6,7.1-2.3,11.2-2.3c3.7,0,7,0.6,10.1,1.9
				c3,1.3,5.7,3,7.8,5.2c2.2,2.2,3.9,4.7,5.1,7.5c1.2,2.8,1.8,5.8,1.8,8.9h-41.6c0,3.7,0.5,7.2,1.5,10.4c1,3.2,2.3,6,4.1,8.3
				c1.7,2.3,3.8,4.1,6.2,5.5c2.4,1.3,5.1,2,7.9,2c2.4,0,4.7-0.4,7-1.2c2.2-0.8,4.2-1.8,6-3.1s3.3-2.7,4.6-4.4
				c1.3-1.6,2.2-3.3,2.7-5.1l3.2,1.4c-0.8,2.9-2.1,5.6-3.9,8.1c-1.8,2.5-3.9,4.7-6.2,6.6c-2.4,1.9-5,3.3-7.8,4.4
				C907.5,217.7,904.6,218.2,901.7,218.2z M912.8,179.2c0-2.1-0.4-4.1-1.1-5.9c-0.7-1.8-1.8-3.4-3.1-4.7c-1.3-1.3-2.8-2.4-4.6-3.1
				c-1.7-0.8-3.6-1.1-5.6-1.1c-1.7,0-3.3,0.4-4.8,1.1c-1.5,0.8-2.9,1.8-4.1,3.1c-1.2,1.3-2.2,2.9-3,4.7c-0.8,1.8-1.3,3.8-1.4,5.9
				H912.8z"/>
		</g>
		<g>
			<path d="M1018.3,146.6l-26.4,72.1h-7l23.8-65.1h-38.1l4.1-8.9h43.6L1018.3,146.6L1018.3,146.6z"/>
		</g>
		<g>
			<path d="M1055.1,218.8c-4,0-7.7-0.9-10.9-2.8c-3.3-1.9-6.1-4.5-8.4-7.9s-4.1-7.4-5.4-12.1s-1.9-9.8-1.9-15.4
				c0-5.1,0.6-10,1.9-14.5s3.1-8.5,5.4-11.9s5.1-6.1,8.4-8c3.3-2,6.9-3,10.9-3s7.7,1,10.9,3c3.3,2,6.1,4.7,8.4,8s4.1,7.4,5.4,11.9
				s1.9,9.4,1.9,14.5c0,5.6-0.6,10.8-1.9,15.4c-1.3,4.7-3.1,8.7-5.4,12.1s-5.1,6-8.4,7.9C1062.8,217.8,1059.2,218.8,1055.1,218.8z
				 M1055.1,215.1c1.6,0,3.1-0.4,4.5-1.3c1.4-0.9,2.6-2.1,3.7-3.6c1.1-1.6,2-3.4,2.8-5.6c0.8-2.1,1.5-4.5,2-7.1s0.9-5.3,1.2-8.2
				s0.4-5.9,0.4-8.9c0-4.6-0.3-8.9-0.9-13s-1.5-7.7-2.7-10.8c-1.2-3.1-2.7-5.5-4.5-7.3s-4-2.7-6.4-2.7c-2.5,0-4.6,0.9-6.4,2.7
				c-1.8,1.8-3.3,4.3-4.5,7.3c-1.2,3.1-2.1,6.7-2.7,10.8c-0.6,4.1-0.9,8.4-0.9,13c0,3,0.1,6,0.4,8.9s0.7,5.6,1.2,8.2s1.2,4.9,2,7.1
				c0.8,2.1,1.7,4,2.8,5.6c1.1,1.6,2.3,2.8,3.6,3.6C1052,214.7,1053.5,215.1,1055.1,215.1z"/>
		</g>
		<g>
			<path d="M1101.2,170.1l5.4-25.3h5.6l-5.5,25.3h18.1l5.5-25.3h5.4l-5.3,25.3h9.5v4.1h-10.3l-3.8,18h14.1v4.1h-15l-5.1,23.6h-5.5
				l5.1-23.6h-18.1l-5.1,23.6h-5.5l5.2-23.5h-9.5v-4.2h10.2l3.8-18h-14v-4.1H1101.2z M1102,192.1h18.1l3.8-18h-18.1L1102,192.1z"/>
		</g>
		<g>
			<path d="M1178,216.8c4.1-0.4,8-1.5,11.9-3.3c3.8-1.8,7.4-4.1,10.5-6.9c3.2-2.8,5.9-6.1,8.2-9.7c2.3-3.7,3.9-7.5,4.8-11.6
				c-1.2,0.7-2.4,1.4-3.6,2.1s-2.5,1.2-3.8,1.7c-1.4,0.5-2.8,0.9-4.3,1.2c-1.5,0.3-3.2,0.4-5,0.4c-3.2,0-6-0.6-8.5-1.9
				s-4.7-2.9-6.4-5c-1.8-2.1-3.1-4.5-4.1-7.2s-1.4-5.5-1.4-8.4c0-3.5,0.7-6.7,2-9.8c1.3-3.1,3.2-5.7,5.5-8s5-4.1,8.2-5.4
				c3.1-1.3,6.4-2,10-2c3.5,0,6.9,0.8,10,2.3s5.8,3.6,8.2,6.2s4.2,5.7,5.6,9.2s2.1,7.3,2.1,11.2c0,4.3-0.6,8.4-1.8,12.4
				c-1.2,4-2.8,7.7-5,11.2s-4.8,6.6-7.8,9.5s-6.4,5.3-10,7.3c-3.7,2-7.6,3.6-11.8,4.8c-4.2,1.1-8.6,1.7-13.1,1.7v-2H1178z
				 M1214.4,181.2c0.2-1.6,0.5-3.3,0.6-5.2c0.2-1.9,0.3-3.8,0.3-5.7c0-3.2-0.4-6.3-1.2-9.1c-0.8-2.9-1.9-5.4-3.3-7.6s-3-3.9-4.9-5.1
				c-1.9-1.3-3.9-1.9-6-1.9c-2.2,0-4.1,0.5-5.7,1.5s-2.9,2.3-3.9,3.9s-1.8,3.4-2.3,5.5c-0.5,2-0.7,4.1-0.7,6.2
				c0,3.2,0.3,6.2,0.9,8.9c0.6,2.7,1.5,5,2.7,7s2.8,3.5,4.6,4.6c1.9,1.1,4.1,1.6,6.7,1.6c1,0,2.1-0.1,3.2-0.4c1.1-0.2,2.2-0.6,3.3-1
				c1.1-0.4,2.2-0.9,3.1-1.5C1212.9,182.4,1213.7,181.8,1214.4,181.2z"/>
		</g>
		<g>
			<path d="M1262,187.8v6.4h-26.6v-6.4H1262z"/>
		</g>
		<g>
			<path d="M1319,144.9c-4.3,0.4-8.5,1.5-12.4,3.4s-7.5,4.3-10.7,7.2c-3.2,2.9-5.9,6.3-8.1,10s-3.8,7.7-4.8,11.8
				c1.2-0.8,2.4-1.6,3.6-2.3c1.2-0.7,2.6-1.3,4-1.8s2.9-0.9,4.5-1.2c1.6-0.3,3.3-0.5,5.1-0.5c2.9,0,5.6,0.6,8.2,1.7
				c2.5,1.1,4.8,2.7,6.7,4.6c1.9,2,3.4,4.3,4.5,6.9s1.7,5.5,1.7,8.5c0,3.5-0.7,6.9-2.1,10s-3.2,5.8-5.6,8.2
				c-2.3,2.3-5.1,4.2-8.2,5.5c-3.1,1.4-6.4,2-10,2c-3.8,0-7.2-0.8-10.4-2.3c-3.2-1.5-5.9-3.6-8.1-6.2c-2.3-2.6-4-5.7-5.3-9.2
				s-1.9-7.2-1.9-11.2c0-4.2,0.5-8.3,1.6-12.3s2.6-7.7,4.6-11.1c2-3.5,4.4-6.6,7.3-9.5s6.1-5.4,9.8-7.4c3.7-2.1,7.7-3.7,12-4.8
				c4.3-1.1,9-1.7,13.9-1.7v1.7H1319z M1282.9,180.4c-0.3,1.6-0.5,3.3-0.6,5c-0.2,1.7-0.2,3.3-0.2,4.9c0,3.3,0.3,6.4,0.9,9.4
				s1.5,5.6,2.8,7.9c1.2,2.3,2.8,4.1,4.7,5.4c1.9,1.4,4.1,2,6.7,2c1.8,0,3.5-0.4,5.1-1.4c1.6-0.9,3-2.1,4.1-3.7
				c1.2-1.5,2.1-3.3,2.8-5.4c0.7-2.1,1-4.3,1-6.7c0-3-0.4-5.9-1.2-8.5c-0.8-2.7-1.9-5-3.3-7s-3-3.5-4.9-4.7
				c-1.9-1.1-3.8-1.7-5.9-1.7c-0.9,0-1.8,0.1-2.9,0.3c-1,0.2-2.1,0.5-3.1,0.9c-1.1,0.4-2.1,0.8-3.1,1.4
				C1284.6,179.2,1283.7,179.8,1282.9,180.4z"/>
		</g>
		<g>
			<path d="M1345.2,179.4c2.7-0.3,5.2-0.9,7.5-1.9c2.3-0.9,4.2-2.1,5.9-3.6c1.6-1.5,2.9-3.2,3.8-5.2s1.4-4.2,1.4-6.5
				c0-1.6-0.3-3.1-0.9-4.5s-1.5-2.6-2.6-3.7s-2.5-1.9-4.1-2.4c-1.6-0.6-3.4-0.9-5.3-0.9c-1.4,0-2.8,0.2-4.3,0.7s-2.9,1.1-4.3,1.9
				s-2.6,1.8-3.8,2.9c-1.2,1.1-2.1,2.3-2.8,3.5l-2.1-0.8c0.8-2.2,1.8-4.2,3.1-6.2c1.3-1.9,2.8-3.6,4.6-5c1.8-1.4,3.9-2.6,6.2-3.4
				c2.3-0.8,4.9-1.2,7.7-1.2c2.6,0,5.1,0.4,7.4,1.2c2.3,0.8,4.3,1.9,6,3.2c1.7,1.4,3.1,3,4.1,4.9s1.5,3.9,1.5,6.1
				c0,1.1-0.3,2.4-0.9,3.7c-0.6,1.4-1.4,2.8-2.4,4.2c-1,1.4-2.2,2.8-3.5,4.2c-1.3,1.4-2.7,2.6-4.2,3.6c2.1,0.6,4,1.6,5.8,2.9
				s3.4,2.8,4.8,4.6c1.4,1.7,2.4,3.6,3.2,5.6c0.8,2,1.2,4,1.2,6c0,4.3-0.8,8-2.5,11.2c-1.7,3.2-4,5.8-6.9,8
				c-2.9,2.1-6.4,3.7-10.4,4.8s-8.3,1.6-13,1.6c-2,0-3.7-0.1-5.3-0.4c-1.6-0.3-2.9-0.7-4-1.2s-1.9-1.1-2.5-1.9
				c-0.6-0.7-0.9-1.5-0.9-2.4c0-0.8,0.2-1.4,0.6-1.9s0.9-0.9,1.5-1.2s1.2-0.5,1.9-0.7c0.7-0.1,1.4-0.2,2-0.2c1.3,0,2.4,0.1,3.3,0.4
				c0.9,0.3,1.8,0.6,2.5,1s1.4,0.8,2,1.2s1.3,0.8,2,1.2s1.5,0.7,2.3,1s1.9,0.4,3,0.4c2.5,0,4.8-0.4,6.7-1.2c1.9-0.8,3.5-1.9,4.9-3.3
				c1.3-1.4,2.3-3,3-4.8s1-3.7,1-5.7c0-2.5-0.5-4.8-1.4-7c-1-2.1-2.4-4-4.4-5.6s-4.5-2.8-7.5-3.7s-6.6-1.3-10.6-1.3v-2.2H1345.2z"/>
		</g>
		<g>
			<path d="M149.8,272.3h12.4l28.1,55.5h0.6l27.6-55.5h12.2v72.4h-12.2v-59.3h-0.4l-29.6,59.3H186l-30-58.8h-0.8v58.8h-5.3
				L149.8,272.3L149.8,272.3z"/>
		</g>
		<g>
			<path d="M287.4,344.7h-11.1v-7.6c-1.3,1-2.6,2-3.9,3.1c-1.3,1-2.6,2-4.1,2.9s-3.1,1.6-4.9,2.1s-3.9,0.8-6.2,0.8
				c-2.2,0-4.2-0.4-5.9-1.1c-1.8-0.7-3.3-1.7-4.5-2.9s-2.2-2.7-2.9-4.4s-1-3.5-1-5.5c0-2.4,0.5-4.5,1.4-6.5c1-1.9,2.3-3.6,3.9-5.2
				c1.6-1.5,3.6-2.9,5.8-4.1c2.2-1.2,4.5-2.2,7-3.2c2.5-0.9,5-1.8,7.6-2.5s5.2-1.4,7.7-2v-3.5c0-2.5-0.3-4.7-0.8-6.4
				s-1.2-3.2-2.2-4.2c-0.9-1.1-2.1-1.8-3.4-2.3s-2.8-0.7-4.5-0.7c-1.9,0-3.4,0.2-4.6,0.7s-2.1,1.1-2.8,1.9c-0.7,0.8-1.1,1.7-1.4,2.7
				c-0.2,1-0.4,2.1-0.4,3.1s-0.1,1.9-0.2,2.8c-0.2,0.9-0.4,1.7-0.9,2.4c-0.4,0.7-1,1.2-1.7,1.6c-0.7,0.4-1.6,0.6-2.7,0.6
				c-0.9,0-1.7-0.2-2.4-0.5s-1.3-0.8-1.8-1.4c-0.5-0.6-0.9-1.3-1.2-2.1s-0.4-1.7-0.4-2.6c0-1.8,0.6-3.5,1.8-5.1s2.8-3,4.9-4.1
				c2-1.2,4.4-2.1,7.2-2.8c2.7-0.7,5.6-1,8.6-1c3.7,0,6.8,0.4,9.3,1.1c2.5,0.7,4.6,1.7,6.1,3c1.6,1.3,2.7,2.8,3.4,4.7
				c0.7,1.8,1,3.9,1,6.1v42.1H287.4z M276.3,312.2c-1.6,0.5-3.2,1.1-5,1.8c-1.7,0.7-3.4,1.4-5,2.2s-3.2,1.7-4.7,2.6
				c-1.5,1-2.8,2-3.9,3c-1.1,1.1-2,2.2-2.7,3.4s-1,2.5-1,3.8c0,1.4,0.3,2.6,0.8,3.9c0.5,1.2,1.2,2.3,2,3.2c0.8,0.9,1.8,1.6,2.9,2.2
				c1.1,0.5,2.2,0.8,3.4,0.8c1.2,0,2.4-0.2,3.6-0.5c1.1-0.3,2.2-0.8,3.3-1.3c1.1-0.6,2.1-1.2,3.2-1.9s2.1-1.5,3.2-2.4v-20.8H276.3z"
				/>
		</g>
		<g>
			<path d="M308.1,260.3c0.9,0,1.7,0.1,2.5,0.4c0.8,0.3,1.5,0.7,2,1.2c0.6,0.5,1,1.1,1.4,1.8c0.3,0.7,0.5,1.4,0.5,2.2
				s-0.2,1.5-0.5,2.2s-0.8,1.3-1.4,1.8s-1.2,0.9-2,1.2s-1.6,0.4-2.5,0.4s-1.7-0.1-2.4-0.4c-0.8-0.3-1.4-0.7-2-1.2s-1-1.1-1.4-1.8
				c-0.3-0.7-0.5-1.4-0.5-2.2s0.2-1.5,0.5-2.2s0.8-1.3,1.4-1.8s1.2-0.9,2-1.2C306.5,260.5,307.3,260.3,308.1,260.3z M302.7,290.9
				l7.8-3.2h3.2v57h-11V290.9z"/>
		</g>
		<g>
			<path d="M338.8,344.7h-11.1v-81.2l7.9-3.2h3.2V344.7z"/>
		</g>
		<g>
			<path d="M357.8,294.8c0.8,0,1.6,0.2,2.3,0.5c0.7,0.3,1.3,0.7,1.9,1.2c0.5,0.5,1,1.1,1.3,1.8s0.5,1.4,0.5,2.2s-0.2,1.5-0.5,2.3
				c-0.3,0.7-0.7,1.3-1.3,1.8c-0.5,0.5-1.2,0.9-1.9,1.2c-0.7,0.3-1.5,0.4-2.3,0.4s-1.6-0.1-2.3-0.4c-0.7-0.3-1.4-0.7-1.9-1.2
				s-1-1.1-1.3-1.8s-0.5-1.5-0.5-2.3s0.2-1.5,0.5-2.2s0.7-1.3,1.3-1.8c0.5-0.5,1.2-0.9,1.9-1.2S357,294.8,357.8,294.8z M357.8,334.9
				c0.8,0,1.6,0.1,2.3,0.4c0.7,0.3,1.3,0.7,1.9,1.2c0.5,0.5,1,1.1,1.3,1.8s0.5,1.4,0.5,2.2s-0.2,1.5-0.5,2.3
				c-0.3,0.7-0.7,1.3-1.3,1.8c-0.5,0.5-1.2,0.9-1.9,1.2c-0.7,0.3-1.5,0.4-2.3,0.4s-1.6-0.1-2.3-0.4c-0.7-0.3-1.4-0.7-1.9-1.2
				s-1-1.1-1.3-1.8s-0.5-1.5-0.5-2.3s0.2-1.5,0.5-2.2s0.7-1.3,1.3-1.8c0.5-0.5,1.2-0.9,1.9-1.2C356.2,335.1,357,334.9,357.8,334.9z"
				/>
		</g>
		<g>
			<path d="M434.5,345.9c-4.3,0-8.2-0.7-11.8-2.2c-3.6-1.5-6.7-3.5-9.3-6.1c-2.6-2.6-4.7-5.6-6.1-9c-1.5-3.4-2.2-7.1-2.2-11
				c0-4.1,0.7-8,2.2-11.6s3.5-6.8,6.1-9.5s5.7-4.8,9.3-6.4c3.6-1.6,7.6-2.3,11.8-2.3c4.3,0,8.2,0.7,11.8,2.1
				c3.6,1.4,6.7,3.4,9.3,5.8c2.6,2.5,4.7,5.4,6.2,8.7s2.2,6.9,2.2,10.7c0,4.2-0.7,8.2-2.2,11.9s-3.5,7-6.2,9.8
				c-2.6,2.8-5.7,5-9.3,6.6S438.8,345.9,434.5,345.9z M436.6,341.8c2.2,0,4.2-0.6,6-1.7c1.8-1.1,3.4-2.6,4.7-4.5
				c1.3-1.9,2.4-4.1,3.1-6.6s1.1-5.2,1.1-8c0-4.1-0.3-7.8-1-11.3s-1.8-6.6-3.4-9.2c-1.6-2.6-3.6-4.7-6.1-6.2s-5.6-2.3-9.2-2.3
				c-1.9,0-3.7,0.5-5.4,1.6c-1.7,1.1-3.3,2.5-4.6,4.4c-1.3,1.9-2.4,4.1-3.2,6.5c-0.8,2.5-1.2,5.1-1.2,7.9c0,4.1,0.4,7.9,1.3,11.4
				c0.9,3.6,2.1,6.7,3.7,9.3s3.6,4.7,6,6.3C430.9,341,433.6,341.8,436.6,341.8z"/>
		</g>
		<g>
			<path d="M486.2,344.7h-11.1v-81.2l7.9-3.2h3.2V344.7z"/>
		</g>
		<g>
			<path d="M555,291.8v4.6h-10.6c1.1,1.5,2,3.2,2.6,5.1c0.7,1.9,1,3.8,1,5.6c0,2.9-0.6,5.5-1.9,7.9c-1.3,2.4-3.1,4.4-5.3,6.1
				c-2.3,1.7-5,3-8.2,4c-3.2,0.9-6.7,1.4-10.5,1.4c-1.4,0-2.8-0.1-4.3-0.4c-1.5-0.2-2.7-0.5-3.8-0.9c-1.1,0.9-2,1.9-2.7,3
				s-1.1,2.3-1.1,3.5c0,1.1,0.6,2,1.8,2.7s3,1.1,5.2,1.1l20.7,0.9c3.3,0.1,6,0.5,8.2,1.2c2.2,0.6,4,1.5,5.3,2.5
				c1.3,1.1,2.2,2.3,2.8,3.8c0.5,1.5,0.8,3.1,0.8,4.9c0,3.3-0.8,6.2-2.3,8.8s-3.7,4.9-6.5,6.7c-2.9,1.9-6.3,3.3-10.4,4.3
				c-4.1,1-8.7,1.5-13.9,1.5c-9.2,0-16.1-1-20.6-3.1c-4.6-2.1-6.8-4.8-6.8-8.3c0-1.5,0.4-3,1.1-4.4c0.8-1.4,1.7-2.8,2.9-4.1
				s2.5-2.5,4-3.7s2.9-2.3,4.3-3.5c-1-0.3-2-0.7-2.9-1.1c-0.9-0.4-1.6-1-2.3-1.5c-0.6-0.6-1.2-1.2-1.5-1.9c-0.4-0.7-0.6-1.4-0.6-2.2
				c0-1.1,0.3-2.3,0.9-3.5s1.4-2.3,2.4-3.5c1-1.1,2.2-2.1,3.6-3s2.8-1.7,4.4-2.3c-3.8-1.6-6.7-3.8-8.8-6.7c-2.1-2.9-3.2-6.1-3.2-9.8
				c0-2.7,0.6-5.3,1.9-7.8c1.3-2.4,3-4.6,5.2-6.4c2.2-1.8,4.8-3.3,7.8-4.3c3-1.1,6.2-1.6,9.6-1.6c1.7,0,3.3,0.1,4.9,0.3
				c1.6,0.2,3.1,0.5,4.5,0.9s2.6,0.8,3.7,1.3c1.1,0.5,1.9,1,2.5,1.6H555V291.8z M510.3,344.2c-0.8,0.6-1.6,1.3-2.2,2.1
				s-1.2,1.6-1.6,2.4c-0.4,0.8-0.8,1.7-1,2.5s-0.3,1.7-0.3,2.4c0,1.2,0.4,2.4,1.3,3.6c0.9,1.1,2.2,2.1,3.9,3
				c1.7,0.9,3.9,1.6,6.6,2.1c2.6,0.5,5.7,0.8,9.2,0.8c3.7,0,7-0.3,10-0.9c2.9-0.6,5.4-1.4,7.5-2.3c2-1,3.6-2.1,4.7-3.2
				c1.1-1.2,1.6-2.4,1.6-3.6c0-2.5-1.2-4.3-3.7-5.5c-2.5-1.1-5.9-1.7-10.2-1.7c-2.7,0-5.4-0.1-8.1-0.2c-2.7-0.1-5.3-0.3-7.7-0.4
				c-2.4-0.2-4.4-0.4-6.2-0.5C512.3,344.5,511,344.4,510.3,344.2z M524.1,323.7c1.6,0,3.1-0.4,4.5-1.1c1.5-0.7,2.7-1.7,3.8-2.9
				s2-2.7,2.6-4.4c0.7-1.7,1-3.4,1-5.3c0-2.7-0.4-5.3-1.1-7.6c-0.7-2.3-1.8-4.4-3-6.1c-1.3-1.7-2.8-3.1-4.5-4.1s-3.5-1.5-5.4-1.5
				s-3.5,0.4-4.9,1.2s-2.5,1.8-3.4,3.2s-1.5,2.9-1.9,4.8c-0.4,1.8-0.6,3.8-0.6,5.9c0,2.5,0.3,4.9,0.9,7.1c0.6,2.2,1.5,4.1,2.6,5.7
				c1.1,1.6,2.5,2.9,4.1,3.8C520.4,323.2,522.2,323.7,524.1,323.7z"/>
		</g>
		<g>
			<path d="M606.5,344.7h-11.1v-7.6c-1.3,1-2.6,2-3.9,3.1c-1.3,1-2.6,2-4.1,2.9s-3.1,1.6-4.9,2.1c-1.8,0.5-3.9,0.8-6.2,0.8
				c-2.2,0-4.2-0.4-5.9-1.1c-1.8-0.7-3.3-1.7-4.5-2.9s-2.2-2.7-2.9-4.4s-1-3.5-1-5.5c0-2.4,0.5-4.5,1.4-6.5c1-1.9,2.3-3.6,3.9-5.2
				c1.6-1.5,3.6-2.9,5.8-4.1c2.2-1.2,4.5-2.2,7-3.2c2.5-0.9,5-1.8,7.6-2.5s5.2-1.4,7.7-2v-3.5c0-2.5-0.3-4.7-0.8-6.4
				s-1.2-3.2-2.2-4.2c-0.9-1.1-2.1-1.8-3.4-2.3c-1.3-0.5-2.8-0.7-4.5-0.7c-1.9,0-3.4,0.2-4.6,0.7c-1.2,0.5-2.1,1.1-2.8,1.9
				c-0.7,0.8-1.1,1.7-1.4,2.7c-0.2,1-0.4,2.1-0.4,3.1s-0.1,1.9-0.2,2.8c-0.2,0.9-0.4,1.7-0.9,2.4c-0.4,0.7-1,1.2-1.7,1.6
				c-0.7,0.4-1.6,0.6-2.7,0.6c-0.9,0-1.7-0.2-2.4-0.5s-1.3-0.8-1.8-1.4c-0.5-0.6-0.9-1.3-1.2-2.1s-0.4-1.7-0.4-2.6
				c0-1.8,0.6-3.5,1.8-5.1s2.8-3,4.9-4.1c2-1.2,4.4-2.1,7.2-2.8c2.7-0.7,5.6-1,8.6-1c3.7,0,6.8,0.4,9.3,1.1c2.5,0.7,4.6,1.7,6.1,3
				c1.6,1.3,2.7,2.8,3.4,4.7c0.7,1.8,1,3.9,1,6.1v42.1H606.5z M595.4,312.2c-1.6,0.5-3.2,1.1-5,1.8c-1.7,0.7-3.4,1.4-5,2.2
				s-3.2,1.7-4.7,2.6c-1.5,1-2.8,2-3.9,3c-1.1,1.1-2,2.2-2.7,3.4s-1,2.5-1,3.8c0,1.4,0.3,2.6,0.8,3.9c0.5,1.2,1.2,2.3,2,3.2
				s1.8,1.6,2.9,2.2c1.1,0.5,2.2,0.8,3.4,0.8s2.4-0.2,3.6-0.5c1.1-0.3,2.2-0.8,3.3-1.3c1.1-0.6,2.1-1.2,3.2-1.9
				c1.1-0.7,2.1-1.5,3.2-2.4L595.4,312.2L595.4,312.2z"/>
		</g>
		<g>
			<path d="M621.3,288.9h11.1v11.4c1.1-1.4,2.3-2.9,3.7-4.3c1.4-1.5,2.9-2.8,4.5-4c1.7-1.2,3.5-2.2,5.5-3s4.2-1.2,6.6-1.2
				c3.3,0,6.3,0.7,9,2.1c2.7,1.4,5,3.3,6.9,5.6c1.9,2.4,3.4,5.2,4.4,8.3c1,3.2,1.6,6.6,1.6,10.2c0,4.6-0.6,8.9-1.9,12.7
				c-1.3,3.9-3.1,7.3-5.5,10.1s-5.2,5.1-8.6,6.6c-3.4,1.6-7.1,2.4-11.3,2.4c-1.6,0-3-0.1-4.3-0.2c-1.3-0.2-2.6-0.4-3.8-0.7
				s-2.3-0.8-3.5-1.3c-1.1-0.5-2.2-1.1-3.4-1.9v26.4h-11.1L621.3,288.9L621.3,288.9z M632.4,329.6c0,1.7,0.4,3.2,1.1,4.7
				c0.7,1.5,1.7,2.8,3.1,3.9c1.3,1.1,2.9,2,4.7,2.6s3.8,1,6,1c2.1,0,4-0.5,5.8-1.6s3.4-2.6,4.8-4.5c1.4-1.9,2.4-4.2,3.2-6.9
				s1.2-5.7,1.2-9c0-4.1-0.4-7.7-1.1-10.8s-1.7-5.6-3-7.7c-1.3-2-2.8-3.6-4.6-4.6s-3.7-1.5-5.8-1.5c-1.6,0-3.2,0.3-4.6,0.8
				c-1.5,0.5-2.9,1.2-4.2,2s-2.5,1.8-3.6,2.9c-1.1,1.1-2.1,2.2-3,3.4L632.4,329.6L632.4,329.6z"/>
		</g>
		<g>
			<path d="M690.8,260.3c0.9,0,1.7,0.1,2.5,0.4c0.8,0.3,1.5,0.7,2,1.2c0.6,0.5,1,1.1,1.4,1.8c0.3,0.7,0.5,1.4,0.5,2.2
				s-0.2,1.5-0.5,2.2s-0.8,1.3-1.4,1.8c-0.6,0.5-1.2,0.9-2,1.2s-1.6,0.4-2.5,0.4s-1.7-0.1-2.4-0.4c-0.8-0.3-1.4-0.7-2-1.2
				s-1-1.1-1.4-1.8c-0.3-0.7-0.5-1.4-0.5-2.2s0.2-1.5,0.5-2.2s0.8-1.3,1.4-1.8c0.6-0.5,1.2-0.9,2-1.2
				C689.2,260.5,690,260.3,690.8,260.3z M685.4,290.9l7.8-3.2h3.2v57h-11V290.9z"/>
		</g>
		<g>
			<path d="M734.7,345.9c-3.8,0-7.3-0.7-10.6-2.1c-3.3-1.4-6.2-3.3-8.7-5.8c-2.5-2.4-4.4-5.3-5.9-8.6c-1.4-3.3-2.2-6.8-2.2-10.5
				c0-4.5,0.7-8.6,2-12.4c1.3-3.8,3.2-7.1,5.6-9.9c2.4-2.8,5.3-4.9,8.6-6.5c3.4-1.6,7.1-2.3,11.2-2.3c3.7,0,7,0.6,10.1,1.9
				c3,1.3,5.7,3,7.8,5.2c2.2,2.2,3.9,4.7,5.1,7.5c1.2,2.8,1.8,5.8,1.8,8.9H718c0,3.7,0.5,7.2,1.5,10.4s2.3,6,4.1,8.3
				c1.7,2.3,3.8,4.1,6.2,5.5c2.4,1.3,5.1,2,7.9,2c2.4,0,4.7-0.4,7-1.2c2.2-0.8,4.2-1.8,6-3.1s3.3-2.7,4.6-4.4
				c1.3-1.6,2.2-3.3,2.7-5.1l3.2,1.4c-0.8,2.9-2.1,5.6-3.9,8.1c-1.8,2.5-3.9,4.7-6.2,6.6c-2.4,1.9-5,3.3-7.8,4.4
				C740.4,345.3,737.5,345.9,734.7,345.9z M745.7,306.8c0-2.1-0.4-4.1-1.1-5.9c-0.7-1.8-1.8-3.4-3.1-4.7s-2.8-2.4-4.6-3.1
				c-1.7-0.8-3.6-1.1-5.6-1.1c-1.7,0-3.3,0.4-4.8,1.1c-1.5,0.8-2.9,1.8-4.1,3.1c-1.2,1.3-2.2,2.9-3,4.7s-1.3,3.8-1.4,5.9H745.7z"/>
		</g>
		<g>
			<path d="M811,339.2c-1.3,1-2.7,2-4.2,2.8s-3,1.5-4.6,2.1s-3.2,1-4.9,1.3c-1.6,0.3-3.2,0.5-4.8,0.5c-3.3,0-6.4-0.8-9.2-2.3
				c-2.9-1.5-5.3-3.6-7.5-6.2s-3.8-5.6-5-9s-1.8-7-1.8-10.9c0-2.5,0.4-5,1.1-7.5c0.7-2.5,1.7-4.8,3-7s2.8-4.2,4.6-6.1
				c1.8-1.9,3.8-3.5,5.9-4.9c2.2-1.4,4.5-2.4,7-3.2s5.1-1.1,7.8-1.1s5.1,0.5,7.1,1.4c2,1,3.9,2.2,5.7,3.8v-29.4l7.7-3.2h3.3v85.5
				h-11v-6.6H811z M811,306.6c0-2.2-0.4-4.2-1.2-6s-1.9-3.4-3.2-4.6c-1.3-1.3-2.8-2.3-4.5-3s-3.3-1.1-5-1.1c-2.2,0-4.3,0.6-6.2,1.7
				c-1.9,1.1-3.6,2.6-5,4.6s-2.6,4.3-3.4,7.1c-0.8,2.8-1.2,5.8-1.2,9.1c0,3.5,0.5,6.8,1.4,9.9c0.9,3.1,2.2,5.8,3.8,8.1
				s3.5,4.1,5.6,5.5c2.1,1.3,4.4,2,6.8,2c1.2,0,2.3-0.2,3.5-0.5s2.3-0.7,3.3-1.2c1.1-0.5,2.1-1.1,3-1.8s1.7-1.4,2.4-2.2L811,306.6
				L811,306.6z"/>
		</g>
		<g>
			<path d="M834.9,288.9h11v10.5c1.1-1.6,2.2-3,3.5-4.5c1.2-1.4,2.5-2.7,3.9-3.7c1.4-1.1,2.7-1.9,4.2-2.5c1.4-0.6,2.9-0.9,4.4-0.9
				c1.2,0,2.3,0.2,3.4,0.5c1,0.4,1.9,0.8,2.7,1.5c0.8,0.6,1.4,1.3,1.8,2.1c0.4,0.8,0.7,1.7,0.7,2.6c0,1.8-0.6,3.2-1.7,4.1
				c-1.1,0.9-2.7,1.4-4.7,1.4c-1.2,0-2.2-0.1-3-0.4c-0.7-0.3-1.4-0.6-2-0.9c-0.6-0.3-1.2-0.6-1.8-0.9c-0.6-0.3-1.4-0.4-2.3-0.4
				c-0.7,0-1.5,0.2-2.2,0.6c-0.7,0.4-1.5,1-2.2,1.8s-1.5,1.7-2.3,2.8s-1.5,2.2-2.3,3.5v38.6h-11v-55.8H834.9z"/>
		</g>
		<g>
			<path d="M918.7,344.7h-11.1v-7.6c-1.3,1-2.6,2-3.9,3.1c-1.3,1-2.6,2-4.1,2.9s-3.1,1.6-4.9,2.1c-1.8,0.5-3.9,0.8-6.2,0.8
				c-2.2,0-4.2-0.4-5.9-1.1c-1.8-0.7-3.3-1.7-4.5-2.9s-2.2-2.7-2.9-4.4s-1-3.5-1-5.5c0-2.4,0.5-4.5,1.4-6.5c1-1.9,2.3-3.6,3.9-5.2
				c1.6-1.5,3.6-2.9,5.8-4.1c2.2-1.2,4.5-2.2,7-3.2c2.5-0.9,5-1.8,7.6-2.5s5.2-1.4,7.7-2v-3.5c0-2.5-0.3-4.7-0.8-6.4
				s-1.2-3.2-2.2-4.2c-0.9-1.1-2.1-1.8-3.4-2.3c-1.3-0.5-2.8-0.7-4.5-0.7c-1.9,0-3.4,0.2-4.6,0.7c-1.2,0.5-2.1,1.1-2.8,1.9
				c-0.7,0.8-1.1,1.7-1.4,2.7c-0.2,1-0.4,2.1-0.4,3.1s-0.1,1.9-0.2,2.8c-0.2,0.9-0.4,1.7-0.9,2.4c-0.4,0.7-1,1.2-1.7,1.6
				c-0.7,0.4-1.6,0.6-2.7,0.6c-0.9,0-1.7-0.2-2.4-0.5s-1.3-0.8-1.8-1.4c-0.5-0.6-0.9-1.3-1.2-2.1s-0.4-1.7-0.4-2.6
				c0-1.8,0.6-3.5,1.8-5.1s2.8-3,4.9-4.1c2-1.2,4.4-2.1,7.2-2.8c2.7-0.7,5.6-1,8.6-1c3.7,0,6.8,0.4,9.3,1.1c2.5,0.7,4.6,1.7,6.1,3
				c1.6,1.3,2.7,2.8,3.4,4.7c0.7,1.8,1,3.9,1,6.1v42.1H918.7z M907.6,312.2c-1.6,0.5-3.2,1.1-5,1.8c-1.7,0.7-3.4,1.4-5,2.2
				s-3.2,1.7-4.7,2.6c-1.5,1-2.8,2-3.9,3c-1.1,1.1-2,2.2-2.7,3.4s-1,2.5-1,3.8c0,1.4,0.3,2.6,0.8,3.9c0.5,1.2,1.2,2.3,2,3.2
				s1.8,1.6,2.9,2.2c1.1,0.5,2.2,0.8,3.4,0.8s2.4-0.2,3.6-0.5c1.1-0.3,2.2-0.8,3.3-1.3c1.1-0.6,2.1-1.2,3.2-1.9
				c1.1-0.7,2.1-1.5,3.2-2.4L907.6,312.2L907.6,312.2z"/>
		</g>
		<g>
			<path d="M944.6,299.1c3.4-3.8,6.9-6.6,10.5-8.5s7.3-2.8,11.1-2.8c1.9,0,3.8,0.4,5.5,1.3c1.7,0.9,3.2,2.1,4.5,3.6s2.3,3.3,3,5.4
				c0.7,2.1,1.1,4.3,1.1,6.6v40h-11.1v-38.2c0-3.7-0.8-6.5-2.5-8.4s-3.8-2.9-6.4-2.9c-1.2,0-2.4,0.2-3.7,0.6c-1.3,0.4-2.6,0.9-4,1.6
				c-1.4,0.7-2.7,1.6-4,2.5c-1.3,1-2.6,2.1-3.9,3.3v41.5h-11.1v-81.2l7.9-3.2h3.2L944.6,299.1L944.6,299.1z"/>
		</g>
		<g>
			<path d="M999.1,260.3c0.9,0,1.7,0.1,2.5,0.4c0.8,0.3,1.5,0.7,2,1.2c0.6,0.5,1,1.1,1.4,1.8c0.3,0.7,0.5,1.4,0.5,2.2
				s-0.2,1.5-0.5,2.2s-0.8,1.3-1.4,1.8c-0.6,0.5-1.2,0.9-2,1.2s-1.6,0.4-2.5,0.4s-1.7-0.1-2.4-0.4c-0.8-0.3-1.4-0.7-2-1.2
				s-1-1.1-1.4-1.8c-0.3-0.7-0.5-1.4-0.5-2.2s0.2-1.5,0.5-2.2s0.8-1.3,1.4-1.8c0.6-0.5,1.2-0.9,2-1.2
				C997.4,260.5,998.2,260.3,999.1,260.3z M993.7,290.9l7.8-3.2h3.2v57h-11V290.9z"/>
		</g>
		<g>
			<path d="M1047.9,337.6c-1.5,2.6-3.5,4.6-5.9,6.1c-2.5,1.5-5.5,2.2-9.1,2.2c-1.9,0-3.5-0.3-4.9-0.9c-1.4-0.6-2.5-1.5-3.4-2.6
				s-1.6-2.5-2-4.1s-0.6-3.4-0.6-5.3v-39.3h-9.7v-2.8c3.1,0,5.7-0.6,7.7-1.7c2-1.1,3.7-2.6,4.9-4.6c1.3-1.9,2.3-4.1,3-6.7
				c0.7-2.5,1.4-5.2,1.9-8h3.2V289h12.5v4.7H1033V333c0,0.8,0.2,1.6,0.5,2.3s0.7,1.4,1.3,1.9c0.5,0.5,1.2,1,1.9,1.3
				c0.7,0.3,1.5,0.5,2.4,0.5c1.2,0,2.4-0.3,3.4-0.9c1-0.6,1.9-1.4,2.7-2.3L1047.9,337.6z"/>
		</g>
		<g>
			<path d="M1095.7,344.7h-11.1v-7.6c-1.3,1-2.6,2-3.9,3.1c-1.3,1-2.6,2-4.1,2.9s-3.1,1.6-4.9,2.1s-3.9,0.8-6.2,0.8
				c-2.2,0-4.2-0.4-5.9-1.1c-1.8-0.7-3.3-1.7-4.5-2.9s-2.2-2.7-2.9-4.4c-0.7-1.7-1-3.5-1-5.5c0-2.4,0.5-4.5,1.4-6.5
				c1-1.9,2.3-3.6,3.9-5.2c1.6-1.5,3.6-2.9,5.8-4.1c2.2-1.2,4.5-2.2,7-3.2c2.5-0.9,5-1.8,7.6-2.5s5.2-1.4,7.7-2v-3.5
				c0-2.5-0.3-4.7-0.8-6.4s-1.2-3.2-2.2-4.2c-0.9-1.1-2.1-1.8-3.4-2.3s-2.8-0.7-4.5-0.7c-1.9,0-3.4,0.2-4.6,0.7s-2.1,1.1-2.8,1.9
				c-0.7,0.8-1.1,1.7-1.4,2.7c-0.2,1-0.4,2.1-0.4,3.1s-0.1,1.9-0.2,2.8c-0.2,0.9-0.4,1.7-0.9,2.4c-0.4,0.7-1,1.2-1.7,1.6
				c-0.7,0.4-1.6,0.6-2.7,0.6c-0.9,0-1.7-0.2-2.4-0.5c-0.7-0.3-1.3-0.8-1.8-1.4c-0.5-0.6-0.9-1.3-1.2-2.1c-0.3-0.8-0.4-1.7-0.4-2.6
				c0-1.8,0.6-3.5,1.8-5.1c1.2-1.6,2.8-3,4.9-4.1c2-1.2,4.4-2.1,7.2-2.8c2.7-0.7,5.6-1,8.6-1c3.7,0,6.8,0.4,9.3,1.1
				c2.5,0.7,4.6,1.7,6.1,3c1.6,1.3,2.7,2.8,3.4,4.7c0.7,1.8,1,3.9,1,6.1v42.1H1095.7z M1084.6,312.2c-1.6,0.5-3.2,1.1-5,1.8
				c-1.7,0.7-3.4,1.4-5,2.2s-3.2,1.7-4.7,2.6c-1.5,1-2.8,2-3.9,3c-1.1,1.1-2,2.2-2.7,3.4s-1,2.5-1,3.8c0,1.4,0.3,2.6,0.8,3.9
				c0.5,1.2,1.2,2.3,2,3.2s1.8,1.6,2.9,2.2c1.1,0.5,2.2,0.8,3.4,0.8c1.2,0,2.4-0.2,3.6-0.5c1.1-0.3,2.2-0.8,3.3-1.3
				c1.1-0.6,2.1-1.2,3.2-1.9s2.1-1.5,3.2-2.4v-20.8H1084.6z"/>
		</g>
		<g>
			<path d="M1170.5,296.9l8.7-1l-10,33.7c-0.4,1.4-0.8,2.8-1,4c-0.3,1.3-0.4,2.6-0.4,3.9c0,0.7,0.1,1.4,0.2,2.1
				c0.1,0.6,0.3,1.2,0.6,1.7c0.3,0.5,0.7,0.9,1.1,1.1c0.4,0.3,1,0.4,1.6,0.4c1.6,0,3.3-0.4,5-1.3c1.7-0.8,3.4-2,5.1-3.6
				c1.6-1.5,3.2-3.4,4.7-5.5s2.8-4.5,3.9-7.1s2-5.3,2.6-8.3c0.7-2.9,1-5.9,1-9.1c0-4.9-0.9-9.4-2.7-13.5c-1.8-4.1-4.2-7.6-7.1-10.6
				c-3-3-6.4-5.3-10.4-7c-3.9-1.7-8.1-2.5-12.4-2.5c-6.9,0-13.2,1.2-18.9,3.6c-5.7,2.4-10.5,5.7-14.6,9.8c-4,4.2-7.2,9.1-9.4,14.7
				c-2.2,5.6-3.3,11.6-3.3,18.1c0,3.8,0.5,7.5,1.4,11.1s2.2,7,4,10.2c1.7,3.2,3.8,6.1,6.3,8.8c2.5,2.6,5.3,4.9,8.4,6.8
				c3.2,1.9,6.6,3.4,10.3,4.5c3.7,1.1,7.7,1.6,12,1.6c3.7,0,7.2-0.4,10.5-1.3c3.2-0.8,6.2-2,8.9-3.4c2.7-1.4,5.2-3.1,7.4-5.1
				c2.2-2,4.2-4,6-6.3c1.8-2.2,3.4-4.5,4.7-6.9c1.4-2.4,2.5-4.7,3.5-7l4.1,1.1c-2.2,5-4.7,9.6-7.6,13.6c-2.8,4.1-6.1,7.5-9.8,10.4
				c-3.7,2.9-7.9,5.1-12.6,6.6c-4.7,1.6-10,2.3-16,2.3c-7.2,0-13.7-1.2-19.4-3.7c-5.7-2.5-10.6-5.9-14.6-10.2s-7.1-9.4-9.2-15.2
				s-3.2-12.1-3.2-18.7c0-4.7,0.6-9.2,1.7-13.5s2.8-8.2,4.9-11.8s4.7-6.9,7.7-9.8c3-2.9,6.4-5.4,10.2-7.5c3.7-2.1,7.8-3.7,12.2-4.8
				c4.4-1.1,9-1.7,13.9-1.7c3.5,0,6.8,0.4,10,1.2s6.2,2,8.9,3.5c2.8,1.5,5.3,3.4,7.5,5.6c2.3,2.2,4.2,4.7,5.7,7.5
				c1.6,2.8,2.8,5.9,3.7,9.2c0.9,3.3,1.3,6.9,1.3,10.7c0,3.4-0.3,6.6-1,9.8s-1.7,6.2-2.9,9c-1.3,2.8-2.8,5.4-4.5,7.8
				c-1.7,2.4-3.6,4.4-5.7,6.1c-2.1,1.7-4.2,3-6.5,4s-4.7,1.4-7.1,1.4c-1.5,0-2.9-0.1-4.2-0.4c-1.3-0.2-2.4-0.7-3.4-1.3
				s-1.7-1.5-2.2-2.5s-0.8-2.4-0.8-3.9c0-1.2,0.1-2.4,0.2-3.7s0.3-2.6,0.6-3.9c-0.2,0.2-0.4,0.5-0.6,0.9c-0.2,0.3-0.4,0.6-0.6,0.9
				c-1.3,1.5-2.7,3.1-4.2,4.8c-1.5,1.6-3,3.1-4.6,4.5s-3.2,2.5-4.9,3.3c-1.7,0.9-3.4,1.3-5.1,1.3s-3.2-0.4-4.4-1.1
				c-1.2-0.7-2.2-1.7-3-2.8c-0.8-1.2-1.4-2.5-1.8-4.1c-0.4-1.5-0.6-3.1-0.6-4.7c0-2.5,0.4-5.1,1.1-8c0.8-2.9,1.8-5.8,3.2-8.6
				c1.4-2.9,3-5.7,4.9-8.4s3.9-5.1,6.1-7.1c2.2-2.1,4.6-3.7,7-5c2.5-1.2,5-1.9,7.6-1.9c1.1,0,2.2,0.3,3.1,0.8s1.7,1.2,2.4,2.1
				c0.7,0.9,1.2,1.8,1.6,2.9c0.4,1.1,0.7,2.2,0.9,3.2L1170.5,296.9z M1143.6,339.6c1.8,0,3.5-0.6,5.3-1.7c1.8-1.1,3.5-2.6,5.2-4.4
				c1.6-1.9,3.2-4,4.6-6.4s2.7-4.8,3.8-7.4c1.1-2.5,1.9-5,2.5-7.5s0.9-4.8,0.9-6.8c0-1-0.2-2-0.7-2.9c-0.5-1-1-1.8-1.7-2.5
				s-1.4-1.3-2.2-1.7c-0.8-0.4-1.6-0.6-2.3-0.6c-2,0-3.9,0.6-5.7,1.8c-1.8,1.2-3.5,2.7-5.1,4.6c-1.6,1.9-3,4.1-4.3,6.6
				s-2.4,5-3.3,7.5c-0.9,2.6-1.6,5.1-2.1,7.5s-0.8,4.6-0.8,6.5c0,0.8,0.1,1.6,0.2,2.4c0.2,0.9,0.5,1.7,0.9,2.4s1,1.4,1.8,1.9
				C1141.4,339.3,1142.4,339.6,1143.6,339.6z"/>
		</g>
		<g>
			<path d="M1269.1,291.8v4.6h-10.6c1.1,1.5,2,3.2,2.6,5.1c0.7,1.9,1,3.8,1,5.6c0,2.9-0.6,5.5-1.9,7.9s-3.1,4.4-5.3,6.1
				c-2.3,1.7-5,3-8.2,4c-3.2,0.9-6.7,1.4-10.5,1.4c-1.4,0-2.8-0.1-4.3-0.4c-1.5-0.2-2.7-0.5-3.8-0.9c-1.1,0.9-2,1.9-2.7,3
				s-1.1,2.3-1.1,3.5c0,1.1,0.6,2,1.8,2.7c1.2,0.7,3,1.1,5.2,1.1l20.7,0.9c3.3,0.1,6,0.5,8.2,1.2c2.2,0.6,4,1.5,5.3,2.5
				c1.3,1.1,2.2,2.3,2.8,3.8c0.5,1.5,0.8,3.1,0.8,4.9c0,3.3-0.8,6.2-2.3,8.8s-3.7,4.9-6.5,6.7c-2.9,1.9-6.3,3.3-10.4,4.3
				s-8.7,1.5-13.9,1.5c-9.2,0-16.1-1-20.6-3.1c-4.6-2.1-6.8-4.8-6.8-8.3c0-1.5,0.4-3,1.1-4.4c0.8-1.4,1.7-2.8,2.9-4.1s2.5-2.5,4-3.7
				s2.9-2.3,4.3-3.5c-1-0.3-2-0.7-2.9-1.1c-0.9-0.4-1.6-1-2.3-1.5s-1.2-1.2-1.5-1.9c-0.4-0.7-0.6-1.4-0.6-2.2c0-1.1,0.3-2.3,0.9-3.5
				s1.4-2.3,2.4-3.5c1-1.1,2.2-2.1,3.6-3s2.8-1.7,4.4-2.3c-3.8-1.6-6.7-3.8-8.8-6.7c-2.1-2.9-3.2-6.1-3.2-9.8c0-2.7,0.6-5.3,1.9-7.8
				c1.3-2.4,3-4.6,5.2-6.4c2.2-1.8,4.8-3.3,7.8-4.3c3-1.1,6.2-1.6,9.6-1.6c1.7,0,3.3,0.1,4.9,0.3s3.1,0.5,4.5,0.9s2.6,0.8,3.7,1.3
				s1.9,1,2.5,1.6h16.1V291.8z M1224.3,344.2c-0.8,0.6-1.6,1.3-2.2,2.1s-1.2,1.6-1.6,2.4c-0.4,0.8-0.8,1.7-1,2.5s-0.3,1.7-0.3,2.4
				c0,1.2,0.4,2.4,1.3,3.6c0.9,1.1,2.2,2.1,3.9,3c1.7,0.9,3.9,1.6,6.6,2.1c2.6,0.5,5.7,0.8,9.2,0.8c3.7,0,7-0.3,10-0.9
				c2.9-0.6,5.4-1.4,7.5-2.3c2-1,3.6-2.1,4.7-3.2c1.1-1.2,1.6-2.4,1.6-3.6c0-2.5-1.2-4.3-3.7-5.5c-2.5-1.1-5.9-1.7-10.2-1.7
				c-2.7,0-5.4-0.1-8.1-0.2c-2.7-0.1-5.3-0.3-7.7-0.4c-2.4-0.2-4.4-0.4-6.2-0.5C1226.3,344.5,1225,344.4,1224.3,344.2z
				 M1238.1,323.7c1.6,0,3.1-0.4,4.5-1.1c1.5-0.7,2.7-1.7,3.8-2.9c1.1-1.2,2-2.7,2.6-4.4c0.7-1.7,1-3.4,1-5.3c0-2.7-0.4-5.3-1.1-7.6
				s-1.8-4.4-3-6.1c-1.3-1.7-2.8-3.1-4.5-4.1s-3.5-1.5-5.4-1.5s-3.5,0.4-4.9,1.2s-2.5,1.8-3.4,3.2s-1.5,2.9-1.9,4.8
				c-0.4,1.8-0.6,3.8-0.6,5.9c0,2.5,0.3,4.9,0.9,7.1s1.5,4.1,2.6,5.7c1.1,1.6,2.5,2.9,4.1,3.8
				C1234.5,323.2,1236.2,323.7,1238.1,323.7z"/>
		</g>
		<g>
			<path d="M1279.4,288.9h11.1v10.4c1.4-1.6,3-3,4.8-4.4s3.6-2.6,5.5-3.7c1.9-1.1,3.8-1.9,5.7-2.5c1.9-0.6,3.7-0.9,5.4-0.9
				c1.7,0,3.3,0.3,5,0.9c1.7,0.6,3.2,1.4,4.7,2.5c1.4,1.1,2.7,2.3,3.7,3.7s1.7,3,2,4.7c0.9-1.6,2.2-3.2,3.8-4.6
				c1.6-1.4,3.4-2.7,5.4-3.7c2-1.1,4.1-1.9,6.2-2.5c2.2-0.6,4.3-0.9,6.4-0.9s4.1,0.5,5.9,1.4c1.9,0.9,3.5,2.2,4.9,3.8
				s2.5,3.4,3.3,5.6s1.2,4.4,1.2,6.8v39.2h-11.1v-37.8c0-1.6-0.3-3-0.8-4.4s-1.3-2.6-2.2-3.7c-0.9-1.1-2-1.9-3.2-2.5
				s-2.5-0.9-3.8-0.9c-1.5,0-3.1,0.2-4.6,0.6c-1.6,0.4-3.1,1-4.5,1.7s-2.7,1.6-3.9,2.5c-1.2,1-2.1,2-2.8,3.1v41.4h-11.1v-37.8
				c0-1.6-0.3-3-0.8-4.4s-1.3-2.6-2.2-3.7c-0.9-1.1-2-1.9-3.2-2.5s-2.5-0.9-3.8-0.9c-1.4,0-2.9,0.2-4.4,0.6c-1.5,0.4-3,1-4.4,1.7
				s-2.8,1.6-4,2.5c-1.2,1-2.3,2-3.1,3v41.5h-11.1V288.9z"/>
		</g>
		<g>
			<path d="M1418.3,344.7h-11.1v-7.6c-1.3,1-2.6,2-3.9,3.1c-1.3,1-2.6,2-4.1,2.9s-3.1,1.6-4.9,2.1s-3.9,0.8-6.2,0.8
				c-2.2,0-4.2-0.4-5.9-1.1c-1.8-0.7-3.3-1.7-4.5-2.9s-2.2-2.7-2.9-4.4c-0.7-1.7-1-3.5-1-5.5c0-2.4,0.5-4.5,1.4-6.5
				c1-1.9,2.3-3.6,3.9-5.2c1.6-1.5,3.6-2.9,5.8-4.1c2.2-1.2,4.5-2.2,7-3.2c2.5-0.9,5-1.8,7.6-2.5s5.2-1.4,7.7-2v-3.5
				c0-2.5-0.3-4.7-0.8-6.4s-1.2-3.2-2.2-4.2c-0.9-1.1-2.1-1.8-3.4-2.3s-2.8-0.7-4.5-0.7c-1.9,0-3.4,0.2-4.6,0.7s-2.1,1.1-2.8,1.9
				c-0.7,0.8-1.1,1.7-1.4,2.7c-0.2,1-0.4,2.1-0.4,3.1s-0.1,1.9-0.2,2.8c-0.2,0.9-0.4,1.7-0.9,2.4c-0.4,0.7-1,1.2-1.7,1.6
				c-0.7,0.4-1.6,0.6-2.7,0.6c-0.9,0-1.7-0.2-2.4-0.5c-0.7-0.3-1.3-0.8-1.8-1.4c-0.5-0.6-0.9-1.3-1.2-2.1c-0.3-0.8-0.4-1.7-0.4-2.6
				c0-1.8,0.6-3.5,1.8-5.1c1.2-1.6,2.8-3,4.9-4.1c2-1.2,4.4-2.1,7.2-2.8c2.7-0.7,5.6-1,8.6-1c3.7,0,6.8,0.4,9.3,1.1
				c2.5,0.7,4.6,1.7,6.1,3c1.6,1.3,2.7,2.8,3.4,4.7c0.7,1.8,1,3.9,1,6.1v42.1H1418.3z M1407.1,312.2c-1.6,0.5-3.2,1.1-5,1.8
				c-1.7,0.7-3.4,1.4-5,2.2s-3.2,1.7-4.7,2.6c-1.5,1-2.8,2-3.9,3c-1.1,1.1-2,2.2-2.7,3.4s-1,2.5-1,3.8c0,1.4,0.3,2.6,0.8,3.9
				c0.5,1.2,1.2,2.3,2,3.2s1.8,1.6,2.9,2.2c1.1,0.5,2.2,0.8,3.4,0.8c1.2,0,2.4-0.2,3.6-0.5c1.1-0.3,2.2-0.8,3.3-1.3
				c1.1-0.6,2.1-1.2,3.2-1.9s2.1-1.5,3.2-2.4v-20.8H1407.1z"/>
		</g>
		<g>
			<path d="M1439,260.3c0.9,0,1.7,0.1,2.5,0.4c0.8,0.3,1.5,0.7,2,1.2c0.6,0.5,1,1.1,1.4,1.8c0.3,0.7,0.5,1.4,0.5,2.2
				s-0.2,1.5-0.5,2.2s-0.8,1.3-1.4,1.8s-1.2,0.9-2,1.2s-1.6,0.4-2.5,0.4s-1.7-0.1-2.4-0.4c-0.8-0.3-1.4-0.7-2-1.2s-1-1.1-1.4-1.8
				c-0.3-0.7-0.5-1.4-0.5-2.2s0.2-1.5,0.5-2.2s0.8-1.3,1.4-1.8s1.2-0.9,2-1.2C1437.3,260.5,1438.1,260.3,1439,260.3z M1433.6,290.9
				l7.8-3.2h3.2v57h-11V290.9z"/>
		</g>
		<g>
			<path d="M1469.7,344.7h-11.1v-81.2l7.9-3.2h3.2V344.7z"/>
		</g>
		<g>
			<path d="M1488.6,334.9c0.8,0,1.6,0.1,2.3,0.4c0.7,0.3,1.3,0.7,1.9,1.2c0.5,0.5,1,1.1,1.3,1.8s0.5,1.4,0.5,2.2s-0.2,1.5-0.5,2.3
				c-0.3,0.7-0.7,1.3-1.3,1.8c-0.5,0.5-1.2,0.9-1.9,1.2c-0.7,0.3-1.5,0.4-2.3,0.4s-1.6-0.1-2.3-0.4c-0.7-0.3-1.4-0.7-1.9-1.2
				s-1-1.1-1.3-1.8s-0.5-1.5-0.5-2.3s0.2-1.5,0.5-2.2s0.7-1.3,1.3-1.8c0.5-0.5,1.2-0.9,1.9-1.2
				C1487,335.1,1487.8,334.9,1488.6,334.9z"/>
		</g>
		<g>
			<path d="M1530.7,345.9c-3.6,0-7.1-0.7-10.3-2.2c-3.2-1.4-6-3.4-8.4-5.9s-4.2-5.4-5.6-8.8c-1.4-3.4-2.1-6.9-2.1-10.8
				c0-4.2,0.8-8.2,2.3-11.9s3.6-6.9,6.2-9.7s5.7-5,9.2-6.5c3.5-1.6,7.3-2.4,11.3-2.4c3.1,0,6,0.3,8.6,1s4.9,1.6,6.8,2.8
				s3.4,2.6,4.5,4.2c1.1,1.6,1.6,3.4,1.6,5.2c0,0.8-0.2,1.6-0.6,2.4c-0.4,0.7-1,1.4-1.7,1.9c-0.7,0.6-1.5,1-2.4,1.3
				s-1.8,0.5-2.7,0.5c-1,0-1.9-0.2-2.7-0.5c-0.8-0.4-1.5-0.8-2.1-1.4s-1-1.2-1.3-1.9s-0.4-1.5-0.4-2.2c0-1.3-0.1-2.5-0.4-3.6
				s-0.8-2.1-1.5-2.9c-0.7-0.8-1.6-1.5-2.9-1.9c-1.2-0.5-2.8-0.7-4.6-0.7c-2.5,0-4.8,0.5-6.8,1.5s-3.7,2.4-5.1,4.1
				c-1.4,1.7-2.4,3.8-3.2,6.1s-1.1,4.8-1.1,7.5c0,3.6,0.5,6.9,1.4,10.1c0.9,3.2,2.3,6,3.9,8.4c1.7,2.4,3.7,4.3,6.1,5.7
				s5.1,2.1,8,2.1c2.6,0,4.8-0.4,6.8-1.2c1.9-0.8,3.6-1.9,5-3.3c1.4-1.4,2.6-3,3.6-4.8s1.9-3.8,2.7-5.8l3.3,1.4
				c-0.9,3.5-2.2,6.6-3.8,9.4c-1.6,2.8-3.5,5.1-5.6,7c-2.2,1.9-4.6,3.4-7.3,4.4C1536.8,345.4,1533.9,345.9,1530.7,345.9z"/>
		</g>
		<g>
			<path d="M1593.8,345.9c-4.3,0-8.2-0.7-11.8-2.2c-3.6-1.5-6.7-3.5-9.3-6.1c-2.6-2.6-4.7-5.6-6.1-9c-1.5-3.4-2.2-7.1-2.2-11
				c0-4.1,0.7-8,2.2-11.6s3.5-6.8,6.1-9.5s5.7-4.8,9.3-6.4c3.6-1.6,7.6-2.3,11.8-2.3c4.3,0,8.2,0.7,11.8,2.1
				c3.6,1.4,6.7,3.4,9.3,5.8c2.6,2.5,4.7,5.4,6.2,8.7s2.2,6.9,2.2,10.7c0,4.2-0.7,8.2-2.2,11.9s-3.5,7-6.2,9.8
				c-2.6,2.8-5.7,5-9.3,6.6C1602,345.1,1598.1,345.9,1593.8,345.9z M1595.9,341.8c2.2,0,4.2-0.6,6-1.7c1.8-1.1,3.4-2.6,4.7-4.5
				c1.3-1.9,2.4-4.1,3.1-6.6s1.1-5.2,1.1-8c0-4.1-0.3-7.8-1-11.3s-1.8-6.6-3.4-9.2c-1.6-2.6-3.6-4.7-6.1-6.2s-5.6-2.3-9.2-2.3
				c-1.9,0-3.7,0.5-5.4,1.6c-1.7,1.1-3.3,2.5-4.6,4.4c-1.3,1.9-2.4,4.1-3.2,6.5c-0.8,2.5-1.2,5.1-1.2,7.9c0,4.1,0.4,7.9,1.3,11.4
				c0.9,3.6,2.1,6.7,3.7,9.3s3.6,4.7,6,6.3C1590.2,341,1592.9,341.8,1595.9,341.8z"/>
		</g>
		<g>
			<path d="M1633.9,288.9h11.1v10.4c1.4-1.6,3-3,4.8-4.4s3.6-2.6,5.5-3.7c1.9-1.1,3.8-1.9,5.7-2.5c1.9-0.6,3.7-0.9,5.4-0.9
				c1.7,0,3.3,0.3,5,0.9c1.7,0.6,3.2,1.4,4.7,2.5c1.4,1.1,2.7,2.3,3.7,3.7s1.7,3,2,4.7c0.9-1.6,2.2-3.2,3.8-4.6
				c1.6-1.4,3.4-2.7,5.4-3.7c2-1.1,4.1-1.9,6.2-2.5c2.2-0.6,4.3-0.9,6.4-0.9s4.1,0.5,5.9,1.4c1.9,0.9,3.5,2.2,4.9,3.8
				s2.5,3.4,3.3,5.6s1.2,4.4,1.2,6.8v39.2h-11.1v-37.8c0-1.6-0.3-3-0.8-4.4s-1.3-2.6-2.2-3.7c-0.9-1.1-2-1.9-3.2-2.5
				s-2.5-0.9-3.8-0.9c-1.5,0-3.1,0.2-4.6,0.6c-1.6,0.4-3.1,1-4.5,1.7s-2.7,1.6-3.9,2.5c-1.2,1-2.1,2-2.8,3.1v41.4h-11v-37.8
				c0-1.6-0.3-3-0.8-4.4s-1.3-2.6-2.2-3.7c-0.9-1.1-2-1.9-3.2-2.5s-2.5-0.9-3.8-0.9c-1.4,0-2.9,0.2-4.4,0.6c-1.5,0.4-3,1-4.4,1.7
				s-2.8,1.6-4,2.5c-1.2,1-2.3,2-3.1,3v41.5H1634L1633.9,288.9L1633.9,288.9z"/>
		</g>
		<g>
			<path d="M149.8,400H162v72.3h-12.2V400z"/>
		</g>
		<g>
			<path d="M177.5,416.5h11.1v10.2c3.4-3.8,6.9-6.6,10.5-8.5s7.3-2.8,11.1-2.8c1.9,0,3.8,0.4,5.5,1.3c1.7,0.9,3.2,2.1,4.5,3.6
				s2.3,3.3,3,5.4c0.7,2.1,1.1,4.3,1.1,6.6v40h-11.1v-38.2c0-3.7-0.8-6.5-2.5-8.4s-3.8-2.9-6.4-2.9c-1.2,0-2.4,0.2-3.7,0.6
				c-1.3,0.4-2.6,0.9-4,1.6c-1.4,0.7-2.7,1.6-4.1,2.5c-1.4,1-2.6,2.1-3.9,3.3v41.3h-11.1L177.5,416.5L177.5,416.5z"/>
		</g>
		<g>
			<path d="M254.8,469.7c1.5,0,2.9-0.2,4.2-0.7s2.4-1.1,3.3-1.8c0.9-0.8,1.6-1.6,2.2-2.6c0.5-1,0.8-2,0.8-3.1c0-1.7-0.4-3.2-1.3-4.4
				c-0.8-1.3-2-2.4-3.4-3.4s-3-1.9-4.8-2.8c-1.8-0.8-3.6-1.7-5.5-2.6c-1.9-0.9-3.7-1.8-5.5-2.9c-1.8-1-3.4-2.2-4.8-3.5
				c-1.4-1.3-2.5-2.9-3.4-4.6c-0.8-1.7-1.3-3.8-1.3-6.2c0-2.3,0.5-4.3,1.4-6.2c1-1.9,2.3-3.5,3.9-4.9c1.7-1.4,3.7-2.5,6-3.2
				c2.3-0.8,4.9-1.2,7.7-1.2c1.8,0,3.6,0.1,5.2,0.4c1.6,0.3,3.2,0.8,4.8,1.5c1.5,0.7,3.1,1.8,4.6,3.1c1.5,1.4,3.1,3.1,4.8,5.3
				l-4.1,3.6c-2.1-3.5-4.5-6-7.1-7.7s-5.4-2.5-8.4-2.5c-1.6,0-3,0.2-4.3,0.6c-1.3,0.4-2.4,0.9-3.4,1.6c-0.9,0.7-1.7,1.5-2.2,2.4
				s-0.8,1.9-0.8,2.9c0,1.7,0.5,3.1,1.4,4.4c0.9,1.2,2.2,2.4,3.7,3.4s3.3,1.9,5.2,2.8c1.9,0.8,3.9,1.7,6,2.6c2,0.9,4,1.8,6,2.8
				c1.9,1,3.7,2.2,5.2,3.5s2.8,2.9,3.7,4.6c0.9,1.7,1.4,3.8,1.4,6.1c0,2.4-0.4,4.6-1.3,6.6c-0.9,2.1-2.2,3.8-4,5.3s-4,2.7-6.7,3.6
				c-2.7,0.9-5.8,1.3-9.4,1.3c-1.6,0-3.3-0.1-5-0.4c-1.7-0.3-3.4-0.8-5.2-1.5c-1.7-0.7-3.5-1.8-5.2-3.1c-1.7-1.4-3.5-3.1-5.1-5.3
				l4.5-4.1c1.4,1.9,2.6,3.5,3.9,4.9c1.2,1.3,2.5,2.4,3.8,3.3c1.3,0.8,2.6,1.5,3.9,1.9C251.7,469.5,253.2,469.7,254.8,469.7z"/>
		</g>
		<g>
			<path d="M317,465.2c-1.5,2.6-3.5,4.6-5.9,6.1c-2.5,1.5-5.5,2.2-9.1,2.2c-1.9,0-3.5-0.3-4.9-0.9c-1.4-0.6-2.5-1.5-3.4-2.6
				s-1.6-2.5-2-4.1s-0.6-3.4-0.6-5.3v-39.3h-9.7v-2.8c3.1,0,5.7-0.6,7.7-1.7c2-1.1,3.7-2.6,4.9-4.6c1.3-1.9,2.3-4.1,3-6.7
				c0.7-2.5,1.4-5.2,1.9-8h3.2v19.1h12.5v4.7h-12.5v39.3c0,0.8,0.2,1.6,0.5,2.3s0.7,1.4,1.3,1.9c0.5,0.5,1.2,1,1.9,1.3
				c0.7,0.3,1.5,0.5,2.4,0.5c1.2,0,2.4-0.3,3.4-0.9c1-0.6,1.9-1.4,2.7-2.3L317,465.2z"/>
		</g>
		<g>
			<path d="M364.8,472.3h-11.1v-7.6c-1.3,1-2.6,2-3.9,3.1c-1.3,1-2.6,2-4.1,2.9s-3.1,1.6-4.9,2.1s-3.9,0.8-6.2,0.8
				c-2.2,0-4.2-0.4-5.9-1.1c-1.8-0.7-3.3-1.7-4.5-2.9s-2.2-2.7-2.9-4.4c-0.7-1.7-1-3.5-1-5.5c0-2.4,0.5-4.5,1.4-6.5
				c1-1.9,2.3-3.6,3.9-5.2c1.6-1.5,3.6-2.9,5.8-4.1c2.2-1.2,4.5-2.2,7-3.2c2.5-0.9,5-1.8,7.6-2.5s5.2-1.4,7.7-2v-3.5
				c0-2.5-0.3-4.7-0.8-6.4s-1.2-3.2-2.2-4.2c-0.9-1.1-2.1-1.8-3.4-2.3s-2.8-0.7-4.5-0.7c-1.9,0-3.4,0.2-4.6,0.7s-2.1,1.1-2.8,1.9
				c-0.7,0.8-1.1,1.7-1.4,2.7c-0.2,1-0.4,2.1-0.4,3.1s-0.1,1.9-0.2,2.8c-0.2,0.9-0.4,1.7-0.9,2.4c-0.4,0.7-1,1.2-1.7,1.6
				c-0.7,0.4-1.6,0.6-2.7,0.6c-0.9,0-1.7-0.2-2.4-0.5c-0.7-0.3-1.3-0.8-1.8-1.4c-0.5-0.6-0.9-1.3-1.2-2.1c-0.3-0.8-0.4-1.7-0.4-2.6
				c0-1.8,0.6-3.5,1.8-5.1c1.2-1.6,2.8-3,4.9-4.1c2-1.2,4.4-2.1,7.2-2.8c2.7-0.7,5.6-1,8.6-1c3.7,0,6.8,0.4,9.3,1.1
				c2.5,0.7,4.6,1.7,6.1,3c1.6,1.3,2.7,2.8,3.4,4.7c0.7,1.8,1,3.9,1,6.1v42.1H364.8z M353.7,439.8c-1.6,0.5-3.2,1.1-5,1.8
				c-1.7,0.7-3.4,1.4-5,2.2s-3.2,1.7-4.7,2.6c-1.5,1-2.8,2-3.9,3c-1.1,1.1-2,2.2-2.7,3.4s-1,2.5-1,3.8c0,1.4,0.3,2.6,0.8,3.9
				c0.5,1.2,1.2,2.3,2,3.2s1.8,1.6,2.9,2.2c1.1,0.5,2.2,0.8,3.4,0.8c1.2,0,2.4-0.2,3.6-0.5c1.1-0.3,2.2-0.8,3.3-1.3
				c1.1-0.6,2.1-1.2,3.2-1.9s2.1-1.5,3.2-2.4L353.7,439.8L353.7,439.8z"/>
		</g>
		<g>
			<path d="M435,419.4v4.6h-10.6c1.1,1.5,2,3.2,2.6,5.1c0.7,1.9,1,3.8,1,5.6c0,2.9-0.6,5.5-1.9,7.9s-3.1,4.4-5.3,6.1
				c-2.3,1.7-5,3-8.2,4c-3.2,0.9-6.7,1.4-10.5,1.4c-1.4,0-2.8-0.1-4.3-0.4c-1.5-0.2-2.7-0.5-3.8-0.9c-1.1,0.9-2,1.9-2.7,3
				s-1.1,2.3-1.1,3.5c0,1.1,0.6,2,1.8,2.7c1.2,0.7,3,1.1,5.2,1.1l20.7,0.9c3.3,0.1,6,0.5,8.2,1.2c2.2,0.6,4,1.5,5.3,2.5
				c1.3,1.1,2.2,2.3,2.8,3.8c0.5,1.5,0.8,3.1,0.8,4.9c0,3.3-0.8,6.2-2.3,8.8s-3.7,4.9-6.5,6.7c-2.9,1.9-6.3,3.3-10.4,4.3
				s-8.7,1.5-13.9,1.5c-9.2,0-16.1-1-20.6-3.1c-4.6-2.1-6.8-4.8-6.8-8.3c0-1.5,0.4-3,1.1-4.4c0.8-1.4,1.7-2.8,2.9-4.1s2.5-2.5,4-3.7
				s2.9-2.3,4.3-3.5c-1-0.3-2-0.7-2.9-1.1c-0.9-0.4-1.6-1-2.3-1.5c-0.6-0.6-1.2-1.2-1.5-1.9c-0.4-0.7-0.6-1.4-0.6-2.2
				c0-1.1,0.3-2.3,0.9-3.5s1.4-2.3,2.4-3.5c1-1.1,2.2-2.1,3.6-3s2.8-1.7,4.4-2.3c-3.8-1.6-6.7-3.8-8.8-6.7c-2.1-2.9-3.2-6.1-3.2-9.8
				c0-2.7,0.6-5.3,1.9-7.8c1.3-2.4,3-4.6,5.2-6.4c2.2-1.8,4.8-3.3,7.8-4.3c3-1.1,6.2-1.6,9.6-1.6c1.7,0,3.3,0.1,4.9,0.3
				s3.1,0.5,4.5,0.9s2.6,0.8,3.7,1.3s1.9,1,2.5,1.6H435V419.4z M390.2,471.8c-0.8,0.6-1.6,1.3-2.2,2.1s-1.2,1.6-1.6,2.4
				c-0.4,0.8-0.8,1.7-1,2.5s-0.3,1.7-0.3,2.4c0,1.2,0.4,2.4,1.3,3.6c0.9,1.1,2.2,2.1,3.9,3c1.7,0.9,3.9,1.6,6.6,2.1
				c2.6,0.5,5.7,0.8,9.2,0.8c3.7,0,7-0.3,10-0.9c2.9-0.6,5.4-1.4,7.5-2.3c2-1,3.6-2.1,4.7-3.2c1.1-1.2,1.6-2.4,1.6-3.6
				c0-2.5-1.2-4.3-3.7-5.5c-2.5-1.1-5.9-1.7-10.2-1.7c-2.7,0-5.4-0.1-8.1-0.2c-2.7-0.1-5.3-0.3-7.7-0.4c-2.4-0.2-4.4-0.4-6.2-0.5
				C392.2,472.1,391,472,390.2,471.8z M404,451.3c1.6,0,3.1-0.4,4.5-1.1c1.5-0.7,2.7-1.7,3.8-2.9c1.1-1.2,2-2.7,2.6-4.4
				c0.7-1.7,1-3.4,1-5.3c0-2.7-0.4-5.3-1.1-7.6s-1.8-4.4-3-6.1c-1.3-1.7-2.8-3.1-4.5-4.1s-3.5-1.5-5.4-1.5s-3.5,0.4-4.9,1.2
				s-2.5,1.8-3.4,3.2s-1.5,2.9-1.9,4.8c-0.4,1.8-0.6,3.8-0.6,5.9c0,2.5,0.3,4.9,0.9,7.1c0.6,2.2,1.5,4.1,2.6,5.7
				c1.1,1.6,2.5,2.9,4.1,3.8C400.4,450.9,402.1,451.3,404,451.3z"/>
		</g>
		<g>
			<path d="M445.4,416.5h11V427c1.1-1.6,2.2-3,3.5-4.5c1.2-1.4,2.5-2.7,3.9-3.7c1.4-1.1,2.7-1.9,4.2-2.5c1.4-0.6,2.9-0.9,4.4-0.9
				c1.2,0,2.3,0.2,3.4,0.5c1,0.4,1.9,0.8,2.7,1.5c0.8,0.6,1.4,1.3,1.8,2.1s0.7,1.7,0.7,2.6c0,1.8-0.6,3.2-1.7,4.1
				c-1.1,0.9-2.7,1.4-4.7,1.4c-1.2,0-2.2-0.1-3-0.4c-0.7-0.3-1.4-0.6-2-0.9c-0.6-0.3-1.2-0.6-1.8-0.9c-0.6-0.3-1.4-0.4-2.3-0.4
				c-0.7,0-1.5,0.2-2.2,0.6c-0.7,0.4-1.5,1-2.2,1.8s-1.5,1.7-2.3,2.8s-1.5,2.2-2.3,3.5v38.6h-11v-55.8H445.4z"/>
		</g>
		<g>
			<path d="M529.1,472.3H518v-7.6c-1.3,1-2.6,2-3.9,3.1c-1.3,1-2.6,2-4.1,2.9s-3.1,1.6-4.9,2.1s-3.9,0.8-6.2,0.8
				c-2.2,0-4.2-0.4-5.9-1.1c-1.8-0.7-3.3-1.7-4.5-2.9s-2.2-2.7-2.9-4.4c-0.7-1.7-1-3.5-1-5.5c0-2.4,0.5-4.5,1.4-6.5
				c1-1.9,2.3-3.6,3.9-5.2c1.6-1.5,3.6-2.9,5.8-4.1c2.2-1.2,4.5-2.2,7-3.2c2.5-0.9,5-1.8,7.6-2.5s5.2-1.4,7.7-2v-3.5
				c0-2.5-0.3-4.7-0.8-6.4s-1.2-3.2-2.2-4.2c-0.9-1.1-2.1-1.8-3.4-2.3c-1.3-0.5-2.8-0.7-4.5-0.7c-1.9,0-3.4,0.2-4.6,0.7
				s-2.1,1.1-2.8,1.9c-0.7,0.8-1.1,1.7-1.4,2.7c-0.2,1-0.4,2.1-0.4,3.1s-0.1,1.9-0.2,2.8c-0.2,0.9-0.4,1.7-0.9,2.4
				c-0.4,0.7-1,1.2-1.7,1.6c-0.7,0.4-1.6,0.6-2.7,0.6c-0.9,0-1.7-0.2-2.4-0.5c-0.7-0.3-1.3-0.8-1.8-1.4c-0.5-0.6-0.9-1.3-1.2-2.1
				c-0.3-0.8-0.4-1.7-0.4-2.6c0-1.8,0.6-3.5,1.8-5.1c1.2-1.6,2.8-3,4.9-4.1c2-1.2,4.4-2.1,7.2-2.8c2.7-0.7,5.6-1,8.6-1
				c3.7,0,6.8,0.4,9.3,1.1c2.5,0.7,4.6,1.7,6.1,3c1.6,1.3,2.7,2.8,3.4,4.7c0.7,1.8,1,3.9,1,6.1v42.1H529.1z M518,439.8
				c-1.6,0.5-3.2,1.1-5,1.8c-1.7,0.7-3.4,1.4-5,2.2s-3.2,1.7-4.7,2.6c-1.5,1-2.8,2-3.9,3c-1.1,1.1-2,2.2-2.7,3.4s-1,2.5-1,3.8
				c0,1.4,0.3,2.6,0.8,3.9c0.5,1.2,1.2,2.3,2,3.2s1.8,1.6,2.9,2.2c1.1,0.5,2.2,0.8,3.4,0.8c1.2,0,2.4-0.2,3.6-0.5
				c1.1-0.3,2.2-0.8,3.3-1.3c1.1-0.6,2.1-1.2,3.2-1.9c1.1-0.7,2.1-1.5,3.2-2.4L518,439.8L518,439.8z"/>
		</g>
		<g>
			<path d="M543.9,416.5H555v10.4c1.4-1.6,3-3,4.8-4.4s3.6-2.6,5.5-3.7c1.9-1.1,3.8-1.9,5.7-2.5s3.7-0.9,5.4-0.9s3.3,0.3,5,0.9
				c1.7,0.6,3.2,1.4,4.7,2.5c1.4,1.1,2.7,2.3,3.7,3.7s1.7,3,2,4.7c0.9-1.6,2.2-3.2,3.8-4.6c1.6-1.4,3.4-2.7,5.4-3.7
				c2-1.1,4.1-1.9,6.2-2.5c2.2-0.6,4.3-0.9,6.4-0.9c2.1,0,4.1,0.5,5.9,1.4c1.9,0.9,3.5,2.2,4.9,3.8s2.5,3.4,3.3,5.6
				c0.8,2.1,1.2,4.4,1.2,6.8v39.4h-11.1v-37.8c0-1.6-0.3-3-0.8-4.4s-1.3-2.6-2.2-3.7c-0.9-1.1-2-1.9-3.2-2.5s-2.5-0.9-3.8-0.9
				c-1.5,0-3.1,0.2-4.6,0.6c-1.6,0.4-3.1,1-4.5,1.7s-2.7,1.6-3.9,2.5c-1.2,1-2.1,2-2.8,3.1v41.4h-11.1v-37.8c0-1.6-0.3-3-0.8-4.4
				s-1.3-2.6-2.2-3.7c-0.9-1.1-2-1.9-3.2-2.5s-2.5-0.9-3.8-0.9c-1.4,0-2.9,0.2-4.4,0.6c-1.5,0.4-3,1-4.4,1.7s-2.8,1.6-4,2.5
				c-1.2,1-2.3,2-3.1,3v41.4h-11.1L543.9,416.5L543.9,416.5z"/>
		</g>
		<g>
			<path d="M647.1,422.4c0.8,0,1.6,0.2,2.3,0.5s1.3,0.7,1.9,1.2c0.5,0.5,1,1.1,1.3,1.8s0.5,1.4,0.5,2.2s-0.2,1.5-0.5,2.3
				c-0.3,0.7-0.7,1.3-1.3,1.8c-0.5,0.5-1.2,0.9-1.9,1.2s-1.5,0.4-2.3,0.4s-1.6-0.1-2.3-0.4c-0.7-0.3-1.4-0.7-1.9-1.2s-1-1.1-1.3-1.8
				s-0.5-1.5-0.5-2.3s0.2-1.5,0.5-2.2s0.7-1.3,1.3-1.8c0.5-0.5,1.2-0.9,1.9-1.2S646.3,422.4,647.1,422.4z M647.1,462.5
				c0.8,0,1.6,0.1,2.3,0.4c0.7,0.3,1.3,0.7,1.9,1.2c0.5,0.5,1,1.1,1.3,1.8s0.5,1.4,0.5,2.2s-0.2,1.5-0.5,2.3
				c-0.3,0.7-0.7,1.3-1.3,1.8c-0.5,0.5-1.2,0.9-1.9,1.2s-1.5,0.4-2.3,0.4s-1.6-0.1-2.3-0.4c-0.7-0.3-1.4-0.7-1.9-1.2s-1-1.1-1.3-1.8
				s-0.5-1.5-0.5-2.3s0.2-1.5,0.5-2.2s0.7-1.3,1.3-1.8c0.5-0.5,1.2-0.9,1.9-1.2C645.5,462.7,646.3,462.5,647.1,462.5z"/>
		</g>
		<g>
			<path d="M723.8,473.5c-4.3,0-8.2-0.7-11.8-2.2s-6.7-3.5-9.3-6.1s-4.7-5.6-6.1-9c-1.5-3.4-2.2-7.1-2.2-11c0-4.1,0.7-8,2.2-11.6
				s3.5-6.8,6.1-9.5s5.7-4.8,9.3-6.4c3.6-1.6,7.6-2.3,11.8-2.3c4.3,0,8.2,0.7,11.8,2.1c3.6,1.4,6.7,3.4,9.3,5.8
				c2.6,2.5,4.7,5.4,6.2,8.7s2.2,6.9,2.2,10.7c0,4.2-0.7,8.2-2.2,11.9s-3.5,7-6.2,9.8c-2.6,2.8-5.7,5-9.3,6.6
				C732,472.7,728.1,473.5,723.8,473.5z M725.9,469.4c2.2,0,4.2-0.6,6-1.7c1.8-1.1,3.4-2.6,4.7-4.5s2.4-4.1,3.1-6.6
				c0.7-2.5,1.1-5.2,1.1-8c0-4.1-0.3-7.8-1-11.3s-1.8-6.6-3.4-9.2c-1.6-2.6-3.6-4.7-6.1-6.2s-5.6-2.3-9.2-2.3
				c-1.9,0-3.7,0.5-5.4,1.6s-3.3,2.5-4.6,4.4s-2.4,4.1-3.2,6.5c-0.8,2.5-1.2,5.1-1.2,7.9c0,4.1,0.4,7.9,1.3,11.4
				c0.9,3.6,2.1,6.7,3.7,9.3c1.6,2.6,3.6,4.7,6,6.3C720.2,468.6,722.9,469.4,725.9,469.4z"/>
		</g>
		<g>
			<path d="M775.5,472.3h-11.1v-81.2l7.9-3.2h3.2L775.5,472.3L775.5,472.3z"/>
		</g>
		<g>
			<path d="M844.3,419.4v4.6h-10.6c1.1,1.5,2,3.2,2.6,5.1c0.7,1.9,1,3.8,1,5.6c0,2.9-0.6,5.5-1.9,7.9c-1.3,2.4-3.1,4.4-5.3,6.1
				c-2.3,1.7-5,3-8.2,4c-3.2,0.9-6.7,1.4-10.5,1.4c-1.4,0-2.8-0.1-4.3-0.4c-1.5-0.2-2.7-0.5-3.8-0.9c-1.1,0.9-2,1.9-2.7,3
				s-1.1,2.3-1.1,3.5c0,1.1,0.6,2,1.8,2.7s3,1.1,5.2,1.1l20.7,0.9c3.3,0.1,6,0.5,8.2,1.2c2.2,0.6,4,1.5,5.3,2.5
				c1.3,1.1,2.2,2.3,2.8,3.8c0.5,1.5,0.8,3.1,0.8,4.9c0,3.3-0.8,6.2-2.3,8.8s-3.7,4.9-6.5,6.7c-2.9,1.9-6.3,3.3-10.4,4.3
				c-4.1,1-8.7,1.5-13.9,1.5c-9.2,0-16.1-1-20.6-3.1c-4.6-2.1-6.8-4.8-6.8-8.3c0-1.5,0.4-3,1.1-4.4c0.8-1.4,1.7-2.8,2.9-4.1
				s2.5-2.5,4-3.7s2.9-2.3,4.3-3.5c-1-0.3-2-0.7-2.9-1.1c-0.9-0.4-1.6-1-2.3-1.5s-1.2-1.2-1.5-1.9c-0.4-0.7-0.6-1.4-0.6-2.2
				c0-1.1,0.3-2.3,0.9-3.5c0.6-1.2,1.4-2.3,2.4-3.5c1-1.1,2.2-2.1,3.6-3c1.4-0.9,2.8-1.7,4.4-2.3c-3.8-1.6-6.7-3.8-8.8-6.7
				s-3.2-6.1-3.2-9.8c0-2.7,0.6-5.3,1.9-7.8c1.3-2.4,3-4.6,5.2-6.4c2.2-1.8,4.8-3.3,7.8-4.3c3-1.1,6.2-1.6,9.6-1.6
				c1.7,0,3.3,0.1,4.9,0.3c1.6,0.2,3.1,0.5,4.5,0.9s2.6,0.8,3.7,1.3c1.1,0.5,1.9,1,2.5,1.6h16.1V419.4z M799.6,471.8
				c-0.8,0.6-1.6,1.3-2.2,2.1c-0.6,0.8-1.2,1.6-1.6,2.4c-0.4,0.8-0.8,1.7-1,2.5s-0.3,1.7-0.3,2.4c0,1.2,0.4,2.4,1.3,3.6
				c0.9,1.1,2.2,2.1,3.9,3s3.9,1.6,6.6,2.1c2.6,0.5,5.7,0.8,9.2,0.8c3.7,0,7-0.3,10-0.9c2.9-0.6,5.4-1.4,7.5-2.3
				c2-1,3.6-2.1,4.7-3.2c1.1-1.2,1.6-2.4,1.6-3.6c0-2.5-1.2-4.3-3.7-5.5c-2.5-1.1-5.9-1.7-10.2-1.7c-2.7,0-5.4-0.1-8.1-0.2
				c-2.7-0.1-5.3-0.3-7.7-0.4c-2.4-0.2-4.4-0.4-6.2-0.5C801.6,472.1,800.3,472,799.6,471.8z M813.4,451.3c1.6,0,3.1-0.4,4.5-1.1
				c1.5-0.7,2.7-1.7,3.8-2.9s2-2.7,2.6-4.4c0.7-1.7,1-3.4,1-5.3c0-2.7-0.4-5.3-1.1-7.6c-0.7-2.3-1.8-4.4-3-6.1
				c-1.3-1.7-2.8-3.1-4.5-4.1s-3.5-1.5-5.4-1.5s-3.5,0.4-4.9,1.2s-2.5,1.8-3.4,3.2s-1.5,2.9-1.9,4.8c-0.4,1.8-0.6,3.8-0.6,5.9
				c0,2.5,0.3,4.9,0.9,7.1s1.5,4.1,2.6,5.7c1.1,1.6,2.5,2.9,4.1,3.8C809.8,450.9,811.5,451.3,813.4,451.3z"/>
		</g>
		<g>
			<path d="M895.8,472.3h-11.1v-7.6c-1.3,1-2.6,2-3.9,3.1c-1.3,1-2.6,2-4.1,2.9s-3.1,1.6-4.9,2.1c-1.8,0.5-3.9,0.8-6.2,0.8
				c-2.2,0-4.2-0.4-5.9-1.1c-1.8-0.7-3.3-1.7-4.5-2.9s-2.2-2.7-2.9-4.4s-1-3.5-1-5.5c0-2.4,0.5-4.5,1.4-6.5c1-1.9,2.3-3.6,3.9-5.2
				c1.6-1.5,3.6-2.9,5.8-4.1c2.2-1.2,4.5-2.2,7-3.2c2.5-0.9,5-1.8,7.6-2.5s5.2-1.4,7.7-2v-3.5c0-2.5-0.3-4.7-0.8-6.4
				s-1.2-3.2-2.2-4.2c-0.9-1.1-2.1-1.8-3.4-2.3c-1.3-0.5-2.8-0.7-4.5-0.7c-1.9,0-3.4,0.2-4.6,0.7c-1.2,0.5-2.1,1.1-2.8,1.9
				c-0.7,0.8-1.1,1.7-1.4,2.7c-0.2,1-0.4,2.1-0.4,3.1s-0.1,1.9-0.2,2.8c-0.2,0.9-0.4,1.7-0.9,2.4c-0.4,0.7-1,1.2-1.7,1.6
				c-0.7,0.4-1.6,0.6-2.7,0.6c-0.9,0-1.7-0.2-2.4-0.5s-1.3-0.8-1.8-1.4c-0.5-0.6-0.9-1.3-1.2-2.1s-0.4-1.7-0.4-2.6
				c0-1.8,0.6-3.5,1.8-5.1s2.8-3,4.9-4.1c2-1.2,4.4-2.1,7.2-2.8c2.7-0.7,5.6-1,8.6-1c3.7,0,6.8,0.4,9.3,1.1c2.5,0.7,4.6,1.7,6.1,3
				c1.6,1.3,2.7,2.8,3.4,4.7c0.7,1.8,1,3.9,1,6.1v42.1H895.8z M884.7,439.8c-1.6,0.5-3.2,1.1-5,1.8c-1.7,0.7-3.4,1.4-5,2.2
				s-3.2,1.7-4.7,2.6c-1.5,1-2.8,2-3.9,3c-1.1,1.1-2,2.2-2.7,3.4s-1,2.5-1,3.8c0,1.4,0.3,2.6,0.8,3.9c0.5,1.2,1.2,2.3,2,3.2
				s1.8,1.6,2.9,2.2c1.1,0.5,2.2,0.8,3.4,0.8s2.4-0.2,3.6-0.5c1.1-0.3,2.2-0.8,3.3-1.3c1.1-0.6,2.1-1.2,3.2-1.9
				c1.1-0.7,2.1-1.5,3.2-2.4L884.7,439.8L884.7,439.8z"/>
		</g>
		<g>
			<path d="M916.1,462.5c0.8,0,1.6,0.1,2.3,0.4c0.7,0.3,1.3,0.7,1.9,1.2c0.5,0.5,1,1.1,1.3,1.8s0.5,1.4,0.5,2.2s-0.2,1.5-0.5,2.3
				c-0.3,0.7-0.7,1.3-1.3,1.8c-0.5,0.5-1.2,0.9-1.9,1.2s-1.5,0.4-2.3,0.4s-1.6-0.1-2.3-0.4c-0.7-0.3-1.4-0.7-1.9-1.2s-1-1.1-1.3-1.8
				s-0.5-1.5-0.5-2.3s0.2-1.5,0.5-2.2s0.7-1.3,1.3-1.8c0.5-0.5,1.2-0.9,1.9-1.2C914.5,462.7,915.2,462.5,916.1,462.5z"/>
		</g>
		<g>
			<path d="M934.5,416.5h11.1v11.4c1.1-1.4,2.3-2.9,3.7-4.3c1.4-1.5,2.9-2.8,4.5-4c1.7-1.2,3.5-2.2,5.5-3s4.2-1.2,6.6-1.2
				c3.3,0,6.3,0.7,9,2.1c2.7,1.4,5,3.3,6.9,5.6c1.9,2.4,3.4,5.2,4.4,8.3c1,3.2,1.6,6.6,1.6,10.2c0,4.6-0.6,8.9-1.9,12.7
				c-1.3,3.9-3.1,7.3-5.5,10.1s-5.2,5.1-8.6,6.6c-3.4,1.6-7.1,2.4-11.3,2.4c-1.6,0-3-0.1-4.3-0.2c-1.3-0.2-2.6-0.4-3.8-0.7
				s-2.3-0.8-3.5-1.3c-1.1-0.5-2.2-1.1-3.4-1.9v26.4h-11.1L934.5,416.5L934.5,416.5z M945.5,457.2c0,1.7,0.4,3.2,1.1,4.7
				c0.7,1.5,1.7,2.8,3.1,3.9c1.3,1.1,2.9,2,4.7,2.6s3.8,1,6,1c2.1,0,4-0.5,5.8-1.6s3.4-2.6,4.8-4.5c1.4-1.9,2.4-4.2,3.2-6.9
				s1.2-5.7,1.2-9c0-4.1-0.4-7.7-1.1-10.8s-1.7-5.6-3-7.7c-1.3-2-2.8-3.6-4.6-4.6s-3.7-1.5-5.8-1.5c-1.6,0-3.2,0.3-4.6,0.8
				c-1.5,0.5-2.9,1.2-4.2,2s-2.5,1.8-3.6,2.9c-1.1,1.1-2.1,2.2-3,3.4L945.5,457.2L945.5,457.2z"/>
		</g>
		<g>
			<path d="M1004,388c0.9,0,1.7,0.1,2.5,0.4c0.8,0.3,1.5,0.7,2,1.2c0.6,0.5,1,1.1,1.4,1.8c0.3,0.7,0.5,1.4,0.5,2.2s-0.2,1.5-0.5,2.2
				s-0.8,1.3-1.4,1.8c-0.6,0.5-1.2,0.9-2,1.2s-1.6,0.4-2.5,0.4s-1.7-0.1-2.4-0.4c-0.8-0.3-1.4-0.7-2-1.2s-1-1.1-1.4-1.8
				c-0.3-0.7-0.5-1.4-0.5-2.2s0.2-1.5,0.5-2.2s0.8-1.3,1.4-1.8c0.6-0.5,1.2-0.9,2-1.2C1002.3,388.1,1003.1,388,1004,388z
				 M998.6,418.6l7.8-3.2h3.2v56.9h-11V418.6z"/>
		</g>
		<g>
			<path d="M1047.8,473.5c-3.8,0-7.3-0.7-10.6-2.1c-3.3-1.4-6.2-3.3-8.7-5.8c-2.5-2.4-4.4-5.3-5.9-8.6c-1.4-3.3-2.2-6.8-2.2-10.5
				c0-4.5,0.7-8.6,2-12.4c1.3-3.8,3.2-7.1,5.6-9.9c2.4-2.8,5.3-4.9,8.6-6.5c3.4-1.6,7.1-2.3,11.2-2.3c3.7,0,7,0.6,10.1,1.9
				c3,1.3,5.7,3,7.8,5.2c2.2,2.2,3.9,4.7,5.1,7.5s1.8,5.8,1.8,8.9H1031c0,3.7,0.5,7.2,1.5,10.4s2.3,6,4.1,8.3
				c1.7,2.3,3.8,4.1,6.2,5.5c2.4,1.3,5.1,2,7.9,2c2.4,0,4.7-0.4,7-1.2c2.2-0.8,4.2-1.8,6-3.1s3.3-2.7,4.6-4.4
				c1.3-1.6,2.2-3.3,2.7-5.1l3.2,1.4c-0.8,2.9-2.1,5.6-3.9,8.1s-3.9,4.7-6.2,6.6c-2.4,1.9-5,3.3-7.8,4.4
				C1053.5,473,1050.7,473.5,1047.8,473.5z M1058.9,434.4c0-2.1-0.4-4.1-1.1-5.9c-0.7-1.8-1.8-3.4-3.1-4.7c-1.3-1.3-2.8-2.4-4.6-3.1
				c-1.7-0.8-3.6-1.1-5.6-1.1c-1.7,0-3.3,0.4-4.8,1.1c-1.5,0.8-2.9,1.8-4.1,3.1s-2.2,2.9-3,4.7s-1.3,3.8-1.4,5.9H1058.9z"/>
		</g>
		<g>
			<path d="M1124.1,466.9c-1.3,1-2.7,2-4.2,2.8s-3,1.5-4.6,2.1s-3.2,1-4.9,1.3c-1.6,0.3-3.2,0.5-4.8,0.5c-3.3,0-6.4-0.8-9.2-2.3
				c-2.9-1.5-5.3-3.6-7.5-6.2s-3.8-5.6-5-9s-1.8-7-1.8-10.9c0-2.5,0.4-5,1.1-7.5s1.7-4.8,3-7s2.8-4.2,4.6-6.1
				c1.8-1.9,3.8-3.5,5.9-4.9c2.2-1.4,4.5-2.4,7-3.2s5.1-1.1,7.8-1.1c2.7,0,5.1,0.5,7.1,1.4c2,1,3.9,2.2,5.7,3.8v-29.4l7.7-3.2h3.3
				v85.5h-11v-6.6H1124.1z M1124.1,434.2c0-2.2-0.4-4.2-1.2-6c-0.8-1.8-1.9-3.4-3.2-4.6c-1.3-1.3-2.8-2.3-4.5-3s-3.3-1.1-5-1.1
				c-2.2,0-4.3,0.6-6.2,1.7c-1.9,1.1-3.6,2.6-5,4.6s-2.6,4.3-3.4,7.1s-1.2,5.8-1.2,9.1c0,3.5,0.5,6.8,1.4,9.9
				c0.9,3.1,2.2,5.8,3.8,8.1c1.6,2.3,3.5,4.1,5.6,5.5c2.1,1.3,4.4,2,6.8,2c1.2,0,2.3-0.2,3.5-0.5s2.3-0.7,3.3-1.2
				c1.1-0.5,2.1-1.1,3-1.8s1.7-1.4,2.4-2.2v-27.6H1124.1z"/>
		</g>
		<g>
			<path d="M1148.1,416.5h11V427c1.1-1.6,2.2-3,3.5-4.5c1.2-1.4,2.5-2.7,3.9-3.7c1.4-1.1,2.7-1.9,4.2-2.5c1.4-0.6,2.9-0.9,4.4-0.9
				c1.2,0,2.3,0.2,3.4,0.5c1,0.4,1.9,0.8,2.7,1.5c0.8,0.6,1.4,1.3,1.8,2.1s0.7,1.7,0.7,2.6c0,1.8-0.6,3.2-1.7,4.1
				c-1.1,0.9-2.7,1.4-4.7,1.4c-1.2,0-2.2-0.1-3-0.4c-0.7-0.3-1.4-0.6-2-0.9c-0.6-0.3-1.2-0.6-1.8-0.9c-0.6-0.3-1.4-0.4-2.3-0.4
				c-0.7,0-1.5,0.2-2.2,0.6c-0.7,0.4-1.5,1-2.2,1.8s-1.5,1.7-2.3,2.8s-1.5,2.2-2.3,3.5v38.6h-11L1148.1,416.5L1148.1,416.5z"/>
		</g>
		<g>
			<path d="M1231.9,472.3h-11.1v-7.6c-1.3,1-2.6,2-3.9,3.1c-1.3,1-2.6,2-4.1,2.9s-3.1,1.6-4.9,2.1s-3.9,0.8-6.2,0.8
				c-2.2,0-4.2-0.4-5.9-1.1c-1.8-0.7-3.3-1.7-4.5-2.9s-2.2-2.7-2.9-4.4c-0.7-1.7-1-3.5-1-5.5c0-2.4,0.5-4.5,1.4-6.5
				c1-1.9,2.3-3.6,3.9-5.2c1.6-1.5,3.6-2.9,5.8-4.1c2.2-1.2,4.5-2.2,7-3.2c2.5-0.9,5-1.8,7.6-2.5s5.2-1.4,7.7-2v-3.5
				c0-2.5-0.3-4.7-0.8-6.4s-1.2-3.2-2.2-4.2c-0.9-1.1-2.1-1.8-3.4-2.3s-2.8-0.7-4.5-0.7c-1.9,0-3.4,0.2-4.6,0.7s-2.1,1.1-2.8,1.9
				c-0.7,0.8-1.1,1.7-1.4,2.7c-0.2,1-0.4,2.1-0.4,3.1s-0.1,1.9-0.2,2.8c-0.2,0.9-0.4,1.7-0.9,2.4c-0.4,0.7-1,1.2-1.7,1.6
				c-0.7,0.4-1.6,0.6-2.7,0.6c-0.9,0-1.7-0.2-2.4-0.5c-0.7-0.3-1.3-0.8-1.8-1.4c-0.5-0.6-0.9-1.3-1.2-2.1c-0.3-0.8-0.4-1.7-0.4-2.6
				c0-1.8,0.6-3.5,1.8-5.1c1.2-1.6,2.8-3,4.9-4.1c2-1.2,4.4-2.1,7.2-2.8c2.7-0.7,5.6-1,8.6-1c3.7,0,6.8,0.4,9.3,1.1
				c2.5,0.7,4.6,1.7,6.1,3c1.6,1.3,2.7,2.8,3.4,4.7c0.7,1.8,1,3.9,1,6.1v42.1H1231.9z M1220.8,439.8c-1.6,0.5-3.2,1.1-5,1.8
				c-1.7,0.7-3.4,1.4-5,2.2s-3.2,1.7-4.7,2.6c-1.5,1-2.8,2-3.9,3c-1.1,1.1-2,2.2-2.7,3.4s-1,2.5-1,3.8c0,1.4,0.3,2.6,0.8,3.9
				c0.5,1.2,1.2,2.3,2,3.2s1.8,1.6,2.9,2.2c1.1,0.5,2.2,0.8,3.4,0.8c1.2,0,2.4-0.2,3.6-0.5c1.1-0.3,2.2-0.8,3.3-1.3
				c1.1-0.6,2.1-1.2,3.2-1.9s2.1-1.5,3.2-2.4v-20.8H1220.8z"/>
		</g>
		<g>
			<path d="M1257.7,426.7c3.4-3.8,6.9-6.6,10.5-8.5s7.3-2.8,11.1-2.8c1.9,0,3.8,0.4,5.5,1.3c1.7,0.9,3.2,2.1,4.5,3.6s2.3,3.3,3,5.4
				c0.7,2.1,1.1,4.3,1.1,6.6v40h-11.1v-38.2c0-3.7-0.8-6.5-2.5-8.4s-3.8-2.9-6.4-2.9c-1.2,0-2.4,0.2-3.7,0.6c-1.3,0.4-2.6,0.9-4,1.6
				c-1.4,0.7-2.7,1.6-4,2.5c-1.3,1-2.6,2.1-3.9,3.3v41.3h-11.1v-81.2l7.9-3.2h3.2L1257.7,426.7L1257.7,426.7z"/>
		</g>
		<g>
			<path d="M1312.3,388c0.9,0,1.7,0.1,2.5,0.4c0.8,0.3,1.5,0.7,2,1.2c0.6,0.5,1,1.1,1.4,1.8c0.3,0.7,0.5,1.4,0.5,2.2
				s-0.2,1.5-0.5,2.2s-0.8,1.3-1.4,1.8s-1.2,0.9-2,1.2s-1.6,0.4-2.5,0.4s-1.7-0.1-2.4-0.4c-0.8-0.3-1.4-0.7-2-1.2s-1-1.1-1.4-1.8
				c-0.3-0.7-0.5-1.4-0.5-2.2s0.2-1.5,0.5-2.2s0.8-1.3,1.4-1.8s1.2-0.9,2-1.2C1310.6,388.1,1311.4,388,1312.3,388z M1306.9,418.6
				l7.8-3.2h3.2v56.9h-11V418.6z"/>
		</g>
		<g>
			<path d="M1361.1,465.2c-1.5,2.6-3.5,4.6-5.9,6.1c-2.5,1.5-5.5,2.2-9.1,2.2c-1.9,0-3.5-0.3-4.9-0.9c-1.4-0.6-2.5-1.5-3.4-2.6
				s-1.6-2.5-2-4.1s-0.6-3.4-0.6-5.3v-39.3h-9.7v-2.8c3.1,0,5.7-0.6,7.7-1.7c2-1.1,3.7-2.6,4.9-4.6c1.3-1.9,2.3-4.1,3-6.7
				c0.7-2.5,1.4-5.2,1.9-8h3.2v19.1h12.5v4.7h-12.5v39.3c0,0.8,0.2,1.6,0.5,2.3s0.7,1.4,1.3,1.9c0.5,0.5,1.2,1,1.9,1.3
				c0.7,0.3,1.5,0.5,2.4,0.5c1.2,0,2.4-0.3,3.4-0.9c1-0.6,1.9-1.4,2.7-2.3L1361.1,465.2z"/>
		</g>
		<g>
			<path d="M1408.9,472.3h-11.1v-7.6c-1.3,1-2.6,2-3.9,3.1c-1.3,1-2.6,2-4.1,2.9s-3.1,1.6-4.9,2.1s-3.9,0.8-6.2,0.8
				c-2.2,0-4.2-0.4-5.9-1.1c-1.8-0.7-3.3-1.7-4.5-2.9s-2.2-2.7-2.9-4.4c-0.7-1.7-1-3.5-1-5.5c0-2.4,0.5-4.5,1.4-6.5
				c1-1.9,2.3-3.6,3.9-5.2c1.6-1.5,3.6-2.9,5.8-4.1c2.2-1.2,4.5-2.2,7-3.2c2.5-0.9,5-1.8,7.6-2.5s5.2-1.4,7.7-2v-3.5
				c0-2.5-0.3-4.7-0.8-6.4s-1.2-3.2-2.2-4.2c-0.9-1.1-2.1-1.8-3.4-2.3s-2.8-0.7-4.5-0.7c-1.9,0-3.4,0.2-4.6,0.7s-2.1,1.1-2.8,1.9
				c-0.7,0.8-1.1,1.7-1.4,2.7c-0.2,1-0.4,2.1-0.4,3.1s-0.1,1.9-0.2,2.8c-0.2,0.9-0.4,1.7-0.9,2.4c-0.4,0.7-1,1.2-1.7,1.6
				c-0.7,0.4-1.6,0.6-2.7,0.6c-0.9,0-1.7-0.2-2.4-0.5c-0.7-0.3-1.3-0.8-1.8-1.4c-0.5-0.6-0.9-1.3-1.2-2.1c-0.3-0.8-0.4-1.7-0.4-2.6
				c0-1.8,0.6-3.5,1.8-5.1c1.2-1.6,2.8-3,4.9-4.1c2-1.2,4.4-2.1,7.2-2.8c2.7-0.7,5.6-1,8.6-1c3.7,0,6.8,0.4,9.3,1.1
				c2.5,0.7,4.6,1.7,6.1,3c1.6,1.3,2.7,2.8,3.4,4.7c0.7,1.8,1,3.9,1,6.1v42.1H1408.9z M1397.7,439.8c-1.6,0.5-3.2,1.1-5,1.8
				c-1.7,0.7-3.4,1.4-5,2.2s-3.2,1.7-4.7,2.6c-1.5,1-2.8,2-3.9,3c-1.1,1.1-2,2.2-2.7,3.4s-1,2.5-1,3.8c0,1.4,0.3,2.6,0.8,3.9
				c0.5,1.2,1.2,2.3,2,3.2s1.8,1.6,2.9,2.2c1.1,0.5,2.2,0.8,3.4,0.8c1.2,0,2.4-0.2,3.6-0.5c1.1-0.3,2.2-0.8,3.3-1.3
				c1.1-0.6,2.1-1.2,3.2-1.9s2.1-1.5,3.2-2.4v-20.8H1397.7z"/>
		</g>
	</g>
	<g>
		<g>
			<path d="M551.1,135.7l-13,15.2h-6.7l9.4-15.2H551.1z"/>
		</g>
	</g>
	<g>
		<g>
			<path d="M348.1,2.7l-13,15.2h-6.7l9.4-15.2H348.1z"/>
		</g>
	</g>
</g>
</svg>
