<svg xmlns="http://www.w3.org/2000/svg" viewBox="0 0 222.36 93.86"><title>DIRECCION</title><g id="Layer_2" data-name="Layer 2"><g id="Layer_1-2" data-name="Layer 1"><path d="M4.57,81.46a12.28,12.28,0,0,0,.74,4.39,9.75,9.75,0,0,0,2,3.28,8.73,8.73,0,0,0,3,2.05,10.13,10.13,0,0,0,3.81.71,6,6,0,0,0,2.35-.48,9,9,0,0,0,2.12-1.23,10.49,10.49,0,0,0,1.74-1.72,12.15,12.15,0,0,0,1.27-1.94l1.63,1a15.38,15.38,0,0,1-1.69,2.25,11.32,11.32,0,0,1-2.26,1.91,12.13,12.13,0,0,1-2.91,1.33,12.28,12.28,0,0,1-3.62.5,14.59,14.59,0,0,1-3.62-.44,13.46,13.46,0,0,1-3.12-1.24A11.32,11.32,0,0,1,3.51,90a11.56,11.56,0,0,1-1.9-2.46A11.43,11.43,0,0,1,.42,84.63,11.94,11.94,0,0,1,0,81.46a11.67,11.67,0,0,1,.43-3.18,11.94,11.94,0,0,1,1.21-2.9,11.65,11.65,0,0,1,2-2.49,11.89,11.89,0,0,1,2.59-2,13.37,13.37,0,0,1,3.16-1.26A14.47,14.47,0,0,1,13,69.23a11.26,11.26,0,0,1,3.42.5,12.42,12.42,0,0,1,2.85,1.33A11.51,11.51,0,0,1,21.57,73a14.3,14.3,0,0,1,1.72,2.25l-1.68,1.14a11.76,11.76,0,0,0-3.27-4.14A6.82,6.82,0,0,0,14.2,70.9a9.82,9.82,0,0,0-3.77.73,9,9,0,0,0-3.06,2.11,10,10,0,0,0-2,3.32A12.19,12.19,0,0,0,4.57,81.46Z"/><path d="M40.49,93H36.92V90.55l-1.24,1a11.47,11.47,0,0,1-1.32.92,6.75,6.75,0,0,1-1.57.67,6.62,6.62,0,0,1-2,.26,5,5,0,0,1-1.9-.34,4.28,4.28,0,0,1-1.45-.94,4.09,4.09,0,0,1-.92-1.42,4.92,4.92,0,0,1-.32-1.77,4.57,4.57,0,0,1,.46-2.08,5.85,5.85,0,0,1,1.25-1.66,9.11,9.11,0,0,1,1.85-1.3,19.23,19.23,0,0,1,2.25-1c.79-.3,1.6-.56,2.44-.8s1.66-.45,2.46-.65V80.29a7.62,7.62,0,0,0-.24-2.06A3.55,3.55,0,0,0,36,76.87a2.62,2.62,0,0,0-1.09-.74,4.37,4.37,0,0,0-1.45-.22,3.84,3.84,0,0,0-1.47.23,2.36,2.36,0,0,0-.89.62,2.17,2.17,0,0,0-.44.87,4.21,4.21,0,0,0-.12,1,5.29,5.29,0,0,1-.07.9,2,2,0,0,1-.28.76,1.5,1.5,0,0,1-.54.52,1.66,1.66,0,0,1-.88.2,1.68,1.68,0,0,1-.75-.16,1.73,1.73,0,0,1-.6-.44,2.09,2.09,0,0,1-.38-.67,2.45,2.45,0,0,1-.13-.83,2.66,2.66,0,0,1,.58-1.65,5.06,5.06,0,0,1,1.57-1.33,8.75,8.75,0,0,1,2.3-.88,11.36,11.36,0,0,1,2.77-.33,11.61,11.61,0,0,1,3,.34,5.41,5.41,0,0,1,2,1,3.49,3.49,0,0,1,1.08,1.5,5.56,5.56,0,0,1,.33,2ZM36.92,82.56q-.77.25-1.59.57c-.55.21-1.09.45-1.62.71a14.71,14.71,0,0,0-1.51.85,8.08,8.08,0,0,0-1.26,1,4.39,4.39,0,0,0-.86,1.1A2.52,2.52,0,0,0,29.77,88,3.3,3.3,0,0,0,30,89.23a3.38,3.38,0,0,0,.64,1,3,3,0,0,0,.93.7,2.33,2.33,0,0,0,1.09.26,3.88,3.88,0,0,0,1.14-.16,5.23,5.23,0,0,0,1-.42,9.39,9.39,0,0,0,1-.63c.34-.24.69-.49,1-.76Z"/><path d="M49,93H45.42V66.93l2.53-1h1Z"/><path d="M57,93H53.48V66.93l2.53-1h1Z"/><path d="M69.31,93.39a8.65,8.65,0,0,1-3.41-.68,9.09,9.09,0,0,1-2.79-1.86,8.83,8.83,0,0,1-1.88-2.76,8.14,8.14,0,0,1-.7-3.37,11.93,11.93,0,0,1,.64-4A9.42,9.42,0,0,1,63,77.56a8.19,8.19,0,0,1,2.78-2.09,8.51,8.51,0,0,1,3.61-.75,8.32,8.32,0,0,1,3.24.62A7.73,7.73,0,0,1,75.1,77a7.5,7.5,0,0,1,1.63,2.41,7.23,7.23,0,0,1,.59,2.87H64a11.47,11.47,0,0,0,.47,3.34,8.74,8.74,0,0,0,1.3,2.67,6.4,6.4,0,0,0,2,1.75,5.3,5.3,0,0,0,2.56.63,6.65,6.65,0,0,0,2.23-.37,7.88,7.88,0,0,0,1.94-1,6.33,6.33,0,0,0,1.47-1.4,4.85,4.85,0,0,0,.86-1.63l1,.45a8.19,8.19,0,0,1-1.24,2.6,10,10,0,0,1-2,2.11,9.76,9.76,0,0,1-2.51,1.43A7.52,7.52,0,0,1,69.31,93.39Zm3.55-12.55A4.93,4.93,0,0,0,72.5,79a4.57,4.57,0,0,0-1-1.52,4.7,4.7,0,0,0-1.47-1,4.53,4.53,0,0,0-1.81-.36,3.48,3.48,0,0,0-1.54.36,4.43,4.43,0,0,0-1.32,1,5.62,5.62,0,0,0-.95,1.51,6.23,6.23,0,0,0-.46,1.9Z"/><path d="M106.77,70.38l-8.5,23.18H96l7.64-20.92H91.43l1.32-2.87h14Z"/><path d="M118.6,93.56a7,7,0,0,1-3.52-.91,8.38,8.38,0,0,1-2.7-2.55,12.63,12.63,0,0,1-1.74-3.89,18.89,18.89,0,0,1-.62-5,17.13,17.13,0,0,1,.62-4.65,12.76,12.76,0,0,1,1.74-3.82,8.86,8.86,0,0,1,2.7-2.59,7,7,0,0,1,7,0,8.86,8.86,0,0,1,2.7,2.59,12.76,12.76,0,0,1,1.74,3.82,16.74,16.74,0,0,1,.62,4.65,18.48,18.48,0,0,1-.62,5,12.63,12.63,0,0,1-1.74,3.89,8.38,8.38,0,0,1-2.7,2.55A7,7,0,0,1,118.6,93.56Zm0-1.17A2.57,2.57,0,0,0,120,92a4.09,4.09,0,0,0,1.18-1.17,8,8,0,0,0,.91-1.78,16.52,16.52,0,0,0,.64-2.27,22.33,22.33,0,0,0,.38-2.64c.09-.93.13-1.89.13-2.87a29.25,29.25,0,0,0-.29-4.17,15.76,15.76,0,0,0-.86-3.46,6.84,6.84,0,0,0-1.46-2.36,2.87,2.87,0,0,0-4.12,0,6.7,6.7,0,0,0-1.46,2.36,16.35,16.35,0,0,0-.86,3.46,30.83,30.83,0,0,0-.28,4.17c0,1,0,1.94.13,2.87a22.33,22.33,0,0,0,.38,2.64,16.52,16.52,0,0,0,.64,2.27,8.45,8.45,0,0,0,.9,1.78A4.07,4.07,0,0,0,117.16,92,2.61,2.61,0,0,0,118.6,92.39Z"/><path d="M133.4,77.91l1.73-8.14h1.79l-1.76,8.14H141l1.75-8.14h1.74l-1.7,8.14h3v1.3h-3.32L141.25,85h4.54v1.3H141l-1.63,7.58h-1.77l1.63-7.58h-5.8l-1.66,7.58H130l1.66-7.54h-3V85h3.28l1.22-5.77h-4.5v-1.3Zm.26,7.07h5.81l1.23-5.77h-5.8Z"/><path d="M158.07,92.94a11.34,11.34,0,0,0,3.82-1,13.91,13.91,0,0,0,3.39-2.23,14.24,14.24,0,0,0,2.64-3.13,12.15,12.15,0,0,0,1.55-3.73q-.58.35-1.17.66a8.57,8.57,0,0,1-1.23.56,8.44,8.44,0,0,1-1.4.38,9,9,0,0,1-1.61.13,6,6,0,0,1-2.73-.61,6.22,6.22,0,0,1-2.07-1.61A7,7,0,0,1,158,80a7.92,7.92,0,0,1-.46-2.69,7.74,7.74,0,0,1,.64-3.14,8.26,8.26,0,0,1,1.76-2.58,8.36,8.36,0,0,1,2.62-1.73,8,8,0,0,1,3.2-.64,7.19,7.19,0,0,1,3.21.73,8.45,8.45,0,0,1,2.63,2,9.6,9.6,0,0,1,1.78,2.95,9.85,9.85,0,0,1,.66,3.61,14.06,14.06,0,0,1-.57,4,14.34,14.34,0,0,1-1.61,3.59,15.11,15.11,0,0,1-2.49,3,16,16,0,0,1-3.22,2.36A16.77,16.77,0,0,1,162.29,93a16.33,16.33,0,0,1-4.22.54Zm11.7-11.44c.08-.51.15-1.06.21-1.67s.09-1.22.09-1.82a11.17,11.17,0,0,0-.38-2.94,9,9,0,0,0-1.06-2.43A5.62,5.62,0,0,0,167.07,71a3.45,3.45,0,0,0-1.94-.61,3.35,3.35,0,0,0-1.84.49A3.86,3.86,0,0,0,162,72.13a5.72,5.72,0,0,0-.73,1.75,8.24,8.24,0,0,0-.23,2,14.08,14.08,0,0,0,.27,2.85,7.13,7.13,0,0,0,.86,2.25,4.22,4.22,0,0,0,1.49,1.48,4.18,4.18,0,0,0,2.15.52,5.38,5.38,0,0,0,1-.11,8.34,8.34,0,0,0,1.08-.32,6.66,6.66,0,0,0,1-.47A4.41,4.41,0,0,0,169.77,81.5Z"/><path d="M185.05,83.61v2.06h-8.54V83.61Z"/><path d="M203.36,69.83a11.79,11.79,0,0,0-4,1.09,13.6,13.6,0,0,0-3.43,2.31,14.14,14.14,0,0,0-2.6,3.21,12.79,12.79,0,0,0-1.53,3.79q.57-.41,1.17-.75a9.85,9.85,0,0,1,1.27-.59,10.09,10.09,0,0,1,1.44-.4,8.4,8.4,0,0,1,1.64-.15,6.45,6.45,0,0,1,2.63.55,7.05,7.05,0,0,1,2.15,1.5,6.71,6.71,0,0,1,1.46,2.21,6.84,6.84,0,0,1,.54,2.72,7.87,7.87,0,0,1-.66,3.2,8.53,8.53,0,0,1-1.79,2.62A8.7,8.7,0,0,1,199,92.91a8,8,0,0,1-3.2.65,7.6,7.6,0,0,1-3.34-.73,7.93,7.93,0,0,1-2.61-2,9.23,9.23,0,0,1-1.7-2.95,10.39,10.39,0,0,1-.61-3.6,15.28,15.28,0,0,1,.51-4,15,15,0,0,1,1.47-3.58,15.29,15.29,0,0,1,2.33-3.06A14.2,14.2,0,0,1,195,71.33a15.9,15.9,0,0,1,3.86-1.55,17.79,17.79,0,0,1,4.48-.55Zm-11.6,11.41c-.09.53-.16,1.06-.21,1.61s-.07,1.07-.07,1.58a14.84,14.84,0,0,0,.29,3,8.84,8.84,0,0,0,.89,2.54,5.14,5.14,0,0,0,1.51,1.74,3.62,3.62,0,0,0,2.14.65,3.23,3.23,0,0,0,1.63-.43,4.37,4.37,0,0,0,1.33-1.18,5.83,5.83,0,0,0,.89-1.74,6.88,6.88,0,0,0,.33-2.16,9.39,9.39,0,0,0-.4-2.73A7.74,7.74,0,0,0,199,81.91a5.29,5.29,0,0,0-1.56-1.5,3.53,3.53,0,0,0-1.91-.55,4.43,4.43,0,0,0-.91.1,7.61,7.61,0,0,0-1,.28,8.07,8.07,0,0,0-1,.45A8.26,8.26,0,0,0,191.76,81.24Z"/><path d="M211.8,80.91a9.13,9.13,0,0,0,2.42-.6,6.42,6.42,0,0,0,1.89-1.17,5,5,0,0,0,1.23-1.67,5,5,0,0,0,.43-2.1,3.52,3.52,0,0,0-1.15-2.62A4.12,4.12,0,0,0,215.3,72a4.85,4.85,0,0,0-1.7-.29,4.63,4.63,0,0,0-1.37.23,5.86,5.86,0,0,0-1.37.63,6.85,6.85,0,0,0-1.22.92,4.76,4.76,0,0,0-.91,1.13l-.69-.27a8.77,8.77,0,0,1,1-2,7.12,7.12,0,0,1,1.49-1.61,6.82,6.82,0,0,1,2-1.1,7.7,7.7,0,0,1,4.84,0,6.25,6.25,0,0,1,1.93,1,5,5,0,0,1,1.31,1.56,4.08,4.08,0,0,1,.48,2,3.29,3.29,0,0,1-.27,1.21,7.14,7.14,0,0,1-.76,1.35A10.5,10.5,0,0,1,218.91,78a10.77,10.77,0,0,1-1.36,1.17,6.23,6.23,0,0,1,1.88.93A7.07,7.07,0,0,1,221,81.6a7.56,7.56,0,0,1,1,1.81,5.35,5.35,0,0,1,.38,1.94,7.59,7.59,0,0,1-.81,3.6,7.23,7.23,0,0,1-2.23,2.56A9.84,9.84,0,0,1,216,93.05a16.32,16.32,0,0,1-4.17.51,9.57,9.57,0,0,1-1.7-.14,5.89,5.89,0,0,1-1.28-.39,2.27,2.27,0,0,1-.81-.61,1.19,1.19,0,0,1-.28-.78,1,1,0,0,1,.18-.62,1.41,1.41,0,0,1,.47-.4,2.1,2.1,0,0,1,.61-.21,3,3,0,0,1,.64-.07,4.21,4.21,0,0,1,1.07.12,4.94,4.94,0,0,1,.8.31c.23.12.45.26.65.39s.41.27.63.4a4.57,4.57,0,0,0,.74.31,3.55,3.55,0,0,0,1,.12,5.27,5.27,0,0,0,2.14-.4,4.61,4.61,0,0,0,1.56-1.07,4.22,4.22,0,0,0,1-1.53,5.1,5.1,0,0,0,.33-1.82,5.41,5.41,0,0,0-.46-2.24,4.84,4.84,0,0,0-1.41-1.79,6.91,6.91,0,0,0-2.4-1.19,12.4,12.4,0,0,0-3.42-.42Z"/><path d="M132,20.11a26.5,26.5,0,0,1-2.74,11.19,83,83,0,0,1-14.75,21.88,4.34,4.34,0,0,1-6.61.14c-6-6.57-11.28-13.68-14.91-21.88a28.19,28.19,0,0,1-2.65-9.65A19.89,19.89,0,0,1,94,9a20.8,20.8,0,0,1,29-5.24A20.28,20.28,0,0,1,132,20.11Zm-20.94-7.79a8.39,8.39,0,0,0-8.49,8.48A8.48,8.48,0,0,0,111,29.48a8.62,8.62,0,0,0,8.74-8.63A8.54,8.54,0,0,0,111.09,12.32Z"/></g></g></svg>