<svg xmlns="http://www.w3.org/2000/svg" viewBox="0 0 229.57 100.68"><title>INSTAGRAM</title><g id="Layer_2" data-name="Layer 2"><g id="Layer_1-2" data-name="Layer 1"><path d="M9.48,92.81a9.85,9.85,0,0,1-3.8-.72,9.37,9.37,0,0,1-3-2A9,9,0,0,1,0,83.7,9.83,9.83,0,0,1,.71,80a9.15,9.15,0,0,1,5-5.08,9.51,9.51,0,0,1,3.8-.75,10.16,10.16,0,0,1,3.78.68,9.26,9.26,0,0,1,3,1.88,8.49,8.49,0,0,1,2.69,6.24,10.44,10.44,0,0,1-.71,3.84,9.59,9.59,0,0,1-2,3.13,9.24,9.24,0,0,1-3,2.12A9.13,9.13,0,0,1,9.48,92.81Zm.66-1.32A3.6,3.6,0,0,0,12.07,91a5.27,5.27,0,0,0,1.52-1.46,6.8,6.8,0,0,0,1-2.12,9.07,9.07,0,0,0,.35-2.57,19.13,19.13,0,0,0-.33-3.65,9.28,9.28,0,0,0-1.09-3,5.56,5.56,0,0,0-1.95-2,5.54,5.54,0,0,0-3-.73A3.23,3.23,0,0,0,6.87,76,5.19,5.19,0,0,0,5.4,77.41a7.61,7.61,0,0,0-1,2.1A8.5,8.5,0,0,0,4,82.06a15.93,15.93,0,0,0,.41,3.67,10.18,10.18,0,0,0,1.21,3,6.23,6.23,0,0,0,1.93,2A4.75,4.75,0,0,0,10.14,91.49Z"/><path d="M26.08,92.42H22.52V66.34l2.54-1h1Z"/><path d="M48.2,75.44v1.48H44.8a6.43,6.43,0,0,1,.85,1.65A5.48,5.48,0,0,1,46,80.38a5.28,5.28,0,0,1-.62,2.54,6.08,6.08,0,0,1-1.72,2A8.16,8.16,0,0,1,41,86.17a11.87,11.87,0,0,1-3.36.45,8.4,8.4,0,0,1-1.38-.12A8.92,8.92,0,0,1,35,86.22a3.77,3.77,0,0,0-.87,1,2.1,2.1,0,0,0-.35,1.12,1,1,0,0,0,.59.87,3.81,3.81,0,0,0,1.66.37l6.64.28a11.48,11.48,0,0,1,2.65.37,4.93,4.93,0,0,1,1.69.82,2.75,2.75,0,0,1,.89,1.23,4.48,4.48,0,0,1,.26,1.58,5.63,5.63,0,0,1-.72,2.84,6.3,6.3,0,0,1-2.11,2.16A10.62,10.62,0,0,1,42,100.2a18.88,18.88,0,0,1-4.46.48,16.68,16.68,0,0,1-6.63-1C29.48,99,28.75,98.13,28.75,97a3,3,0,0,1,.36-1.42,6.4,6.4,0,0,1,.95-1.31,12.13,12.13,0,0,1,1.27-1.2c.47-.39.93-.75,1.39-1.11a5.15,5.15,0,0,1-.93-.37,3.32,3.32,0,0,1-.73-.49,2.12,2.12,0,0,1-.49-.6,1.35,1.35,0,0,1-.19-.71,2.56,2.56,0,0,1,.29-1.13,4.88,4.88,0,0,1,.78-1.11,6.56,6.56,0,0,1,1.16-1A6.73,6.73,0,0,1,34,85.88a6.63,6.63,0,0,1-2.84-2.14,5.16,5.16,0,0,1-1-3.16,5.45,5.45,0,0,1,.6-2.5,6.7,6.7,0,0,1,1.67-2A8.23,8.23,0,0,1,35,74.64a9.44,9.44,0,0,1,3.09-.5,12.12,12.12,0,0,1,1.59.1,14,14,0,0,1,1.46.29,6.73,6.73,0,0,1,1.2.41,2.75,2.75,0,0,1,.81.5ZM33.82,92.27a4.17,4.17,0,0,0-1.21,1.45,4.54,4.54,0,0,0-.32.81,3.18,3.18,0,0,0-.11.78,1.89,1.89,0,0,0,.43,1.15,3.55,3.55,0,0,0,1.27,1A8.46,8.46,0,0,0,36,98.1a15.92,15.92,0,0,0,2.95.25,16.42,16.42,0,0,0,3.21-.29,10.63,10.63,0,0,0,2.4-.75,4.87,4.87,0,0,0,1.5-1,1.78,1.78,0,0,0,.52-1.16,1.82,1.82,0,0,0-1.2-1.75,7.85,7.85,0,0,0-3.26-.55c-.85,0-1.72,0-2.6-.06s-1.7-.09-2.46-.14l-2-.18C34.47,92.37,34.06,92.32,33.82,92.27Zm4.44-6.59a3.25,3.25,0,0,0,1.45-.34,3.88,3.88,0,0,0,1.23-.94A4.84,4.84,0,0,0,41.8,83a4.69,4.69,0,0,0,.31-1.72,8,8,0,0,0-.36-2.45,6.77,6.77,0,0,0-1-2,4.83,4.83,0,0,0-1.44-1.31,3.43,3.43,0,0,0-1.73-.47,3.1,3.1,0,0,0-1.56.37,3.15,3.15,0,0,0-1.09,1A4.59,4.59,0,0,0,34.34,78a8.29,8.29,0,0,0-.2,1.91,8.18,8.18,0,0,0,.3,2.26A6,6,0,0,0,35.28,84a4.08,4.08,0,0,0,1.3,1.22A3.34,3.34,0,0,0,38.26,85.68Z"/><path d="M64.74,92.42H61.17V90c-.43.32-.84.65-1.25,1a9.1,9.1,0,0,1-1.32.92,6.88,6.88,0,0,1-1.56.68,7.08,7.08,0,0,1-2,.26,5,5,0,0,1-1.9-.35,4.13,4.13,0,0,1-1.45-.94,4,4,0,0,1-.92-1.42,4.84,4.84,0,0,1-.32-1.77,4.66,4.66,0,0,1,.46-2.07,5.9,5.9,0,0,1,1.25-1.66A8.55,8.55,0,0,1,54,83.3a18.36,18.36,0,0,1,2.24-1c.79-.3,1.61-.57,2.45-.8s1.66-.45,2.46-.65V79.71a7.21,7.21,0,0,0-.25-2.06,3.48,3.48,0,0,0-.69-1.36,2.47,2.47,0,0,0-1.09-.74,4.35,4.35,0,0,0-1.44-.23,4,4,0,0,0-1.47.23,2.44,2.44,0,0,0-.9.62,2.21,2.21,0,0,0-.44.88,4.17,4.17,0,0,0-.11,1,5.29,5.29,0,0,1-.08.9,2.21,2.21,0,0,1-.27.76,1.64,1.64,0,0,1-.55.53,1.75,1.75,0,0,1-.87.2,1.88,1.88,0,0,1-.76-.16,1.75,1.75,0,0,1-.59-.45,1.89,1.89,0,0,1-.39-.66,2.55,2.55,0,0,1-.13-.84,2.66,2.66,0,0,1,.58-1.65,5.2,5.2,0,0,1,1.57-1.33,9.26,9.26,0,0,1,2.3-.88,11.42,11.42,0,0,1,2.77-.32,11.14,11.14,0,0,1,3,.34,5.41,5.41,0,0,1,2,1,3.49,3.49,0,0,1,1.08,1.5,5.33,5.33,0,0,1,.34,2ZM61.17,82c-.52.16-1.05.35-1.6.57s-1.09.44-1.62.7-1,.55-1.51.85a10,10,0,0,0-1.26,1,4.52,4.52,0,0,0-.85,1.1A2.45,2.45,0,0,0,54,87.4a3.26,3.26,0,0,0,.24,1.24,3.64,3.64,0,0,0,.64,1,3.16,3.16,0,0,0,.93.7,2.46,2.46,0,0,0,1.09.26,4.24,4.24,0,0,0,1.14-.16,5.74,5.74,0,0,0,1.06-.43,8.61,8.61,0,0,0,1-.62l1.05-.76Z"/><path d="M71.24,89.29a1.86,1.86,0,0,1,.75.14,1.94,1.94,0,0,1,.6.39,2,2,0,0,1,.41.58,1.83,1.83,0,0,1,0,1.45,2,2,0,0,1-.41.59,1.94,1.94,0,0,1-.6.39,1.86,1.86,0,0,1-.75.14,1.92,1.92,0,0,1-.75-.14,1.87,1.87,0,0,1-.61-.39,2,2,0,0,1-.4-.59,1.83,1.83,0,0,1,0-1.45,1.94,1.94,0,0,1,.4-.58,1.87,1.87,0,0,1,.61-.39A1.92,1.92,0,0,1,71.24,89.29Z"/><path d="M77.15,74.5H80.7v3.66c.36-.46.76-.92,1.2-1.4a10.05,10.05,0,0,1,1.46-1.29,7.66,7.66,0,0,1,1.76-1,5.74,5.74,0,0,1,2.11-.37,6.26,6.26,0,0,1,2.88.66,6.84,6.84,0,0,1,2.22,1.81,8.48,8.48,0,0,1,1.42,2.68,10.27,10.27,0,0,1,.5,3.27,13.11,13.11,0,0,1-.61,4.1,9.91,9.91,0,0,1-1.76,3.24A7.79,7.79,0,0,1,89.13,92a8.41,8.41,0,0,1-3.64.77,11.67,11.67,0,0,1-1.38-.08,8.66,8.66,0,0,1-1.21-.23,6.67,6.67,0,0,1-1.11-.41,10.81,10.81,0,0,1-1.09-.6V100H77.15ZM80.7,87.58a3.46,3.46,0,0,0,.35,1.52,3.86,3.86,0,0,0,1,1.25,4.92,4.92,0,0,0,1.52.83,6,6,0,0,0,1.93.31A3.66,3.66,0,0,0,87.37,91a4.85,4.85,0,0,0,1.53-1.44,7.53,7.53,0,0,0,1-2.23,10.31,10.31,0,0,0,.37-2.88A14.75,14.75,0,0,0,90,81a7.75,7.75,0,0,0-1-2.46A4.24,4.24,0,0,0,87.51,77a3.75,3.75,0,0,0-1.87-.48,4.61,4.61,0,0,0-1.49.24,6.11,6.11,0,0,0-1.34.64,7.31,7.31,0,0,0-1.15.93,8.82,8.82,0,0,0-1,1.09Z"/><path d="M99.49,65.33a2.09,2.09,0,0,1,.79.14,2,2,0,0,1,.65.38,1.78,1.78,0,0,1,.45.57,1.52,1.52,0,0,1,.16.69,1.46,1.46,0,0,1-.16.69,1.78,1.78,0,0,1-.45.57,2,2,0,0,1-.65.38,2.09,2.09,0,0,1-.79.15,2,2,0,0,1-.78-.15,2.1,2.1,0,0,1-.65-.38,1.89,1.89,0,0,1-.44-.57,1.46,1.46,0,0,1-.16-.69,1.52,1.52,0,0,1,.16-.69,1.89,1.89,0,0,1,.44-.57,2.1,2.1,0,0,1,.65-.38A2,2,0,0,1,99.49,65.33Zm-1.73,9.82,2.5-1h1V92.42H97.76Z"/><path d="M113.57,92.81a8.48,8.48,0,0,1-3.41-.69,8.78,8.78,0,0,1-4.67-4.61,8.34,8.34,0,0,1-.69-3.38,12.23,12.23,0,0,1,.63-4A9.54,9.54,0,0,1,107.22,77,8,8,0,0,1,110,74.89a8.56,8.56,0,0,1,3.62-.75,8.26,8.26,0,0,1,3.23.61,7.9,7.9,0,0,1,2.52,1.66A7.64,7.64,0,0,1,121,78.82a7.25,7.25,0,0,1,.58,2.87H108.22a11.55,11.55,0,0,0,.46,3.35A8.58,8.58,0,0,0,110,87.7a6,6,0,0,0,2,1.75,5.19,5.19,0,0,0,2.55.64,6.71,6.71,0,0,0,2.24-.38,8.14,8.14,0,0,0,1.93-1,6.86,6.86,0,0,0,1.48-1.41,5.09,5.09,0,0,0,.86-1.62l1,.45a8.16,8.16,0,0,1-1.25,2.59,10,10,0,0,1-2,2.11,9.7,9.7,0,0,1-2.5,1.43A7.59,7.59,0,0,1,113.57,92.81Zm3.56-12.55a4.89,4.89,0,0,0-.36-1.89,4.55,4.55,0,0,0-1-1.52,4.39,4.39,0,0,0-1.46-1,4.44,4.44,0,0,0-1.81-.37,3.4,3.4,0,0,0-1.55.37,4.52,4.52,0,0,0-1.32,1,5.32,5.32,0,0,0-1,1.51,6.09,6.09,0,0,0-.46,1.89Z"/><path d="M138.08,90.67a8.81,8.81,0,0,1-1.33.89,10.45,10.45,0,0,1-1.49.67,11.08,11.08,0,0,1-1.57.43,8.38,8.38,0,0,1-1.55.15,6.22,6.22,0,0,1-3-.74,7.85,7.85,0,0,1-2.4-2,10,10,0,0,1-1.62-2.91,10.34,10.34,0,0,1-.59-3.48,8.56,8.56,0,0,1,.34-2.41,10.55,10.55,0,0,1,1-2.24,10.35,10.35,0,0,1,1.47-2,9.87,9.87,0,0,1,1.91-1.56,9.68,9.68,0,0,1,2.24-1,8.64,8.64,0,0,1,2.5-.36,5.47,5.47,0,0,1,2.29.45,7.44,7.44,0,0,1,1.81,1.21V66.34l2.49-1h1.05V92.81h-3.54Zm0-10.48a4.64,4.64,0,0,0-.39-1.92,4.74,4.74,0,0,0-1-1.5,4.9,4.9,0,0,0-1.44-1,4,4,0,0,0-1.62-.34,4,4,0,0,0-2,.53A5.31,5.31,0,0,0,130,77.49a7.32,7.32,0,0,0-1.09,2.28,9.89,9.89,0,0,0-.4,2.91,11,11,0,0,0,.44,3.19,9,9,0,0,0,1.21,2.61A6.19,6.19,0,0,0,132,90.23a4.08,4.08,0,0,0,2.2.64,4.31,4.31,0,0,0,1.12-.15,5.48,5.48,0,0,0,1.07-.4,6.62,6.62,0,0,0,1-.58,5.41,5.41,0,0,0,.78-.71Z"/><path d="M145.79,74.5h3.54v3.39a15.44,15.44,0,0,1,1.12-1.44,10,10,0,0,1,1.25-1.2,6.06,6.06,0,0,1,1.34-.81,3.5,3.5,0,0,1,1.41-.3,3.23,3.23,0,0,1,1.09.17,3,3,0,0,1,.87.47,2.12,2.12,0,0,1,.59.68,1.64,1.64,0,0,1,.22.83,1.6,1.6,0,0,1-.54,1.31,2.36,2.36,0,0,1-1.51.44,3.12,3.12,0,0,1-1-.12,4.37,4.37,0,0,1-.65-.29c-.2-.1-.39-.2-.59-.28a1.83,1.83,0,0,0-.75-.13,1.38,1.38,0,0,0-.71.21,3.12,3.12,0,0,0-.72.59,8.74,8.74,0,0,0-.73.88c-.24.34-.49.71-.73,1.11V92.42h-3.54Z"/><path d="M172.7,92.42h-3.57V90c-.42.32-.83.65-1.24,1a9.68,9.68,0,0,1-1.32.92,6.77,6.77,0,0,1-1.57.68,7,7,0,0,1-2,.26,5,5,0,0,1-1.9-.35,4.13,4.13,0,0,1-1.45-.94,4,4,0,0,1-.92-1.42,4.84,4.84,0,0,1-.32-1.77,4.66,4.66,0,0,1,.46-2.07,5.72,5.72,0,0,1,1.25-1.66A8.73,8.73,0,0,1,162,83.3a19.23,19.23,0,0,1,2.25-1c.79-.3,1.6-.57,2.44-.8s1.66-.45,2.46-.65V79.71a7.62,7.62,0,0,0-.24-2.06,3.48,3.48,0,0,0-.69-1.36,2.47,2.47,0,0,0-1.09-.74,4.37,4.37,0,0,0-1.45-.23,4,4,0,0,0-1.46.23,2.44,2.44,0,0,0-.9.62,2.21,2.21,0,0,0-.44.88,4.19,4.19,0,0,0-.12,1,5.29,5.29,0,0,1-.07.9,2,2,0,0,1-.28.76,1.52,1.52,0,0,1-.54.53,1.75,1.75,0,0,1-.87.2,1.84,1.84,0,0,1-.76-.16,1.89,1.89,0,0,1-.6-.45,2,2,0,0,1-.38-.66,2.55,2.55,0,0,1-.13-.84,2.66,2.66,0,0,1,.58-1.65,5.2,5.2,0,0,1,1.57-1.33,9.26,9.26,0,0,1,2.3-.88,11.36,11.36,0,0,1,2.77-.32,11.14,11.14,0,0,1,3,.34,5.41,5.41,0,0,1,2,1,3.49,3.49,0,0,1,1.08,1.5,5.54,5.54,0,0,1,.33,2ZM169.13,82q-.76.24-1.59.57c-.55.21-1.09.44-1.62.7s-1,.55-1.51.85a8.73,8.73,0,0,0-1.26,1,4.57,4.57,0,0,0-.86,1.1A2.54,2.54,0,0,0,162,87.4a3.26,3.26,0,0,0,.24,1.24,3.43,3.43,0,0,0,.64,1,3.16,3.16,0,0,0,.93.7,2.46,2.46,0,0,0,1.09.26,4.24,4.24,0,0,0,1.14-.16,5.94,5.94,0,0,0,1-.43,8,8,0,0,0,1-.62l1-.76Z"/><path d="M181,77.77a12,12,0,0,1,3.37-2.72,7.64,7.64,0,0,1,3.57-.91,3.88,3.88,0,0,1,1.77.42,4.54,4.54,0,0,1,1.43,1.16,5.48,5.48,0,0,1,1,1.73,6.35,6.35,0,0,1,.35,2.11V92.42h-3.55V80.16a4,4,0,0,0-.8-2.69,2.64,2.64,0,0,0-2.07-.91,4.49,4.49,0,0,0-1.21.18,7.17,7.17,0,0,0-1.28.52,9.59,9.59,0,0,0-1.29.82A12.31,12.31,0,0,0,181,79.14V92.42h-3.55V66.34l2.54-1h1Z"/><path d="M198.53,65.33a2.18,2.18,0,0,1,.8.14,2.1,2.1,0,0,1,.65.38,1.89,1.89,0,0,1,.44.57,1.53,1.53,0,0,1,.17.69,1.47,1.47,0,0,1-.17.69,1.89,1.89,0,0,1-.44.57,2.1,2.1,0,0,1-.65.38,2.18,2.18,0,0,1-.8.15,2,2,0,0,1-.78-.15,2,2,0,0,1-1.09-1,1.46,1.46,0,0,1-.16-.69,1.52,1.52,0,0,1,.16-.69,2,2,0,0,1,1.09-1A2,2,0,0,1,198.53,65.33Zm-1.73,9.82,2.5-1h1V92.42H196.8Z"/><path d="M214.22,90.14a5.25,5.25,0,0,1-4.83,2.67,3.74,3.74,0,0,1-1.56-.3,3,3,0,0,1-1.09-.86,3.57,3.57,0,0,1-.64-1.31,6.43,6.43,0,0,1-.21-1.7V76h-3.1v-.88a5,5,0,0,0,2.47-.54,4.54,4.54,0,0,0,1.58-1.47,7.63,7.63,0,0,0,1-2.14c.23-.82.44-1.68.62-2.59h1V74.5h4V76h-4V88.64a1.93,1.93,0,0,0,.15.75A2.11,2.11,0,0,0,210,90a2,2,0,0,0,.62.4,1.94,1.94,0,0,0,.76.15,2,2,0,0,0,1.09-.29,3.14,3.14,0,0,0,.86-.72Z"/><path d="M229.57,92.42H226V90c-.43.32-.84.65-1.25,1a9.58,9.58,0,0,1-1.31.92,7.16,7.16,0,0,1-1.57.68,7.08,7.08,0,0,1-2,.26,5,5,0,0,1-1.9-.35,4.13,4.13,0,0,1-1.45-.94,4,4,0,0,1-.92-1.42,4.84,4.84,0,0,1-.32-1.77,4.66,4.66,0,0,1,.46-2.07A5.75,5.75,0,0,1,217,84.6a8.25,8.25,0,0,1,1.85-1.3,18.36,18.36,0,0,1,2.24-1c.79-.3,1.61-.57,2.45-.8s1.66-.45,2.46-.65V79.71a7.21,7.21,0,0,0-.25-2.06,3.48,3.48,0,0,0-.69-1.36,2.47,2.47,0,0,0-1.09-.74,4.35,4.35,0,0,0-1.44-.23,4,4,0,0,0-1.47.23,2.32,2.32,0,0,0-.89.62,2.11,2.11,0,0,0-.45.88,4.17,4.17,0,0,0-.11,1,5.29,5.29,0,0,1-.08.9,2.21,2.21,0,0,1-.27.76,1.64,1.64,0,0,1-.55.53,1.72,1.72,0,0,1-.87.2,1.88,1.88,0,0,1-.76-.16,1.75,1.75,0,0,1-.59-.45,1.89,1.89,0,0,1-.39-.66,2.55,2.55,0,0,1-.13-.84,2.66,2.66,0,0,1,.58-1.65,5.2,5.2,0,0,1,1.57-1.33,9.26,9.26,0,0,1,2.3-.88,11.42,11.42,0,0,1,2.77-.32,11.14,11.14,0,0,1,3,.34,5.41,5.41,0,0,1,2,1,3.49,3.49,0,0,1,1.08,1.5,5.33,5.33,0,0,1,.34,2ZM226,82c-.52.16-1.05.35-1.6.57s-1.09.44-1.62.7-1,.55-1.51.85a10,10,0,0,0-1.26,1,4.52,4.52,0,0,0-.85,1.1,2.45,2.45,0,0,0-.32,1.22,3.26,3.26,0,0,0,.24,1.24,3.64,3.64,0,0,0,.64,1,3.16,3.16,0,0,0,.93.7,2.46,2.46,0,0,0,1.09.26,4.24,4.24,0,0,0,1.14-.16,5.74,5.74,0,0,0,1.06-.43,8.61,8.61,0,0,0,1-.62l1.05-.76Z"/><path d="M88,26.77c.07-3.78.12-7.54.24-11.31a18.61,18.61,0,0,1,1.38-6.61A13.67,13.67,0,0,1,93.9,3.26,15,15,0,0,1,100.53.49,41.73,41.73,0,0,1,107.67,0q7.15,0,14.3,0a46,46,0,0,1,6.74.4,14.7,14.7,0,0,1,7.86,3.52A14.13,14.13,0,0,1,141,11.83a23.93,23.93,0,0,1,.51,4.77c.06,4.93.11,9.86.11,14.8q0,3.38-.17,6.75a17.8,17.8,0,0,1-1.73,7.34A13.55,13.55,0,0,1,134.8,51a15.53,15.53,0,0,1-6.56,2.26,76.84,76.84,0,0,1-9.23.37c-3.6,0-7.2,0-10.8,0-2.09,0-4.19-.11-6.28-.28a15.2,15.2,0,0,1-7.14-2.35,13.55,13.55,0,0,1-5.42-6.7,18.88,18.88,0,0,1-1.18-6.11C88.07,34.34,88,30.55,88,26.77Zm26.87,22c3.39-.05,6.77-.07,10.16-.17a22.39,22.39,0,0,0,4.09-.48,8.88,8.88,0,0,0,6.84-6.06,17.29,17.29,0,0,0,.77-5.2c.06-2.31.11-4.62.1-6.93,0-4.45,0-8.9-.12-13.35a20.55,20.55,0,0,0-.47-4.06,8.78,8.78,0,0,0-6.07-6.85,17.17,17.17,0,0,0-5.23-.77c-2.29-.06-4.57-.11-6.86-.11-4.46,0-8.92,0-13.38.12a21.43,21.43,0,0,0-4.07.47,8.81,8.81,0,0,0-6.85,6.08A17.28,17.28,0,0,0,93,16.7c-.06,2.27-.11,4.55-.11,6.82,0,4.49,0,9,.12,13.46A21.42,21.42,0,0,0,93.45,41a8.8,8.8,0,0,0,6,6.83,16.73,16.73,0,0,0,5.16.78C108.05,48.72,111.43,48.76,114.82,48.81Z"/><path d="M114.82,40.57A13.77,13.77,0,1,1,128.58,26.8,13.72,13.72,0,0,1,114.82,40.57Zm0-4.84a8.94,8.94,0,1,0-8.92-9A9,9,0,0,0,114.81,35.73Z"/><path d="M129.14,22.49a3.22,3.22,0,1,1,3.22-3.2A3.21,3.21,0,0,1,129.14,22.49Z"/></g></g></svg>