<svg xmlns="http://www.w3.org/2000/svg" viewBox="0 0 422.14 93.69"><title>MAIL</title><g id="Layer_2" data-name="Layer 2"><g id="Layer_1-2" data-name="Layer 1"><path d="M9.48,85.81a10,10,0,0,1-3.8-.71,9.37,9.37,0,0,1-3-1.95A9,9,0,0,1,0,76.7,9.81,9.81,0,0,1,.71,73a9.22,9.22,0,0,1,2-3,9.34,9.34,0,0,1,6.8-2.8,10.16,10.16,0,0,1,3.78.69,9.1,9.1,0,0,1,3,1.88,8.3,8.3,0,0,1,2,2.8A8.47,8.47,0,0,1,18.94,76a10.35,10.35,0,0,1-.71,3.83,9.53,9.53,0,0,1-2,3.14,9.24,9.24,0,0,1-3,2.12A9.13,9.13,0,0,1,9.48,85.81Zm.66-1.31A3.53,3.53,0,0,0,12.07,84a5.1,5.1,0,0,0,1.52-1.45,6.8,6.8,0,0,0,1-2.12,9.07,9.07,0,0,0,.35-2.57,19.05,19.05,0,0,0-.33-3.65,9.19,9.19,0,0,0-1.09-3,5.56,5.56,0,0,0-1.95-2,5.54,5.54,0,0,0-3-.73A3.23,3.23,0,0,0,6.87,69,5.15,5.15,0,0,0,5.4,70.41a7.82,7.82,0,0,0-1,2.11A8.5,8.5,0,0,0,4,75.07a16,16,0,0,0,.41,3.67,10.3,10.3,0,0,0,1.21,3,6.1,6.1,0,0,0,1.93,2A4.68,4.68,0,0,0,10.14,84.5Z"/><path d="M26.08,85.43H22.52V59.35l2.54-1h1Z"/><path d="M48.2,68.45v1.48H44.8a6.53,6.53,0,0,1,.85,1.64A5.53,5.53,0,0,1,46,73.38a5.29,5.29,0,0,1-.62,2.55,6.08,6.08,0,0,1-1.72,2A8.15,8.15,0,0,1,41,79.17a11.82,11.82,0,0,1-3.36.45,8.35,8.35,0,0,1-1.38-.11A7.57,7.57,0,0,1,35,79.22a3.82,3.82,0,0,0-.87,1,2.1,2.1,0,0,0-.35,1.12,1,1,0,0,0,.59.87,3.68,3.68,0,0,0,1.66.36l6.64.29a11.48,11.48,0,0,1,2.65.37,4.93,4.93,0,0,1,1.69.82,2.75,2.75,0,0,1,.89,1.23,4.44,4.44,0,0,1,.26,1.58,5.66,5.66,0,0,1-.72,2.84,6.48,6.48,0,0,1-2.11,2.16A11.12,11.12,0,0,1,42,93.21a18.88,18.88,0,0,1-4.46.48,16.71,16.71,0,0,1-6.63-1C29.48,92,28.75,91.14,28.75,90a3,3,0,0,1,.36-1.42,6.4,6.4,0,0,1,.95-1.31,12.13,12.13,0,0,1,1.27-1.2c.47-.39.93-.76,1.39-1.11a6.44,6.44,0,0,1-.93-.37,3.32,3.32,0,0,1-.73-.49,2.44,2.44,0,0,1-.49-.6,1.38,1.38,0,0,1-.19-.71,2.56,2.56,0,0,1,.29-1.13,4.88,4.88,0,0,1,.78-1.11,6.56,6.56,0,0,1,1.16-1A6.73,6.73,0,0,1,34,78.89a6.71,6.71,0,0,1-2.84-2.14,5.23,5.23,0,0,1-1-3.16,5.31,5.31,0,0,1,.61-2.5,6.53,6.53,0,0,1,1.66-2A8,8,0,0,1,35,67.65,9.19,9.19,0,0,1,38,67.14a12,12,0,0,1,1.59.11,14,14,0,0,1,1.46.29,6.73,6.73,0,0,1,1.2.41,2.75,2.75,0,0,1,.81.5ZM33.82,85.28a3.72,3.72,0,0,0-.7.67,4.28,4.28,0,0,0-.51.77,5,5,0,0,0-.32.82,3.09,3.09,0,0,0-.1.78,1.88,1.88,0,0,0,.42,1.15,3.55,3.55,0,0,0,1.27,1A8.48,8.48,0,0,0,36,91.1a15.1,15.1,0,0,0,2.95.25,16.46,16.46,0,0,0,3.21-.28,10.63,10.63,0,0,0,2.4-.75,4.75,4.75,0,0,0,1.5-1,1.78,1.78,0,0,0,.52-1.16,1.82,1.82,0,0,0-1.2-1.75,7.83,7.83,0,0,0-3.26-.56c-.85,0-1.72,0-2.6,0s-1.7-.09-2.46-.15-1.43-.11-2-.17S34.06,85.33,33.82,85.28Zm4.44-6.59a3.25,3.25,0,0,0,1.45-.34,3.88,3.88,0,0,0,1.23-.94A4.76,4.76,0,0,0,41.8,76a4.6,4.6,0,0,0,.31-1.71,8,8,0,0,0-.36-2.45,6.77,6.77,0,0,0-1-2,4.7,4.7,0,0,0-1.44-1.31,3.34,3.34,0,0,0-1.73-.47,3.1,3.1,0,0,0-1.56.37,3.15,3.15,0,0,0-1.09,1A4.59,4.59,0,0,0,34.34,71a8.91,8.91,0,0,0,.1,4.17A6.16,6.16,0,0,0,35.28,77a4.18,4.18,0,0,0,1.3,1.22A3.34,3.34,0,0,0,38.26,78.69Z"/><path d="M64.74,85.43H61.17V83c-.43.32-.84.65-1.25,1a9.58,9.58,0,0,1-1.31.92,7.67,7.67,0,0,1-1.57.68,7.1,7.1,0,0,1-2,.25,5,5,0,0,1-1.9-.34,4.13,4.13,0,0,1-1.45-.94,4,4,0,0,1-.92-1.42,4.84,4.84,0,0,1-.32-1.77,4.66,4.66,0,0,1,.46-2.07,5.75,5.75,0,0,1,1.26-1.66A8.61,8.61,0,0,1,54,76.3a20,20,0,0,1,2.24-1c.79-.3,1.61-.57,2.45-.8s1.66-.45,2.46-.65V72.72a7.21,7.21,0,0,0-.25-2.06,3.41,3.41,0,0,0-.69-1.36,2.49,2.49,0,0,0-1.09-.75,4.35,4.35,0,0,0-1.44-.22,4,4,0,0,0-1.47.23,2.21,2.21,0,0,0-.89.62,2.11,2.11,0,0,0-.45.88,4.12,4.12,0,0,0-.11,1,5.29,5.29,0,0,1-.08.9,2.21,2.21,0,0,1-.27.76,1.52,1.52,0,0,1-.55.52,1.63,1.63,0,0,1-.87.2,1.87,1.87,0,0,1-.76-.15,1.75,1.75,0,0,1-.59-.45,2,2,0,0,1-.39-.66,2.55,2.55,0,0,1-.13-.84,2.66,2.66,0,0,1,.58-1.65,5.2,5.2,0,0,1,1.57-1.33,9.42,9.42,0,0,1,2.3-.88,11.42,11.42,0,0,1,2.77-.33,11.1,11.1,0,0,1,3,.35,5.11,5.11,0,0,1,2,1A3.49,3.49,0,0,1,64.4,70a5.33,5.33,0,0,1,.34,2ZM61.17,75c-.52.16-1.05.35-1.6.56s-1.09.45-1.62.71-1,.55-1.51.85a10,10,0,0,0-1.26,1,4.34,4.34,0,0,0-.85,1.1A2.45,2.45,0,0,0,54,80.41a3.26,3.26,0,0,0,.24,1.24,3.64,3.64,0,0,0,.64,1,3.16,3.16,0,0,0,.93.7,2.46,2.46,0,0,0,1.09.26,4.24,4.24,0,0,0,1.14-.16,5.74,5.74,0,0,0,1.06-.43,11,11,0,0,0,1-.62l1.05-.76Z"/><path d="M69.49,67.51h3.56v3.66a18.12,18.12,0,0,1,1.19-1.4,10.61,10.61,0,0,1,1.46-1.29,7.66,7.66,0,0,1,1.76-1,5.74,5.74,0,0,1,2.11-.38,6.31,6.31,0,0,1,2.89.67,7.05,7.05,0,0,1,2.22,1.81,8.35,8.35,0,0,1,1.41,2.68,10.27,10.27,0,0,1,.5,3.27,13.11,13.11,0,0,1-.61,4.1,9.89,9.89,0,0,1-1.75,3.24,8,8,0,0,1-2.76,2.14,8.4,8.4,0,0,1-3.63.76,11.84,11.84,0,0,1-1.39-.07,8.94,8.94,0,0,1-1.21-.23,8.68,8.68,0,0,1-1.11-.41,10.69,10.69,0,0,1-1.08-.6V93H69.49Zm3.56,13.08a3.33,3.33,0,0,0,.35,1.52,3.67,3.67,0,0,0,1,1.24,4.94,4.94,0,0,0,1.52.84,6,6,0,0,0,1.94.31A3.65,3.65,0,0,0,79.71,84a4.8,4.8,0,0,0,1.54-1.45,7.34,7.34,0,0,0,1-2.22,10.35,10.35,0,0,0,.38-2.88A15.3,15.3,0,0,0,82.31,74a8,8,0,0,0-1-2.46,4.24,4.24,0,0,0-1.48-1.47A3.72,3.72,0,0,0,78,69.56a4.37,4.37,0,0,0-1.5.25,5.83,5.83,0,0,0-1.33.64,6.9,6.9,0,0,0-1.16.92,8,8,0,0,0-1,1.1Z"/><path d="M91.83,58.33a2.15,2.15,0,0,1,.8.15,2.1,2.1,0,0,1,.65.38,1.89,1.89,0,0,1,.44.57,1.49,1.49,0,0,1,0,1.38,1.89,1.89,0,0,1-.44.57,2.1,2.1,0,0,1-.65.38,2.14,2.14,0,0,1-.8.14,2,2,0,0,1-.78-.14A2,2,0,0,1,90,60.81a1.57,1.57,0,0,1,0-1.38,2,2,0,0,1,1.09-1A2,2,0,0,1,91.83,58.33ZM90.1,68.16l2.5-1h1V85.43H90.1Z"/><path d="M105.92,85.81a8.53,8.53,0,0,1-3.42-.68,9,9,0,0,1-2.78-1.86,8.65,8.65,0,0,1-1.89-2.75,8.34,8.34,0,0,1-.69-3.38,12.18,12.18,0,0,1,.63-4A9.72,9.72,0,0,1,99.56,70a8.22,8.22,0,0,1,2.78-2.09,8.48,8.48,0,0,1,3.61-.75,8.32,8.32,0,0,1,3.24.62,8,8,0,0,1,2.51,1.66,7.47,7.47,0,0,1,1.64,2.41,7.25,7.25,0,0,1,.58,2.87H100.56a11.59,11.59,0,0,0,.47,3.35,8.46,8.46,0,0,0,1.3,2.66,6.07,6.07,0,0,0,2,1.75,5.29,5.29,0,0,0,2.55.63,6.71,6.71,0,0,0,2.24-.37,8,8,0,0,0,1.93-1,6.86,6.86,0,0,0,1.48-1.41,5,5,0,0,0,.86-1.62l1,.45a8.35,8.35,0,0,1-1.24,2.59,10.34,10.34,0,0,1-2,2.11,9.54,9.54,0,0,1-2.5,1.43A7.56,7.56,0,0,1,105.92,85.81Zm3.55-12.54a5,5,0,0,0-.36-1.9,4.74,4.74,0,0,0-1-1.51,4.54,4.54,0,0,0-1.47-1,4.41,4.41,0,0,0-1.81-.37,3.4,3.4,0,0,0-1.55.37,4.2,4.2,0,0,0-1.31,1,5.11,5.11,0,0,0-.95,1.51,5.58,5.58,0,0,0-.46,1.89Z"/><path d="M130.43,83.68a9.44,9.44,0,0,1-1.34.89,10.45,10.45,0,0,1-1.49.67,11,11,0,0,1-1.57.42,7.51,7.51,0,0,1-1.54.15,6.22,6.22,0,0,1-3-.73,8,8,0,0,1-2.4-2,9.84,9.84,0,0,1-1.62-2.9,10.35,10.35,0,0,1-.59-3.49,8.54,8.54,0,0,1,.34-2.4,10.1,10.1,0,0,1,2.42-4.2,10.18,10.18,0,0,1,1.91-1.56,9.56,9.56,0,0,1,2.25-1,8.52,8.52,0,0,1,2.49-.37,5.47,5.47,0,0,1,2.29.46,7.69,7.69,0,0,1,1.82,1.21V59.35l2.48-1H134V85.81h-3.53Zm0-10.48a4.73,4.73,0,0,0-.4-1.93,4.65,4.65,0,0,0-2.46-2.45,4,4,0,0,0-1.62-.34,4,4,0,0,0-2,.53,5.19,5.19,0,0,0-1.62,1.49,7.55,7.55,0,0,0-1.09,2.28,9.89,9.89,0,0,0-.4,2.91,11.33,11.33,0,0,0,.44,3.19,9.18,9.18,0,0,0,1.21,2.6,6.23,6.23,0,0,0,1.79,1.76,4.08,4.08,0,0,0,2.2.64,4.26,4.26,0,0,0,1.12-.15,5.48,5.48,0,0,0,1.07-.4,5.89,5.89,0,0,0,1-.59,5.4,5.4,0,0,0,.79-.7Z"/><path d="M138.13,67.51h3.54V70.9a17.34,17.34,0,0,1,1.12-1.44,10.78,10.78,0,0,1,1.25-1.2,6.11,6.11,0,0,1,1.34-.82,3.54,3.54,0,0,1,1.41-.3,3.24,3.24,0,0,1,1.09.18,3,3,0,0,1,.87.47,2.28,2.28,0,0,1,.6.68,1.73,1.73,0,0,1,.21.83,1.6,1.6,0,0,1-.54,1.31,2.34,2.34,0,0,1-1.51.44,2.81,2.81,0,0,1-1-.13,3.85,3.85,0,0,1-.65-.28,4.53,4.53,0,0,0-.59-.28,1.83,1.83,0,0,0-.75-.13,1.38,1.38,0,0,0-.71.21,3.33,3.33,0,0,0-.72.58,7.71,7.71,0,0,0-.72.89c-.25.34-.49.71-.74,1.11V85.43h-3.54Z"/><path d="M165.05,85.43h-3.57V83c-.43.32-.84.65-1.25,1a9.1,9.1,0,0,1-1.32.92,7.35,7.35,0,0,1-1.56.68,7.1,7.1,0,0,1-2,.25,5,5,0,0,1-1.9-.34,4.13,4.13,0,0,1-1.45-.94,4,4,0,0,1-.92-1.42,4.84,4.84,0,0,1-.32-1.77,4.66,4.66,0,0,1,.46-2.07,5.9,5.9,0,0,1,1.25-1.66,8.94,8.94,0,0,1,1.86-1.31,20,20,0,0,1,2.24-1c.79-.3,1.61-.57,2.45-.8s1.66-.45,2.46-.65V72.72a7.21,7.21,0,0,0-.25-2.06,3.41,3.41,0,0,0-.69-1.36,2.49,2.49,0,0,0-1.09-.75,4.35,4.35,0,0,0-1.44-.22,4,4,0,0,0-1.47.23,2.21,2.21,0,0,0-.89.62,2.11,2.11,0,0,0-.45.88,4.12,4.12,0,0,0-.11,1,5.29,5.29,0,0,1-.08.9,2.21,2.21,0,0,1-.27.76,1.52,1.52,0,0,1-.55.52,1.63,1.63,0,0,1-.87.2,1.87,1.87,0,0,1-.76-.15,1.75,1.75,0,0,1-.59-.45,2,2,0,0,1-.39-.66,2.55,2.55,0,0,1-.13-.84,2.66,2.66,0,0,1,.58-1.65,5.2,5.2,0,0,1,1.57-1.33,9.26,9.26,0,0,1,2.3-.88,11.42,11.42,0,0,1,2.77-.33,11.1,11.1,0,0,1,3,.35,5.11,5.11,0,0,1,2,1,3.49,3.49,0,0,1,1.08,1.5,5.33,5.33,0,0,1,.34,2ZM161.48,75c-.52.16-1,.35-1.6.56s-1.09.45-1.62.71-1,.55-1.51.85a10,10,0,0,0-1.26,1,4.34,4.34,0,0,0-.85,1.1,2.45,2.45,0,0,0-.32,1.22,3.26,3.26,0,0,0,.24,1.24,3.64,3.64,0,0,0,.64,1,3.16,3.16,0,0,0,.93.7,2.46,2.46,0,0,0,1.09.26,4.24,4.24,0,0,0,1.14-.16,5.74,5.74,0,0,0,1.06-.43c.33-.18.67-.39,1-.62l1-.76Z"/><path d="M173.36,70.78a11.92,11.92,0,0,1,3.37-2.73,7.7,7.7,0,0,1,3.57-.91,3.85,3.85,0,0,1,1.76.43,4.44,4.44,0,0,1,1.43,1.16,5.37,5.37,0,0,1,1,1.73,6.35,6.35,0,0,1,.35,2.11V85.43h-3.55V73.17a4,4,0,0,0-.8-2.69,2.65,2.65,0,0,0-2.07-.92,4.4,4.4,0,0,0-1.2.19,7.26,7.26,0,0,0-1.29.52,10.26,10.26,0,0,0-1.29.82,12.21,12.21,0,0,0-1.24,1.06V85.43H169.8V59.35l2.54-1h1Z"/><path d="M190.87,58.33a2.15,2.15,0,0,1,.8.15,2.1,2.1,0,0,1,.65.38,1.89,1.89,0,0,1,.44.57,1.49,1.49,0,0,1,0,1.38,1.89,1.89,0,0,1-.44.57,2.1,2.1,0,0,1-.65.38,2.14,2.14,0,0,1-.8.14,2.07,2.07,0,0,1-.78-.14,2,2,0,0,1-.64-.38,1.75,1.75,0,0,1-.44-.57,1.49,1.49,0,0,1,0-1.38,1.75,1.75,0,0,1,.44-.57,2,2,0,0,1,.64-.38A2.08,2.08,0,0,1,190.87,58.33Zm-1.73,9.83,2.5-1h1V85.43h-3.54Z"/><path d="M206.56,83.15a5.47,5.47,0,0,1-1.9,1.95,5.64,5.64,0,0,1-2.92.71,3.74,3.74,0,0,1-1.56-.3,2.89,2.89,0,0,1-1.1-.85,3.57,3.57,0,0,1-.64-1.31,6.51,6.51,0,0,1-.21-1.71V69h-3.1v-.88a5,5,0,0,0,2.47-.54,4.63,4.63,0,0,0,1.58-1.47,7.3,7.3,0,0,0,1-2.15c.24-.81.44-1.67.62-2.58h1v6.12h4V69h-4V81.64a1.86,1.86,0,0,0,.15.75,1.91,1.91,0,0,0,1,1,2,2,0,0,0,.76.15,2.08,2.08,0,0,0,1.1-.29,3.29,3.29,0,0,0,.85-.73Z"/><path d="M221.91,85.43h-3.57V83c-.42.32-.84.65-1.24,1a10.35,10.35,0,0,1-1.32.92,7.67,7.67,0,0,1-1.57.68,7.05,7.05,0,0,1-2,.25,5,5,0,0,1-1.9-.34,4.22,4.22,0,0,1-1.45-.94,4.15,4.15,0,0,1-.92-1.42,4.84,4.84,0,0,1-.31-1.77,4.53,4.53,0,0,1,.46-2.07,5.54,5.54,0,0,1,1.25-1.66,8.61,8.61,0,0,1,1.85-1.31,20,20,0,0,1,2.24-1c.79-.3,1.61-.57,2.45-.8s1.66-.45,2.46-.65V72.72a7.62,7.62,0,0,0-.24-2.06,3.56,3.56,0,0,0-.7-1.36,2.49,2.49,0,0,0-1.09-.75,4.35,4.35,0,0,0-1.44-.22,4,4,0,0,0-1.47.23,2.21,2.21,0,0,0-.89.62,2.11,2.11,0,0,0-.45.88,4.69,4.69,0,0,0-.11,1,5.29,5.29,0,0,1-.08.9,2.21,2.21,0,0,1-.27.76,1.58,1.58,0,0,1-.54.52,1.66,1.66,0,0,1-.88.2,1.87,1.87,0,0,1-.76-.15,1.75,1.75,0,0,1-.59-.45,2,2,0,0,1-.39-.66,2.55,2.55,0,0,1-.13-.84,2.72,2.72,0,0,1,.58-1.65,5.32,5.32,0,0,1,1.57-1.33,9.34,9.34,0,0,1,2.31-.88,11.3,11.3,0,0,1,2.77-.33,11.07,11.07,0,0,1,3,.35,5.11,5.11,0,0,1,2,1,3.6,3.6,0,0,1,1.09,1.5,5.54,5.54,0,0,1,.33,2ZM218.34,75c-.51.16-1,.35-1.6.56s-1.09.45-1.61.71a15.58,15.58,0,0,0-1.51.85,8.73,8.73,0,0,0-1.26,1,4.39,4.39,0,0,0-.86,1.1,2.56,2.56,0,0,0-.32,1.22,3.26,3.26,0,0,0,.24,1.24,3.64,3.64,0,0,0,.64,1,3.16,3.16,0,0,0,.93.7,2.49,2.49,0,0,0,1.09.26,4.32,4.32,0,0,0,1.15-.16,5.94,5.94,0,0,0,1.05-.43,11.12,11.12,0,0,0,1-.62l1-.76Z"/><path d="M246,70.08l2.8-.33-3.2,10.83c-.13.45-.24.88-.32,1.29a5.74,5.74,0,0,0-.13,1.24,3.37,3.37,0,0,0,.06.66,1.45,1.45,0,0,0,.2.54,1,1,0,0,0,.36.37,1,1,0,0,0,.52.13,3.67,3.67,0,0,0,1.6-.4,6.77,6.77,0,0,0,1.62-1.16A10.77,10.77,0,0,0,251,81.48a13.76,13.76,0,0,0,1.24-2.28,15.49,15.49,0,0,0,.85-2.65,13.33,13.33,0,0,0,.32-2.92,10.8,10.8,0,0,0-3.16-7.75,10.32,10.32,0,0,0-7.3-3A15.5,15.5,0,0,0,236.84,64a14.06,14.06,0,0,0-4.68,3.16,14.22,14.22,0,0,0-3,4.72,15.65,15.65,0,0,0-1.07,5.8,14.65,14.65,0,0,0,.44,3.56,14.43,14.43,0,0,0,1.28,3.27,13.68,13.68,0,0,0,2,2.81,12.51,12.51,0,0,0,2.71,2.19,14,14,0,0,0,3.32,1.44,14.1,14.1,0,0,0,3.85.51A12.93,12.93,0,0,0,248,89.94a12.37,12.37,0,0,0,2.38-1.63,16.67,16.67,0,0,0,1.94-2,17.73,17.73,0,0,0,1.52-2.21,21.38,21.38,0,0,0,1.12-2.25l1.3.37a26.85,26.85,0,0,1-2.42,4.38,15.46,15.46,0,0,1-3.14,3.35,13.45,13.45,0,0,1-4,2.13,16.28,16.28,0,0,1-5.13.75,15.49,15.49,0,0,1-6.23-1.2,13.74,13.74,0,0,1-4.69-3.29,14.47,14.47,0,0,1-2.95-4.88,17.28,17.28,0,0,1-1-6,16.5,16.5,0,0,1,.55-4.32,15.23,15.23,0,0,1,1.58-3.8,14.9,14.9,0,0,1,2.48-3.17,15.61,15.61,0,0,1,3.27-2.41,16.48,16.48,0,0,1,3.92-1.53,18,18,0,0,1,4.47-.54,13.17,13.17,0,0,1,3.23.4A12,12,0,0,1,249,63.17a11.39,11.39,0,0,1,2.41,1.8,10.63,10.63,0,0,1,1.84,2.4,12.21,12.21,0,0,1,1.18,2.95,13.6,13.6,0,0,1,.41,3.43,15.06,15.06,0,0,1-.33,3.16,14.72,14.72,0,0,1-.94,2.88,14.93,14.93,0,0,1-1.44,2.5,10.37,10.37,0,0,1-1.82,2,8.18,8.18,0,0,1-2.1,1.27,5.84,5.84,0,0,1-2.28.46,7.14,7.14,0,0,1-1.35-.12,2.84,2.84,0,0,1-1.09-.41,2.14,2.14,0,0,1-.72-.8,2.81,2.81,0,0,1-.26-1.27c0-.38,0-.77.06-1.19a9.6,9.6,0,0,1,.21-1.25,1.52,1.52,0,0,0-.19.28,1.94,1.94,0,0,1-.21.29q-.63.73-1.35,1.53a14.37,14.37,0,0,1-1.49,1.44,9.23,9.23,0,0,1-1.58,1.08,3.61,3.61,0,0,1-1.65.42,2.8,2.8,0,0,1-1.43-.34,3,3,0,0,1-1-.91,4.13,4.13,0,0,1-.56-1.3,6.39,6.39,0,0,1-.19-1.52,10.28,10.28,0,0,1,.37-2.57,16.8,16.8,0,0,1,1-2.78,18.51,18.51,0,0,1,1.56-2.68,13.38,13.38,0,0,1,2-2.29A9.67,9.67,0,0,1,240.29,70a5.31,5.31,0,0,1,2.42-.6,1.89,1.89,0,0,1,1,.26,2.55,2.55,0,0,1,.76.67,3.69,3.69,0,0,1,.51.94,5.14,5.14,0,0,1,.29,1ZM237.31,83.8a3.24,3.24,0,0,0,1.72-.54,7.43,7.43,0,0,0,1.66-1.42,13.66,13.66,0,0,0,1.48-2,18.9,18.9,0,0,0,1.21-2.37,14.54,14.54,0,0,0,.81-2.41,9,9,0,0,0,.29-2.19,2.3,2.3,0,0,0-.21-.95,3.25,3.25,0,0,0-.55-.8,3.05,3.05,0,0,0-.72-.56,1.55,1.55,0,0,0-.74-.21,3.35,3.35,0,0,0-1.82.56,7.16,7.16,0,0,0-1.64,1.5,12.61,12.61,0,0,0-1.38,2.11,17.83,17.83,0,0,0-1.07,2.42,16.89,16.89,0,0,0-.68,2.41,9.92,9.92,0,0,0-.25,2.09,4.5,4.5,0,0,0,.08.79,2.31,2.31,0,0,0,.29.77,1.84,1.84,0,0,0,.58.6A1.58,1.58,0,0,0,237.31,83.8Z"/><path d="M277.6,68.45v1.48h-3.4a6.22,6.22,0,0,1,.85,1.64,5.53,5.53,0,0,1,.32,1.81,5.29,5.29,0,0,1-.62,2.55,6,6,0,0,1-1.72,2,8.15,8.15,0,0,1-2.63,1.27,11.77,11.77,0,0,1-3.36.45,8.35,8.35,0,0,1-1.38-.11,7.57,7.57,0,0,1-1.22-.29,3.82,3.82,0,0,0-.87,1,2.1,2.1,0,0,0-.35,1.12,1,1,0,0,0,.59.87,3.68,3.68,0,0,0,1.66.36l6.64.29a11.48,11.48,0,0,1,2.65.37,4.93,4.93,0,0,1,1.69.82,2.75,2.75,0,0,1,.89,1.23,4.44,4.44,0,0,1,.26,1.58,5.66,5.66,0,0,1-.72,2.84,6.48,6.48,0,0,1-2.11,2.16,11.12,11.12,0,0,1-3.34,1.38,18.88,18.88,0,0,1-4.46.48,16.75,16.75,0,0,1-6.63-1c-1.46-.67-2.19-1.55-2.19-2.65a2.9,2.9,0,0,1,.37-1.42,6,6,0,0,1,.94-1.31,12.13,12.13,0,0,1,1.27-1.2c.47-.39.93-.76,1.39-1.11a6.44,6.44,0,0,1-.93-.37,3.58,3.58,0,0,1-.73-.49,2.44,2.44,0,0,1-.49-.6,1.38,1.38,0,0,1-.19-.71,2.56,2.56,0,0,1,.29-1.13,4.88,4.88,0,0,1,.78-1.11,6.56,6.56,0,0,1,1.16-1,6.73,6.73,0,0,1,1.41-.73,6.71,6.71,0,0,1-2.84-2.14,5.23,5.23,0,0,1-1-3.16,5.31,5.31,0,0,1,.61-2.5,6.53,6.53,0,0,1,1.66-2,8,8,0,0,1,2.51-1.39,9.19,9.19,0,0,1,3.09-.51,12,12,0,0,1,1.59.11,14,14,0,0,1,1.46.29,6.73,6.73,0,0,1,1.2.41,2.75,2.75,0,0,1,.81.5ZM263.22,85.28a3.72,3.72,0,0,0-.7.67,4.28,4.28,0,0,0-.51.77,5,5,0,0,0-.32.82,3.09,3.09,0,0,0-.1.78,1.88,1.88,0,0,0,.42,1.15,3.55,3.55,0,0,0,1.27,1,8.48,8.48,0,0,0,2.11.66,15.1,15.1,0,0,0,2.95.25,16.46,16.46,0,0,0,3.21-.28,10.63,10.63,0,0,0,2.4-.75,4.64,4.64,0,0,0,1.5-1,1.74,1.74,0,0,0,.52-1.16,1.82,1.82,0,0,0-1.2-1.75,7.83,7.83,0,0,0-3.26-.56c-.85,0-1.72,0-2.6,0s-1.7-.09-2.46-.15-1.43-.11-2-.17S263.47,85.33,263.22,85.28Zm4.44-6.59a3.25,3.25,0,0,0,1.45-.34,3.88,3.88,0,0,0,1.23-.94A4.76,4.76,0,0,0,271.2,76a4.6,4.6,0,0,0,.31-1.71,8,8,0,0,0-.36-2.45,6.77,6.77,0,0,0-1-2,4.7,4.7,0,0,0-1.44-1.31A3.34,3.34,0,0,0,267,68.1a3.1,3.1,0,0,0-1.56.37,3.15,3.15,0,0,0-1.09,1,4.59,4.59,0,0,0-.62,1.53,8.91,8.91,0,0,0,.1,4.17,6.16,6.16,0,0,0,.84,1.83,4.18,4.18,0,0,0,1.3,1.22A3.34,3.34,0,0,0,267.66,78.69Z"/><path d="M280.94,67.51h3.55v3.35A11.72,11.72,0,0,1,286,69.45a14.42,14.42,0,0,1,1.77-1.19,10.1,10.1,0,0,1,1.82-.82,5.59,5.59,0,0,1,1.74-.3,4.85,4.85,0,0,1,1.61.29,5.67,5.67,0,0,1,1.5.79,5.42,5.42,0,0,1,1.19,1.2,3.62,3.62,0,0,1,.65,1.51,5.94,5.94,0,0,1,1.23-1.47,8.51,8.51,0,0,1,1.73-1.21,10,10,0,0,1,2-.81,7.51,7.51,0,0,1,2.07-.3,4.08,4.08,0,0,1,1.91.46,5.17,5.17,0,0,1,1.56,1.2,6,6,0,0,1,1.05,1.79,6.28,6.28,0,0,1,.38,2.18V85.43h-3.57V73.28a3.77,3.77,0,0,0-.26-1.42,4,4,0,0,0-.69-1.19,3.32,3.32,0,0,0-1-.81,2.66,2.66,0,0,0-1.23-.3,5.93,5.93,0,0,0-1.49.2,7.89,7.89,0,0,0-1.45.55,7.7,7.7,0,0,0-1.25.82,4.13,4.13,0,0,0-.9,1V85.43h-3.55V73.28a4,4,0,0,0-.26-1.42,4,4,0,0,0-.71-1.19,3.53,3.53,0,0,0-1-.81,2.66,2.66,0,0,0-1.23-.3,5,5,0,0,0-1.41.21,8.55,8.55,0,0,0-1.42.56,7.3,7.3,0,0,0-1.28.81,5.48,5.48,0,0,0-1,1V85.43h-3.55Z"/><path d="M325.54,85.43H322V83c-.42.32-.84.65-1.24,1a10.35,10.35,0,0,1-1.32.92,7.67,7.67,0,0,1-1.57.68,7.05,7.05,0,0,1-2,.25,5,5,0,0,1-1.9-.34,4.22,4.22,0,0,1-1.45-.94,4,4,0,0,1-.92-1.42,4.84,4.84,0,0,1-.31-1.77,4.53,4.53,0,0,1,.46-2.07A5.54,5.54,0,0,1,313,77.61a8.61,8.61,0,0,1,1.85-1.31,20,20,0,0,1,2.24-1c.79-.3,1.61-.57,2.45-.8s1.66-.45,2.46-.65V72.72a7.62,7.62,0,0,0-.24-2.06,3.56,3.56,0,0,0-.7-1.36,2.49,2.49,0,0,0-1.09-.75,4.35,4.35,0,0,0-1.44-.22,4,4,0,0,0-1.47.23,2.21,2.21,0,0,0-.89.62,2.11,2.11,0,0,0-.45.88,4.69,4.69,0,0,0-.11,1,5.29,5.29,0,0,1-.08.9,2.21,2.21,0,0,1-.27.76,1.58,1.58,0,0,1-.54.52,1.69,1.69,0,0,1-.88.2,1.87,1.87,0,0,1-.76-.15,1.75,1.75,0,0,1-.59-.45,2,2,0,0,1-.39-.66,2.55,2.55,0,0,1-.13-.84,2.66,2.66,0,0,1,.58-1.65,5.32,5.32,0,0,1,1.57-1.33,9.34,9.34,0,0,1,2.31-.88,11.3,11.3,0,0,1,2.77-.33,11.07,11.07,0,0,1,3,.35,5.11,5.11,0,0,1,2,1A3.49,3.49,0,0,1,325.2,70a5.33,5.33,0,0,1,.34,2ZM322,75c-.51.16-1,.35-1.6.56s-1.09.45-1.61.71a15.58,15.58,0,0,0-1.51.85,8.73,8.73,0,0,0-1.26,1,4.17,4.17,0,0,0-.86,1.1,2.56,2.56,0,0,0-.32,1.22,3.26,3.26,0,0,0,.24,1.24,3.64,3.64,0,0,0,.64,1,3.16,3.16,0,0,0,.93.7,2.46,2.46,0,0,0,1.09.26,4.37,4.37,0,0,0,1.15-.16,5.94,5.94,0,0,0,1.05-.43,11.12,11.12,0,0,0,1-.62l1-.76Z"/><path d="M332.2,58.33a2.13,2.13,0,0,1,.79.15,2,2,0,0,1,.65.38,1.89,1.89,0,0,1,.44.57,1.49,1.49,0,0,1,0,1.38,1.89,1.89,0,0,1-.44.57,2,2,0,0,1-.65.38,2.12,2.12,0,0,1-.79.14,2.09,2.09,0,0,1-.79-.14,2,2,0,0,1-.64-.38,1.89,1.89,0,0,1-.44-.57,1.49,1.49,0,0,1,0-1.38,1.89,1.89,0,0,1,.44-.57,2,2,0,0,1,.64-.38A2.09,2.09,0,0,1,332.2,58.33Zm-1.74,9.83,2.5-1h1V85.43h-3.54Z"/><path d="M342.06,85.43H338.5V59.35l2.54-1h1Z"/><path d="M348.15,82.29a1.85,1.85,0,0,1,.74.15,1.73,1.73,0,0,1,.6.39,2,2,0,0,1,.41.58,1.75,1.75,0,0,1,.15.72,1.8,1.8,0,0,1-.15.73,2,2,0,0,1-.41.59,2.07,2.07,0,0,1-.6.39,2.05,2.05,0,0,1-1.49,0,2,2,0,0,1-.61-.39,1.84,1.84,0,0,1-.41-.59,1.8,1.8,0,0,1-.15-.73,1.75,1.75,0,0,1,.15-.72,1.8,1.8,0,0,1,.41-.58,1.68,1.68,0,0,1,.61-.39A1.86,1.86,0,0,1,348.15,82.29Z"/><path d="M361.66,85.81a8,8,0,0,1-3.29-.69,8.39,8.39,0,0,1-2.69-1.89,9,9,0,0,1-1.8-2.82,9.07,9.07,0,0,1-.66-3.46,10,10,0,0,1,.73-3.82,9.73,9.73,0,0,1,2-3.12,9.35,9.35,0,0,1,2.95-2.1,8.68,8.68,0,0,1,3.62-.77,11,11,0,0,1,2.77.33,7.84,7.84,0,0,1,2.19.9,4.56,4.56,0,0,1,1.43,1.36,3,3,0,0,1,.52,1.69,1.44,1.44,0,0,1-.21.75,2.32,2.32,0,0,1-.54.63,2.83,2.83,0,0,1-.76.43,2.55,2.55,0,0,1-.86.15,2,2,0,0,1-.87-.17,2.57,2.57,0,0,1-.66-.45,1.94,1.94,0,0,1-.55-1.34,4.73,4.73,0,0,0-.14-1.16,2.14,2.14,0,0,0-.47-.94,2.19,2.19,0,0,0-.91-.62,4.22,4.22,0,0,0-1.49-.22,4.7,4.7,0,0,0-2.18.49,4.94,4.94,0,0,0-1.64,1.33,6.08,6.08,0,0,0-1,2,8.13,8.13,0,0,0-.35,2.39,11.57,11.57,0,0,0,.45,3.26,9.1,9.1,0,0,0,1.27,2.68,6.34,6.34,0,0,0,2,1.83,5,5,0,0,0,2.57.67,5.53,5.53,0,0,0,2.17-.39,5,5,0,0,0,1.59-1.06A6.48,6.48,0,0,0,368,80.09a16.91,16.91,0,0,0,.87-1.87l1.07.44a12.63,12.63,0,0,1-1.22,3,8.86,8.86,0,0,1-1.81,2.25,7.48,7.48,0,0,1-2.35,1.4A8.28,8.28,0,0,1,361.66,85.81Z"/><path d="M382,85.81a10.08,10.08,0,0,1-3.8-.71,9.37,9.37,0,0,1-3-1.95,9,9,0,0,1-2.68-6.45,9.81,9.81,0,0,1,.71-3.72,9.21,9.21,0,0,1,5-5.09,9.54,9.54,0,0,1,3.8-.75,10.09,10.09,0,0,1,3.78.69,9.1,9.1,0,0,1,3,1.88,8.3,8.3,0,0,1,2,2.8,8.47,8.47,0,0,1,.71,3.44,10.35,10.35,0,0,1-.71,3.83,9.53,9.53,0,0,1-2,3.14,9.24,9.24,0,0,1-3,2.12A9.06,9.06,0,0,1,382,85.81Zm.67-1.31a3.49,3.49,0,0,0,1.92-.55,5,5,0,0,0,1.52-1.45,7,7,0,0,0,1-2.12,9.44,9.44,0,0,0,.35-2.57,19,19,0,0,0-.34-3.65,9.18,9.18,0,0,0-1.08-3,5.34,5.34,0,0,0-4.91-2.72,3.18,3.18,0,0,0-1.73.52,5.06,5.06,0,0,0-1.48,1.41,7.82,7.82,0,0,0-1,2.11,8.5,8.5,0,0,0-.38,2.55,15.45,15.45,0,0,0,.42,3.67,10.57,10.57,0,0,0,1.2,3,6.13,6.13,0,0,0,1.94,2A4.63,4.63,0,0,0,382.62,84.5Z"/><path d="M394.83,67.51h3.55v3.35a11.72,11.72,0,0,1,1.55-1.41,14.42,14.42,0,0,1,1.77-1.19,10.1,10.1,0,0,1,1.82-.82,5.64,5.64,0,0,1,1.74-.3,4.85,4.85,0,0,1,1.61.29,5.67,5.67,0,0,1,1.5.79,5.42,5.42,0,0,1,1.19,1.2,3.62,3.62,0,0,1,.65,1.51,5.94,5.94,0,0,1,1.23-1.47,8.51,8.51,0,0,1,1.73-1.21,10,10,0,0,1,2-.81,7.51,7.51,0,0,1,2.07-.3,4.08,4.08,0,0,1,1.91.46,5.17,5.17,0,0,1,1.56,1.2,6,6,0,0,1,1.05,1.79,6.06,6.06,0,0,1,.38,2.18V85.43h-3.57V73.28a3.77,3.77,0,0,0-.26-1.42,4,4,0,0,0-.69-1.19,3.32,3.32,0,0,0-1-.81,2.66,2.66,0,0,0-1.23-.3,5.93,5.93,0,0,0-1.49.2,7.89,7.89,0,0,0-1.45.55,7.7,7.7,0,0,0-1.25.82,4.13,4.13,0,0,0-.9,1V85.43h-3.55V73.28a4,4,0,0,0-.26-1.42,3.84,3.84,0,0,0-.71-1.19,3.62,3.62,0,0,0-1-.81,2.7,2.7,0,0,0-1.24-.3,5,5,0,0,0-1.41.21,8.55,8.55,0,0,0-1.42.56,7.3,7.3,0,0,0-1.28.81,5.48,5.48,0,0,0-1,1V85.43h-3.55Z"/><path d="M180.81,8c.8.51,1.31.82,1.81,1.15l24.2,16.11c3.25,2.16,5.32,2.16,8.6,0L239.63,9.14c.46-.31.93-.58,1.59-1,.05.66.11,1.13.11,1.61q0,12.92,0,25.85c0,3.26-1.49,4.77-4.79,4.78H185.69c-3.38,0-4.88-1.53-4.88-4.89C180.8,26.48,180.81,17.47,180.81,8Z"/><path d="M181.16,3.07a3.9,3.9,0,0,1,3.77-3c.23,0,.46,0,.68,0q25.44,0,50.87,0a4.51,4.51,0,0,1,4.11,1.9c.54.78.56,1.33-.36,1.94C231,9.93,221.84,16.09,212.58,22.13a3.08,3.08,0,0,1-2.77.1c-9.54-6.22-19-12.56-28.48-18.88C181.25,3.3,181.21,3.17,181.16,3.07Z"/></g></g></svg>