<?xml version="1.0" encoding="utf-8"?>
<!-- Generator: Adobe Illustrator 22.0.0, SVG Export Plug-In . SVG Version: 6.00 Build 0)  -->
<svg version="1.1" id="Layer_1" xmlns="https://www.w3.org/2000/svg" xmlns:xlink="https://www.w3.org/1999/xlink" x="0px" y="0px"
	 viewBox="0 0 193.3 93" style="enable-background:new 0 0 193.3 93;" xml:space="preserve">
<title>TELEFONO</title>
<g id="Layer_2_1_">
	<g id="Layer_1-2">
		<path d="M4.1,80.4c0.8-0.1,1.6-0.3,2.4-0.6c0.7-0.3,1.3-0.7,1.9-1.2c0.5-0.5,0.9-1,1.2-1.7c0.3-0.7,0.4-1.4,0.4-2.1
			c0-0.5-0.1-1-0.3-1.4c-0.2-0.4-0.5-0.9-0.9-1.2c-0.4-0.3-0.8-0.6-1.3-0.8c-0.5-0.2-1.1-0.3-1.7-0.3c-0.5,0-0.9,0.1-1.4,0.2
			C4,71.5,3.6,71.7,3.1,72c-0.4,0.3-0.8,0.6-1.2,0.9C1.6,73.2,1.3,73.6,1,74l-0.7-0.3c0.2-0.7,0.6-1.4,1-2c0.4-0.6,0.9-1.1,1.5-1.6
			c0.6-0.5,1.3-0.8,2-1.1c0.8-0.3,1.6-0.4,2.5-0.4c0.8,0,1.6,0.1,2.4,0.4c0.7,0.2,1.4,0.6,1.9,1c0.5,0.4,1,1,1.3,1.6
			c0.3,0.6,0.5,1.3,0.5,1.9c0,0.4-0.1,0.8-0.3,1.2c-0.2,0.5-0.5,0.9-0.8,1.4c-0.3,0.5-0.7,0.9-1.1,1.3c-0.4,0.4-0.9,0.8-1.4,1.2
			c0.7,0.2,1.3,0.5,1.9,0.9c0.6,0.4,1.1,0.9,1.5,1.5c0.4,0.6,0.8,1.2,1,1.8c0.2,0.6,0.4,1.3,0.4,1.9c0,1.2-0.2,2.5-0.8,3.6
			c-0.5,1-1.3,1.9-2.2,2.6c-1,0.7-2.2,1.2-3.4,1.5C6.9,92.8,5.5,93,4.1,93c-0.6,0-1.1,0-1.7-0.1c-0.4-0.1-0.9-0.2-1.3-0.4
			c-0.3-0.1-0.6-0.3-0.8-0.6C0.1,91.6,0,91.4,0,91.1c0-0.2,0.1-0.4,0.2-0.6c0.1-0.2,0.3-0.3,0.5-0.4c0.2-0.1,0.4-0.2,0.6-0.2
			c0.2,0,0.4-0.1,0.6-0.1c0.4,0,0.7,0,1.1,0.1c0.3,0.1,0.5,0.2,0.8,0.3c0.2,0.1,0.4,0.2,0.6,0.4c0.2,0.1,0.4,0.3,0.6,0.4
			c0.2,0.1,0.5,0.2,0.7,0.3c0.3,0.1,0.7,0.1,1,0.1c0.7,0,1.4-0.2,2.1-0.4c1.2-0.5,2.1-1.4,2.5-2.6c0.2-0.6,0.3-1.2,0.3-1.8
			c0-0.8-0.1-1.5-0.5-2.2c-0.3-0.7-0.8-1.3-1.4-1.8c-0.7-0.5-1.5-1-2.4-1.2C6.4,81.1,5.2,81,4.1,81V80.4z"/>
		<path d="M27.3,92.5V72.8h-3.9v-1c1.2,0.1,2.4-0.2,3.4-0.8c0.9-0.5,1.6-1.3,2-2.3h1.8v23.8H27.3z"/>
		<path d="M105.4,92.5V72.8h-3.9v-1c1.2,0.1,2.4-0.2,3.4-0.8c0.9-0.5,1.6-1.3,2-2.3h1.8v23.8H105.4z"/>
		<path d="M38.8,92.5v-0.6c1.7-1.6,3.2-3.1,4.5-4.3s2.3-2.3,3.2-3.3s1.6-1.8,2.1-2.5c0.5-0.6,0.9-1.3,1.3-1.9c0.3-0.5,0.5-1,0.6-1.6
			c0.1-0.5,0.2-0.9,0.2-1.4c0-0.7-0.1-1.4-0.3-2c-0.2-0.6-0.6-1.2-1-1.7c-0.4-0.5-1-0.9-1.6-1.2c-0.7-0.3-1.4-0.5-2.2-0.4
			c-0.7,0-1.3,0.1-1.9,0.3c-0.6,0.2-1.2,0.5-1.7,0.9c-0.5,0.4-0.9,0.8-1.2,1.4c-0.3,0.5-0.6,1-0.7,1.6h-0.7c0.1-0.9,0.3-1.9,0.8-2.7
			c0.4-0.8,1-1.6,1.7-2.2c0.7-0.6,1.5-1.1,2.3-1.5c0.9-0.4,1.8-0.5,2.7-0.5c1.1,0,2.2,0.1,3.2,0.5c0.8,0.3,1.6,0.8,2.3,1.4
			c0.6,0.6,1.1,1.2,1.4,2c0.3,0.8,0.5,1.6,0.5,2.4c0,0.9-0.2,1.9-0.6,2.7c-0.5,1.1-1.2,2.1-1.9,3.1c-1.1,1.3-2.2,2.6-3.5,3.9
			c-1.4,1.4-3.2,3.1-5.2,5.1h12.4l-1.7,2.6L38.8,92.5z"/>
		<path d="M63.1,80.4c0.8-0.1,1.6-0.3,2.4-0.6c0.7-0.3,1.3-0.7,1.9-1.2c0.5-0.5,0.9-1,1.2-1.7c0.3-0.7,0.4-1.4,0.4-2.1
			c0-0.5-0.1-1-0.3-1.4c-0.2-0.4-0.5-0.8-0.8-1.2c-0.4-0.3-0.8-0.6-1.3-0.8c-0.5-0.2-1.1-0.3-1.7-0.3c-0.5,0-0.9,0.1-1.4,0.2
			c-0.5,0.2-0.9,0.4-1.4,0.6c-0.4,0.3-0.8,0.6-1.2,0.9c-0.4,0.3-0.7,0.7-0.9,1.1l-0.7-0.3c0.3-0.7,0.6-1.4,1-2
			c0.4-0.6,0.9-1.2,1.5-1.6c0.6-0.5,1.3-0.8,2-1.1c0.8-0.3,1.6-0.4,2.5-0.4c0.8,0,1.6,0.1,2.4,0.4c0.7,0.2,1.4,0.6,1.9,1
			c0.5,0.4,1,1,1.3,1.6c0.3,0.6,0.5,1.3,0.5,1.9c0,0.4-0.1,0.8-0.3,1.2c-0.2,0.5-0.5,0.9-0.8,1.4c-0.3,0.5-0.7,0.9-1.1,1.3
			c-0.4,0.4-0.9,0.8-1.4,1.2c0.7,0.2,1.3,0.5,1.9,0.9c0.6,0.4,1.1,0.9,1.5,1.5c0.4,0.6,0.8,1.2,1,1.8c0.2,0.6,0.4,1.3,0.4,1.9
			c0,1.2-0.2,2.5-0.8,3.6c-0.5,1.1-1.3,2-2.3,2.7c-1,0.7-2.1,1.2-3.3,1.5c-1.4,0.3-2.8,0.5-4.2,0.5c-0.6,0-1.1,0-1.7-0.1
			c-0.4-0.1-0.9-0.2-1.3-0.4c-0.3-0.1-0.6-0.3-0.8-0.6c-0.2-0.2-0.3-0.5-0.3-0.8c0-0.2,0.1-0.4,0.2-0.6c0.1-0.2,0.3-0.3,0.5-0.4
			c0.2-0.1,0.4-0.2,0.6-0.2c0.2,0,0.4-0.1,0.6-0.1c0.4,0,0.7,0,1.1,0.1c0.3,0.1,0.5,0.2,0.8,0.3c0.2,0.1,0.4,0.2,0.7,0.4
			c0.2,0.1,0.4,0.3,0.6,0.4c0.2,0.1,0.5,0.2,0.7,0.3c0.3,0.1,0.7,0.1,1,0.1c0.7,0,1.5-0.2,2.1-0.5c0.6-0.2,1.1-0.6,1.5-1
			c0.4-0.4,0.8-1,1-1.5c0.2-0.6,0.3-1.2,0.3-1.8c0-0.8-0.2-1.5-0.5-2.2c-0.3-0.7-0.8-1.3-1.4-1.8c-0.7-0.5-1.5-0.9-2.4-1.2
			c-1.1-0.3-2.3-0.4-3.5-0.4V80.4z"/>
		<path d="M92.6,72.1h-7.5l-1.7,3.2c1.4,0,2.8,0.2,4.1,0.7c1.2,0.4,2.4,1.1,3.4,1.9c1,0.8,1.7,1.8,2.3,2.9c0.6,1.1,0.9,2.4,0.8,3.6
			c0,1.2-0.3,2.3-0.8,3.4c-0.5,1.1-1.3,2-2.2,2.8c-1,0.8-2.1,1.4-3.3,1.9c-1.3,0.5-2.6,0.7-4,0.7c-0.6,0-1.2-0.1-1.8-0.2
			c-0.5-0.1-0.9-0.3-1.4-0.5c-0.3-0.2-0.6-0.4-0.9-0.7c-0.2-0.3-0.3-0.6-0.3-0.9c0-0.4,0.2-0.7,0.5-0.9c0.3-0.2,0.7-0.3,1.1-0.3
			c0.4,0,0.8,0.1,1.2,0.3c0.3,0.2,0.7,0.4,1,0.6c0.4,0.2,0.8,0.4,1.2,0.6c0.5,0.2,1.1,0.3,1.6,0.3c0.7,0,1.5-0.1,2.1-0.4
			c0.7-0.3,1.3-0.7,1.8-1.2c0.5-0.5,0.9-1.1,1.2-1.8c0.3-0.7,0.4-1.5,0.4-2.3c0-1-0.3-2-0.8-2.9c-0.6-0.9-1.4-1.7-2.3-2.2
			c-1.1-0.7-2.4-1.1-3.6-1.4c-1.6-0.4-3.1-0.5-4.7-0.5l5-9.1h9.1L92.6,72.1z"/>
		<path d="M125.8,93c-1.2,0-2.4-0.3-3.5-0.9c-1.1-0.6-2-1.5-2.7-2.6c-0.8-1.2-1.4-2.5-1.7-3.9c-0.4-1.6-0.6-3.3-0.6-5
			c0-1.6,0.2-3.1,0.6-4.7c0.4-1.4,1-2.7,1.7-3.8c0.7-1,1.6-1.9,2.7-2.6c2.2-1.3,4.8-1.3,7,0c1.1,0.7,2,1.5,2.7,2.6
			c0.8,1.2,1.4,2.5,1.8,3.8c0.4,1.5,0.6,3.1,0.6,4.7c0,1.7-0.2,3.4-0.6,5c-0.4,1.4-1,2.7-1.8,3.9c-0.7,1-1.6,1.9-2.7,2.6
			C128.3,92.7,127.1,93,125.8,93z M125.8,91.8c0.5,0,1-0.1,1.4-0.4c0.5-0.3,0.9-0.7,1.2-1.2c0.4-0.6,0.7-1.2,0.9-1.8
			c0.3-0.7,0.5-1.5,0.6-2.3c0.2-0.9,0.3-1.8,0.4-2.6c0.1-0.9,0.1-1.9,0.1-2.9c0-1.4-0.1-2.8-0.3-4.2c-0.2-1.2-0.4-2.3-0.9-3.5
			c-0.3-0.9-0.8-1.7-1.5-2.4c-1.1-1.1-2.9-1.2-4.1-0.1c0,0,0,0-0.1,0.1c-0.6,0.7-1.1,1.5-1.4,2.4c-0.4,1.1-0.7,2.3-0.9,3.5
			c-0.2,1.4-0.3,2.8-0.3,4.2c0,1,0,1.9,0.1,2.9c0.1,0.9,0.2,1.8,0.4,2.6c0.2,0.8,0.4,1.5,0.6,2.3c0.2,0.6,0.5,1.2,0.9,1.8
			c0.3,0.5,0.7,0.9,1.2,1.2C124.8,91.7,125.3,91.8,125.8,91.8L125.8,91.8z"/>
		<path d="M145.2,68.7c1,0,2,0.1,2.9,0.4c0.8,0.2,1.6,0.6,2.3,1.1c0.6,0.4,1.1,1,1.5,1.7c0.4,0.6,0.5,1.3,0.5,2.1
			c0,0.5-0.2,1.1-0.5,1.6c-0.3,0.6-0.7,1.1-1.2,1.6c-0.5,0.5-1.1,1-1.7,1.4c-0.6,0.4-1.3,0.7-2,1c0.9,0.5,1.8,1.2,2.6,1.8
			c0.7,0.6,1.3,1.3,1.9,2c0.4,0.6,0.8,1.2,1.1,1.9c0.2,0.5,0.3,1.1,0.4,1.6c0,0.8-0.2,1.7-0.6,2.4c-0.4,0.8-0.9,1.4-1.6,2
			c-0.7,0.6-1.5,1-2.4,1.3c-0.9,0.3-1.9,0.5-2.9,0.5c-1,0-2-0.1-3-0.4c-0.8-0.3-1.6-0.7-2.4-1.2c-0.6-0.5-1.2-1.1-1.5-1.8
			c-0.4-0.7-0.6-1.5-0.6-2.3c0-0.7,0.1-1.4,0.4-2c0.2-0.6,0.6-1.2,1-1.7c0.5-0.6,1-1.1,1.6-1.5c0.6-0.5,1.3-0.9,2.1-1.4
			c-0.8-0.6-1.6-1.2-2.2-1.7c-0.5-0.5-1-1-1.5-1.5c-0.4-0.5-0.6-1-0.8-1.5c-0.2-0.6-0.3-1.2-0.3-1.8c0-0.7,0.2-1.5,0.5-2.1
			c0.4-0.7,0.8-1.3,1.4-1.8c0.6-0.5,1.4-0.9,2.1-1.2C143.5,68.9,144.3,68.7,145.2,68.7z M144.1,81.3c-0.5,0.4-1,0.9-1.4,1.4
			c-0.4,0.5-0.7,1-0.9,1.5c-0.2,0.5-0.4,1-0.5,1.5c-0.1,0.4-0.2,0.9-0.2,1.3c0,1.3,0.5,2.5,1.3,3.4c0.4,0.4,0.9,0.8,1.5,1
			c0.6,0.3,1.2,0.4,1.8,0.4c0.6,0,1.2-0.1,1.8-0.3c0.5-0.2,1-0.4,1.5-0.7c0.4-0.3,0.7-0.6,1-1.1c0.2-0.4,0.4-0.8,0.4-1.3
			c0-0.4-0.1-0.7-0.2-1.1c-0.1-0.4-0.3-0.8-0.5-1.1c-0.2-0.4-0.5-0.7-0.8-1.1c-0.3-0.3-0.6-0.6-1-0.9L144.1,81.3z M146.2,78.9
			c0.5-0.4,1-0.8,1.4-1.2c0.4-0.4,0.8-0.9,1.1-1.3c0.3-0.5,0.5-1,0.7-1.5c0.2-0.5,0.2-1.1,0.2-1.7c0-0.4-0.1-0.9-0.3-1.3
			c-0.2-0.4-0.5-0.7-0.9-1c-0.4-0.3-0.9-0.5-1.4-0.7c-0.6-0.2-1.2-0.3-1.8-0.3c-0.6,0-1.1,0.1-1.6,0.3c-0.5,0.2-0.9,0.4-1.3,0.8
			c-0.3,0.3-0.6,0.7-0.8,1.1c-0.2,0.4-0.3,0.8-0.3,1.2c0,0.6,0.2,1.1,0.5,1.6c0.3,0.5,0.7,1.1,1.2,1.5c0.5,0.5,1,0.9,1.6,1.3
			L146.2,78.9z"/>
		<path d="M171.4,72.1h-7.5l-1.7,3.2c1.4,0,2.8,0.2,4.1,0.7c1.2,0.4,2.4,1.1,3.4,1.9c1,0.8,1.8,1.8,2.3,2.9c0.6,1.1,0.9,2.4,0.9,3.6
			c0,1.2-0.2,2.3-0.8,3.4c-0.5,1.1-1.3,2-2.2,2.8c-1,0.8-2.1,1.4-3.3,1.9c-1.3,0.5-2.7,0.7-4.1,0.7c-0.6,0-1.2-0.1-1.8-0.2
			c-0.5-0.1-0.9-0.3-1.4-0.5c-0.3-0.2-0.6-0.4-0.9-0.7c-0.2-0.3-0.3-0.6-0.3-0.9c0-0.4,0.2-0.7,0.5-0.9c0.3-0.2,0.7-0.3,1.1-0.3
			c0.4,0,0.8,0.1,1.2,0.3c0.3,0.2,0.7,0.4,1,0.6c0.4,0.2,0.8,0.4,1.2,0.6c0.5,0.2,1.1,0.3,1.6,0.3c0.7,0,1.5-0.2,2.1-0.4
			c0.7-0.3,1.3-0.7,1.8-1.2c0.5-0.5,0.9-1.1,1.2-1.8c0.3-0.7,0.4-1.5,0.4-2.3c0-1-0.3-2-0.8-2.9c-0.6-0.9-1.4-1.7-2.3-2.2
			c-1.1-0.7-2.4-1.1-3.6-1.4c-1.6-0.4-3.2-0.5-4.8-0.5l5-9.1h9.1L171.4,72.1z"/>
		<path d="M192.5,69.3c-1.4,0.1-2.7,0.5-4,1.1c-1.3,0.6-2.4,1.4-3.4,2.3c-1,0.9-1.9,2-2.6,3.2c-0.7,1.2-1.2,2.5-1.5,3.8
			c0.4-0.3,0.8-0.5,1.2-0.8c0.4-0.2,0.8-0.4,1.3-0.6c0.5-0.2,0.9-0.3,1.4-0.4c0.5-0.1,1.1-0.2,1.6-0.2c0.9,0,1.8,0.2,2.6,0.6
			c1.6,0.7,2.9,2.1,3.6,3.7c0.4,0.9,0.5,1.8,0.5,2.7c0,1.1-0.2,2.2-0.7,3.2c-0.4,1-1,1.9-1.8,2.6c-0.8,0.7-1.7,1.3-2.6,1.8
			c-1,0.4-2.1,0.7-3.2,0.6c-1.2,0-2.3-0.2-3.3-0.7c-1-0.5-1.9-1.2-2.6-2c-0.8-0.9-1.3-1.9-1.7-3c-0.4-1.2-0.6-2.4-0.6-3.6
			c0-1.4,0.2-2.7,0.5-4c0.3-1.3,0.8-2.5,1.5-3.6c0.6-1.1,1.4-2.1,2.3-2.9c0.9-0.9,2-1.7,3.1-2.4c1.2-0.7,2.5-1.2,3.9-1.5
			c1.5-0.4,3-0.6,4.5-0.6L192.5,69.3z M180.9,80.7c-0.1,0.5-0.1,1.1-0.2,1.6s-0.1,1.1-0.1,1.6c0,1,0.1,2,0.3,3
			c0.2,0.9,0.5,1.7,0.9,2.5c0.4,0.7,0.9,1.3,1.5,1.8c0.6,0.4,1.4,0.7,2.1,0.7c0.6,0,1.1-0.2,1.6-0.4c0.5-0.3,1-0.7,1.3-1.2
			c0.4-0.5,0.7-1.1,0.9-1.7c0.2-0.7,0.3-1.4,0.3-2.2c0-0.9-0.1-1.8-0.4-2.7c-0.2-0.8-0.6-1.6-1.1-2.2c-0.4-0.6-0.9-1.1-1.6-1.5
			c-0.6-0.4-1.2-0.6-1.9-0.6c-0.3,0-0.6,0-0.9,0.1c-0.3,0.1-0.7,0.2-1,0.3c-0.3,0.1-0.7,0.3-1,0.4C181.5,80.3,181.2,80.5,180.9,80.7
			L180.9,80.7z"/>
		<path d="M81.7,20.9c2.2-0.3,4.2-1.3,5.8-2.8c0.6-0.5,0.9-1.4,0.6-2.2c-1-3.5-2.7-6.8-5-9.6c-0.6-0.9-1.7-1.2-2.6-0.9
			c-3.4,0.8-6.4,2.8-8.4,5.7c-1.6,2-2,4.6-1.1,7c0.6,1.5,1,3.1,1.7,4.6c3.4,7.2,7.7,14,12.8,20.1c3.2,4,6.7,7.7,11.1,10.4
			c3.3,2,6.7,2.6,10.1,0.5c2-1.4,3.6-3.1,4.9-5.1c0.8-1,0.8-2.4,0-3.4c-2-3.1-4.6-5.6-7.6-7.6c-0.6-0.4-1.4-0.5-2.1-0.1
			c-2.1,0.9-3.7,2.7-4.5,4.8L81.7,20.9z M99,4.2c13.8,3.6,20,12.5,18.8,26.6l4.5,0.6c2.4-16.6-7.5-29-22.8-31.5L99,4.2z M112.4,30
			c2.2-9.5-5.4-20.2-14.2-20.3l-0.8,4.8c8,1.7,11.3,6.7,10.4,14.7L112.4,30z M98.6,28.3c2.1,0.1,3.8-1.5,3.9-3.6s-1.5-3.8-3.6-3.9
			s-3.8,1.5-3.9,3.6c0,0.1,0,0.2,0,0.3C95,26.7,96.6,28.3,98.6,28.3z"/>
	</g>
</g>
</svg>
