<svg xmlns="http://www.w3.org/2000/svg" viewBox="0 0 193.26 93.01"><title>TELEFONO</title><g id="Layer_2" data-name="Layer 2"><g id="Layer_1-2" data-name="Layer 1"><path d="M4.07,80.36a9,9,0,0,0,2.42-.6,6.29,6.29,0,0,0,1.89-1.17,5,5,0,0,0,1.23-1.67,5,5,0,0,0,.43-2.1,3.51,3.51,0,0,0-.3-1.44,3.43,3.43,0,0,0-.85-1.18,3.91,3.91,0,0,0-1.32-.78,4.81,4.81,0,0,0-1.7-.29,4.63,4.63,0,0,0-1.37.23A6.72,6.72,0,0,0,3.13,72a7.42,7.42,0,0,0-1.22.93A5,5,0,0,0,1,74l-.68-.27a8.34,8.34,0,0,1,1-2A7.64,7.64,0,0,1,2.8,70.17a7,7,0,0,1,2-1.09,7.13,7.13,0,0,1,2.46-.4,7.37,7.37,0,0,1,2.38.38,6.25,6.25,0,0,1,1.93,1,5,5,0,0,1,1.31,1.56,4,4,0,0,1,.49,1.95,3,3,0,0,1-.28,1.2,6.43,6.43,0,0,1-.76,1.36,10.4,10.4,0,0,1-1.12,1.33,11.52,11.52,0,0,1-1.36,1.17,6.51,6.51,0,0,1,1.87.92,7.12,7.12,0,0,1,1.53,1.47,7.41,7.41,0,0,1,1,1.81,5.34,5.34,0,0,1,.37,1.94,7.59,7.59,0,0,1-.81,3.6A7.3,7.3,0,0,1,11.6,91,10,10,0,0,1,8.24,92.5,16.32,16.32,0,0,1,4.07,93a9.65,9.65,0,0,1-1.7-.14,5.37,5.37,0,0,1-1.28-.4,2.15,2.15,0,0,1-.81-.6A1.19,1.19,0,0,1,0,91.09a1,1,0,0,1,.18-.62,1.39,1.39,0,0,1,.47-.4,2.53,2.53,0,0,1,.62-.22,3.52,3.52,0,0,1,.63-.06A4.21,4.21,0,0,1,3,89.91a4.61,4.61,0,0,1,.8.31,5.88,5.88,0,0,1,.65.39,5.73,5.73,0,0,0,.64.39,3.29,3.29,0,0,0,.74.31,3.12,3.12,0,0,0,1,.13A5.32,5.32,0,0,0,8.92,91a4.55,4.55,0,0,0,2.52-2.6,5.32,5.32,0,0,0,.32-1.82,5.41,5.41,0,0,0-.46-2.24,4.57,4.57,0,0,0-1.41-1.79,6.91,6.91,0,0,0-2.4-1.19A12.4,12.4,0,0,0,4.07,81Z"/><path d="M27.3,92.46V72.79H23.39v-1A6.36,6.36,0,0,0,26.8,71a5.24,5.24,0,0,0,2-2.29H30.6V92.46Z"/><path d="M38.76,92.46v-.62c1.72-1.64,3.22-3.08,4.48-4.32s2.33-2.35,3.21-3.31S48,82.4,48.59,81.69a14.35,14.35,0,0,0,1.29-1.93,6.79,6.79,0,0,0,.63-1.56,6.27,6.27,0,0,0,.16-1.43,6.44,6.44,0,0,0-.32-2,5.37,5.37,0,0,0-1-1.72,4.73,4.73,0,0,0-1.58-1.2,5,5,0,0,0-2.19-.45,5.73,5.73,0,0,0-1.91.33,7.07,7.07,0,0,0-1.7.9A5.42,5.42,0,0,0,40.73,74a4.12,4.12,0,0,0-.67,1.63h-.68a6.65,6.65,0,0,1,.75-2.69,7.83,7.83,0,0,1,1.66-2.2,7.57,7.57,0,0,1,2.31-1.49,7.07,7.07,0,0,1,2.73-.54A8.78,8.78,0,0,1,50,69.2a6.46,6.46,0,0,1,2.28,1.39,5.76,5.76,0,0,1,1.38,2,6.46,6.46,0,0,1,.47,2.44,6.81,6.81,0,0,1-.6,2.73,14.19,14.19,0,0,1-1.92,3.08,49.43,49.43,0,0,1-3.47,3.87c-1.43,1.44-3.17,3.14-5.23,5.07H55.34l-1.73,2.64Z"/><path d="M63.14,80.36a9.06,9.06,0,0,0,2.41-.6,6.35,6.35,0,0,0,1.9-1.17,5,5,0,0,0,1.23-1.67,5.12,5.12,0,0,0,.43-2.1,3.51,3.51,0,0,0-.3-1.44A3.56,3.56,0,0,0,68,72.2a4.12,4.12,0,0,0-1.32-.78,4.85,4.85,0,0,0-1.7-.29,4.57,4.57,0,0,0-1.37.23,6.56,6.56,0,0,0-1.38.62,7.86,7.86,0,0,0-1.22.93,5,5,0,0,0-.9,1.13l-.69-.27a9.17,9.17,0,0,1,1-2,7.69,7.69,0,0,1,1.5-1.62,7,7,0,0,1,2-1.09,7.15,7.15,0,0,1,2.47-.4,7.36,7.36,0,0,1,2.37.38,6.3,6.3,0,0,1,1.94,1,5,5,0,0,1,1.31,1.56,4.08,4.08,0,0,1,.48,1.95,3.2,3.2,0,0,1-.27,1.2,7.46,7.46,0,0,1-.76,1.36,10.5,10.5,0,0,1-1.13,1.33,11.52,11.52,0,0,1-1.36,1.17,6.57,6.57,0,0,1,1.88.92,7.62,7.62,0,0,1,1.53,1.47,7.37,7.37,0,0,1,1,1.81,5.35,5.35,0,0,1,.38,1.94,7.59,7.59,0,0,1-.81,3.6A7.23,7.23,0,0,1,70.66,91a9.93,9.93,0,0,1-3.35,1.54,16.32,16.32,0,0,1-4.17.51,9.69,9.69,0,0,1-1.71-.14,5.28,5.28,0,0,1-1.27-.4,2.15,2.15,0,0,1-.81-.6,1.2,1.2,0,0,1-.29-.78,1,1,0,0,1,.19-.62,1.31,1.31,0,0,1,.47-.4,2.32,2.32,0,0,1,.61-.22,3.63,3.63,0,0,1,.64-.06,4.13,4.13,0,0,1,1.06.12,4.61,4.61,0,0,1,.8.31,5.22,5.22,0,0,1,.66.39,6.65,6.65,0,0,0,.63.39,3.29,3.29,0,0,0,.74.31,3.14,3.14,0,0,0,1,.13A5.27,5.27,0,0,0,68,91,4.61,4.61,0,0,0,69.54,90a4.45,4.45,0,0,0,1-1.53,5.1,5.1,0,0,0,.33-1.82,5.57,5.57,0,0,0-.46-2.24A4.76,4.76,0,0,0,69,82.59a7.1,7.1,0,0,0-2.4-1.19A12.4,12.4,0,0,0,63.14,81Z"/><path d="M92.6,72.08H85.08l-1.74,3.16a12.39,12.39,0,0,1,4.11.67,10.78,10.78,0,0,1,3.39,1.9,9.22,9.22,0,0,1,2.32,2.88A7.9,7.9,0,0,1,94,84.33a7.29,7.29,0,0,1-.78,3.37A8.64,8.64,0,0,1,91,90.46a10.47,10.47,0,0,1-3.29,1.86,11.76,11.76,0,0,1-4,.69,7.53,7.53,0,0,1-1.78-.19,5.17,5.17,0,0,1-1.38-.5,2.77,2.77,0,0,1-.89-.74,1.47,1.47,0,0,1-.32-.89,1,1,0,0,1,.48-.94,2.13,2.13,0,0,1,1.14-.3,2.43,2.43,0,0,1,1.19.27c.33.18.66.37,1,.58a7.73,7.73,0,0,0,1.15.59,4.25,4.25,0,0,0,1.63.26,5.17,5.17,0,0,0,2.14-.45,5.6,5.6,0,0,0,1.77-1.22A5.89,5.89,0,0,0,91,87.66a5.78,5.78,0,0,0,.43-2.25,5.44,5.44,0,0,0-.81-2.92,6.9,6.9,0,0,0-2.31-2.24,12.28,12.28,0,0,0-3.63-1.43,20.32,20.32,0,0,0-4.74-.51l5-9.1h9.14Z"/><path d="M97.82,92.46v-.62q2.59-2.46,4.48-4.32t3.22-3.31c.87-1,1.59-1.81,2.14-2.52a14.17,14.17,0,0,0,1.28-1.93,6.37,6.37,0,0,0,.63-1.56,6.28,6.28,0,0,0,.17-1.43,6.17,6.17,0,0,0-.33-2,5.37,5.37,0,0,0-1-1.72,4.64,4.64,0,0,0-1.58-1.2,5,5,0,0,0-2.19-.45,5.67,5.67,0,0,0-1.9.33,7.07,7.07,0,0,0-1.7.9A5.65,5.65,0,0,0,99.79,74a4.1,4.1,0,0,0-.66,1.63h-.69a7,7,0,0,1,.75-2.69,8.22,8.22,0,0,1,1.66-2.2,7.7,7.7,0,0,1,2.31-1.49,7.08,7.08,0,0,1,2.74-.54,8.82,8.82,0,0,1,3.17.52,6.64,6.64,0,0,1,2.28,1.39,5.87,5.87,0,0,1,1.37,2,6.46,6.46,0,0,1,.47,2.44,7,7,0,0,1-.59,2.73,14.69,14.69,0,0,1-1.93,3.08,49.43,49.43,0,0,1-3.47,3.87c-1.42,1.44-3.16,3.14-5.22,5.07h12.43l-1.74,2.64Z"/><path d="M125.84,93a7,7,0,0,1-3.51-.91,8.31,8.31,0,0,1-2.71-2.55,12.74,12.74,0,0,1-1.74-3.89,18.89,18.89,0,0,1-.62-5,17.13,17.13,0,0,1,.62-4.65,12.76,12.76,0,0,1,1.74-3.82,8.78,8.78,0,0,1,2.71-2.59,7,7,0,0,1,7,0,8.86,8.86,0,0,1,2.7,2.59A13,13,0,0,1,133.8,76a17.13,17.13,0,0,1,.61,4.65,18.9,18.9,0,0,1-.61,5,13,13,0,0,1-1.75,3.89,8.38,8.38,0,0,1-2.7,2.55A7,7,0,0,1,125.84,93Zm0-1.17a2.57,2.57,0,0,0,1.43-.42,4.23,4.23,0,0,0,1.18-1.17,8,8,0,0,0,.91-1.78A16.52,16.52,0,0,0,130,86.2a22.33,22.33,0,0,0,.38-2.64c.09-.93.13-1.89.13-2.87a30.83,30.83,0,0,0-.28-4.17,15.75,15.75,0,0,0-.87-3.46,6.75,6.75,0,0,0-1.46-2.36,2.87,2.87,0,0,0-4.12,0,6.46,6.46,0,0,0-1.45,2.36,15.22,15.22,0,0,0-.86,3.46,29.25,29.25,0,0,0-.29,4.17c0,1,0,1.94.13,2.87a22.33,22.33,0,0,0,.38,2.64,16.52,16.52,0,0,0,.64,2.27,8.45,8.45,0,0,0,.9,1.78,4.33,4.33,0,0,0,1.17,1.17A2.61,2.61,0,0,0,125.84,91.84Z"/><path d="M145.24,68.68a10.34,10.34,0,0,1,2.91.39,7.38,7.38,0,0,1,2.29,1.1,5.14,5.14,0,0,1,1.5,1.66,4.15,4.15,0,0,1,.54,2.07,3.18,3.18,0,0,1-.46,1.55,7.54,7.54,0,0,1-1.21,1.61,11,11,0,0,1-1.71,1.44,9.25,9.25,0,0,1-2,1,17.15,17.15,0,0,1,2.63,1.85,14.06,14.06,0,0,1,1.87,2,8.82,8.82,0,0,1,1.11,1.89,4.46,4.46,0,0,1,.36,1.61,5.08,5.08,0,0,1-.58,2.39,6.6,6.6,0,0,1-1.59,2,7.8,7.8,0,0,1-2.37,1.32,8.41,8.41,0,0,1-2.9.49,9.84,9.84,0,0,1-3-.44,7.44,7.44,0,0,1-2.35-1.2,5.54,5.54,0,0,1-1.54-1.81,4.72,4.72,0,0,1-.55-2.26,5.63,5.63,0,0,1,.35-2,6.06,6.06,0,0,1,1-1.68,9.65,9.65,0,0,1,1.6-1.5c.63-.47,1.33-.94,2.11-1.41-.84-.62-1.56-1.19-2.16-1.7a10.85,10.85,0,0,1-1.47-1.51A5.25,5.25,0,0,1,138.8,76a5.31,5.31,0,0,1-.27-1.75,4.58,4.58,0,0,1,.53-2.14,5.75,5.75,0,0,1,1.43-1.76,7,7,0,0,1,2.14-1.19A8,8,0,0,1,145.24,68.68Zm-1.1,12.66a7.92,7.92,0,0,0-1.38,1.4,8.31,8.31,0,0,0-.93,1.49,7.68,7.68,0,0,0-.53,1.47,5.92,5.92,0,0,0-.16,1.32,5,5,0,0,0,1.34,3.41,4.55,4.55,0,0,0,1.46,1,4.3,4.3,0,0,0,1.77.38,6,6,0,0,0,1.82-.27,5.36,5.36,0,0,0,1.48-.72,3.35,3.35,0,0,0,1-1.06,2.42,2.42,0,0,0,.37-1.3,3.3,3.3,0,0,0-.2-1.07,5.88,5.88,0,0,0-.54-1.14,7.46,7.46,0,0,0-.79-1.08,5.77,5.77,0,0,0-1-.9Zm2.1-2.45a15.56,15.56,0,0,0,1.4-1.23,7.86,7.86,0,0,0,1.06-1.35,6,6,0,0,0,.69-1.5,5.8,5.8,0,0,0,.24-1.69,3,3,0,0,0-.29-1.29,3.12,3.12,0,0,0-.85-1,4.54,4.54,0,0,0-1.35-.7,5.88,5.88,0,0,0-1.8-.26,4.45,4.45,0,0,0-1.62.29,4.28,4.28,0,0,0-1.28.77,3.47,3.47,0,0,0-.83,1.09,2.89,2.89,0,0,0-.29,1.24,3.12,3.12,0,0,0,.46,1.63,7.35,7.35,0,0,0,1.17,1.5,13.11,13.11,0,0,0,1.58,1.34Z"/><path d="M171.35,72.08h-7.52l-1.74,3.16a12.39,12.39,0,0,1,4.11.67,10.78,10.78,0,0,1,3.39,1.9,9.08,9.08,0,0,1,2.32,2.88,7.78,7.78,0,0,1,.86,3.64A7.29,7.29,0,0,1,172,87.7a8.75,8.75,0,0,1-2.2,2.76,10.63,10.63,0,0,1-3.3,1.86,11.72,11.72,0,0,1-4.05.69,7.53,7.53,0,0,1-1.78-.19,5.3,5.3,0,0,1-1.38-.5,2.77,2.77,0,0,1-.89-.74,1.47,1.47,0,0,1-.32-.89,1,1,0,0,1,.49-.94,2.1,2.1,0,0,1,1.13-.3,2.41,2.41,0,0,1,1.19.27c.33.18.67.37,1,.58a7.39,7.39,0,0,0,1.16.59,4.2,4.2,0,0,0,1.62.26,5.25,5.25,0,0,0,2.15-.45,5.56,5.56,0,0,0,1.76-1.22,5.89,5.89,0,0,0,1.18-1.82,5.79,5.79,0,0,0,.44-2.25,5.44,5.44,0,0,0-.81-2.92,6.9,6.9,0,0,0-2.31-2.24,12.39,12.39,0,0,0-3.63-1.43,20.41,20.41,0,0,0-4.75-.51l5-9.1h9.14Z"/><path d="M192.51,69.28a11.4,11.4,0,0,0-4,1.09,13.6,13.6,0,0,0-3.43,2.31,14.7,14.7,0,0,0-2.6,3.21A12.79,12.79,0,0,0,181,79.68q.57-.41,1.17-.75a10,10,0,0,1,1.28-.59,9.1,9.1,0,0,1,1.43-.4,8.58,8.58,0,0,1,1.65-.15,6.33,6.33,0,0,1,2.63.55,7,7,0,0,1,3.61,3.7,7.1,7.1,0,0,1,.53,2.73,7.87,7.87,0,0,1-.66,3.2,8.5,8.5,0,0,1-1.78,2.62,8.7,8.7,0,0,1-2.63,1.77A8,8,0,0,1,185,93a7.68,7.68,0,0,1-3.34-.73,7.93,7.93,0,0,1-2.61-2,9.15,9.15,0,0,1-1.7-3,10.39,10.39,0,0,1-.61-3.6,15.23,15.23,0,0,1,.51-4,14.4,14.4,0,0,1,1.46-3.58A15,15,0,0,1,181,73.16a14.31,14.31,0,0,1,3.14-2.39A16.22,16.22,0,0,1,188,69.23a17.46,17.46,0,0,1,4.48-.55Zm-11.6,11.41c-.08.53-.15,1.06-.2,1.6s-.08,1.08-.08,1.59a15.58,15.58,0,0,0,.29,3,8.67,8.67,0,0,0,.9,2.53,5.17,5.17,0,0,0,1.51,1.75,3.59,3.59,0,0,0,2.14.65,3.24,3.24,0,0,0,1.63-.44,4.42,4.42,0,0,0,1.32-1.17,6,6,0,0,0,.9-1.74,7.18,7.18,0,0,0,.32-2.16,9.34,9.34,0,0,0-.39-2.73,8,8,0,0,0-1.06-2.24,5.54,5.54,0,0,0-1.56-1.5,3.56,3.56,0,0,0-1.91-.55,4.45,4.45,0,0,0-.92.1,8.05,8.05,0,0,0-1,.28,7.28,7.28,0,0,0-1,.44A8.47,8.47,0,0,0,180.91,80.69Z"/><path d="M81.74,20.87a10.9,10.9,0,0,0,5.81-2.77,2,2,0,0,0,.62-2.17,26.23,26.23,0,0,0-5-9.58,2.29,2.29,0,0,0-2.63-.89,13.92,13.92,0,0,0-8.45,5.65,7.25,7.25,0,0,0-1.11,7c.55,1.53,1,3.1,1.72,4.58A95.2,95.2,0,0,0,85.53,42.84c3.22,4,6.69,7.71,11.1,10.42,3.28,2,6.67,2.63,10.12.46a18.08,18.08,0,0,0,4.92-5.09,2.76,2.76,0,0,0,0-3.42,25.4,25.4,0,0,0-7.64-7.6,1.94,1.94,0,0,0-2.07-.12,8.58,8.58,0,0,0-4.48,4.79ZM99,4.2c13.81,3.63,20,12.53,18.81,26.62l4.52.64c2.41-16.65-7.51-29-22.75-31.46ZM112.36,30c2.19-9.46-5.38-20.23-14.2-20.28l-.77,4.82c8,1.72,11.27,6.74,10.41,14.68ZM98.58,28.32A3.74,3.74,0,1,0,95,24.69,3.64,3.64,0,0,0,98.58,28.32Z"/></g></g></svg>